<mxfile host="app.diagrams.net" agent="Mozilla/5.0 (Macintosh; Intel Mac OS X 10_15_7) AppleWebKit/537.36 (KHTML, like Gecko) Chrome/136.0.0.0 Safari/537.36" version="27.0.2" pages="2">
  <diagram name="Page-1" id="2m4wDFInYydUL5fE_Nnk">
    <mxGraphModel dx="2381" dy="1153" grid="1" gridSize="10" guides="1" tooltips="1" connect="1" arrows="1" fold="1" page="1" pageScale="1" pageWidth="1400" pageHeight="850" math="0" shadow="0">
      <root>
        <mxCell id="0" />
        <mxCell id="1" parent="0" />
        <mxCell id="7zazZEyK_hy0T95ueNz5-78" value="" style="rounded=0;whiteSpace=wrap;html=1;" vertex="1" parent="1">
          <mxGeometry x="158.25" y="40" width="1100" height="1000" as="geometry" />
        </mxCell>
        <mxCell id="7zazZEyK_hy0T95ueNz5-59" value="" style="rounded=0;whiteSpace=wrap;html=1;" vertex="1" parent="1">
          <mxGeometry x="220" y="100" width="820" height="940" as="geometry" />
        </mxCell>
        <mxCell id="7zazZEyK_hy0T95ueNz5-1" value="" style="rounded=0;whiteSpace=wrap;html=1;align=center;" vertex="1" parent="1">
          <mxGeometry x="350" y="170" width="660" height="140" as="geometry" />
        </mxCell>
        <mxCell id="7zazZEyK_hy0T95ueNz5-2" value="Metadata RDS" style="rounded=1;whiteSpace=wrap;html=1;" vertex="1" parent="1">
          <mxGeometry x="370" y="200" width="90" height="40" as="geometry" />
        </mxCell>
        <mxCell id="7zazZEyK_hy0T95ueNz5-3" value="AIM" style="rounded=1;whiteSpace=wrap;html=1;" vertex="1" parent="1">
          <mxGeometry x="470" y="200" width="90" height="40" as="geometry" />
        </mxCell>
        <mxCell id="7zazZEyK_hy0T95ueNz5-4" value="RBAC" style="rounded=1;whiteSpace=wrap;html=1;" vertex="1" parent="1">
          <mxGeometry x="570" y="200" width="90" height="40" as="geometry" />
        </mxCell>
        <mxCell id="7zazZEyK_hy0T95ueNz5-5" value="PORTAL" style="rounded=1;whiteSpace=wrap;html=1;" vertex="1" parent="1">
          <mxGeometry x="870" y="200" width="90" height="40" as="geometry" />
        </mxCell>
        <mxCell id="7zazZEyK_hy0T95ueNz5-6" value="ACT" style="rounded=1;whiteSpace=wrap;html=1;" vertex="1" parent="1">
          <mxGeometry x="770" y="200" width="90" height="40" as="geometry" />
        </mxCell>
        <mxCell id="7zazZEyK_hy0T95ueNz5-7" value="TAG" style="rounded=1;whiteSpace=wrap;html=1;" vertex="1" parent="1">
          <mxGeometry x="670" y="200" width="90" height="40" as="geometry" />
        </mxCell>
        <mxCell id="7zazZEyK_hy0T95ueNz5-8" value="Platform" style="rounded=1;whiteSpace=wrap;html=1;" vertex="1" parent="1">
          <mxGeometry x="370" y="250" width="90" height="40" as="geometry" />
        </mxCell>
        <mxCell id="7zazZEyK_hy0T95ueNz5-9" value="Config Server" style="rounded=1;whiteSpace=wrap;html=1;" vertex="1" parent="1">
          <mxGeometry x="470" y="250" width="90" height="40" as="geometry" />
        </mxCell>
        <mxCell id="7zazZEyK_hy0T95ueNz5-10" value="SCC" style="rounded=1;whiteSpace=wrap;html=1;" vertex="1" parent="1">
          <mxGeometry x="670" y="250" width="90" height="40" as="geometry" />
        </mxCell>
        <mxCell id="7zazZEyK_hy0T95ueNz5-11" value="Metadata API" style="rounded=1;whiteSpace=wrap;html=1;" vertex="1" parent="1">
          <mxGeometry x="570" y="250" width="90" height="40" as="geometry" />
        </mxCell>
        <mxCell id="7zazZEyK_hy0T95ueNz5-12" value="Skeleton" style="rounded=1;whiteSpace=wrap;html=1;" vertex="1" parent="1">
          <mxGeometry x="870" y="250" width="90" height="40" as="geometry" />
        </mxCell>
        <mxCell id="7zazZEyK_hy0T95ueNz5-13" value="MCloud" style="rounded=1;whiteSpace=wrap;html=1;" vertex="1" parent="1">
          <mxGeometry x="770" y="250" width="90" height="40" as="geometry" />
        </mxCell>
        <mxCell id="7zazZEyK_hy0T95ueNz5-21" value="&lt;font style=&quot;font-size: 14px;&quot;&gt;Aktana Global Components&lt;/font&gt;" style="text;html=1;align=center;verticalAlign=middle;whiteSpace=wrap;rounded=0;" vertex="1" parent="1">
          <mxGeometry x="550" y="170" width="220" height="30" as="geometry" />
        </mxCell>
        <mxCell id="7zazZEyK_hy0T95ueNz5-23" value="" style="whiteSpace=wrap;html=1;aspect=fixed;" vertex="1" parent="1">
          <mxGeometry x="340" y="360" width="660" height="660" as="geometry" />
        </mxCell>
        <mxCell id="7zazZEyK_hy0T95ueNz5-24" value="Amazon EKS" style="sketch=0;outlineConnect=0;fontColor=#232F3E;gradientColor=none;strokeColor=#ffffff;fillColor=#232F3E;dashed=0;verticalLabelPosition=middle;verticalAlign=bottom;align=center;html=1;whiteSpace=wrap;fontSize=10;fontStyle=1;spacing=3;shape=mxgraph.aws4.productIcon;prIcon=mxgraph.aws4.eks;" vertex="1" parent="1">
          <mxGeometry x="360" y="375" width="70" height="100" as="geometry" />
        </mxCell>
        <mxCell id="7zazZEyK_hy0T95ueNz5-25" value="" style="rounded=0;whiteSpace=wrap;html=1;" vertex="1" parent="1">
          <mxGeometry x="450" y="380" width="540" height="250" as="geometry" />
        </mxCell>
        <mxCell id="7zazZEyK_hy0T95ueNz5-26" value="Rundeck" style="rounded=1;whiteSpace=wrap;html=1;" vertex="1" parent="1">
          <mxGeometry x="460" y="420" width="110" height="35" as="geometry" />
        </mxCell>
        <mxCell id="7zazZEyK_hy0T95ueNz5-27" value="Datalake" style="rounded=1;whiteSpace=wrap;html=1;" vertex="1" parent="1">
          <mxGeometry x="580" y="420" width="110" height="35" as="geometry" />
        </mxCell>
        <mxCell id="7zazZEyK_hy0T95ueNz5-28" value="DM4" style="rounded=1;whiteSpace=wrap;html=1;" vertex="1" parent="1">
          <mxGeometry x="700" y="420" width="110" height="35" as="geometry" />
        </mxCell>
        <mxCell id="7zazZEyK_hy0T95ueNz5-29" value="Workflow A&amp;nbsp;" style="rounded=1;whiteSpace=wrap;html=1;" vertex="1" parent="1">
          <mxGeometry x="820" y="420" width="110" height="35" as="geometry" />
        </mxCell>
        <mxCell id="7zazZEyK_hy0T95ueNz5-30" value="Cadence" style="rounded=1;whiteSpace=wrap;html=1;" vertex="1" parent="1">
          <mxGeometry x="460" y="460" width="110" height="35" as="geometry" />
        </mxCell>
        <mxCell id="7zazZEyK_hy0T95ueNz5-31" value="Workflow E" style="rounded=1;whiteSpace=wrap;html=1;" vertex="1" parent="1">
          <mxGeometry x="580" y="460" width="110" height="35" as="geometry" />
        </mxCell>
        <mxCell id="7zazZEyK_hy0T95ueNz5-32" value="Campaign" style="rounded=1;whiteSpace=wrap;html=1;" vertex="1" parent="1">
          <mxGeometry x="700" y="460" width="110" height="35" as="geometry" />
        </mxCell>
        <mxCell id="7zazZEyK_hy0T95ueNz5-33" value="Kafka" style="rounded=1;whiteSpace=wrap;html=1;" vertex="1" parent="1">
          <mxGeometry x="820" y="460" width="110" height="35" as="geometry" />
        </mxCell>
        <mxCell id="7zazZEyK_hy0T95ueNz5-34" value="&lt;font style=&quot;font-size: 14px;&quot;&gt;Regional Componants&lt;/font&gt;" style="text;html=1;align=center;verticalAlign=middle;whiteSpace=wrap;rounded=0;" vertex="1" parent="1">
          <mxGeometry x="560" y="380" width="180" height="30" as="geometry" />
        </mxCell>
        <mxCell id="7zazZEyK_hy0T95ueNz5-37" value="US, EU, JP" style="text;html=1;align=center;verticalAlign=middle;whiteSpace=wrap;rounded=0;" vertex="1" parent="1">
          <mxGeometry x="845" y="400" width="75" height="20" as="geometry" />
        </mxCell>
        <mxCell id="7zazZEyK_hy0T95ueNz5-38" value="" style="rounded=0;whiteSpace=wrap;html=1;" vertex="1" parent="1">
          <mxGeometry x="450" y="650" width="360" height="320" as="geometry" />
        </mxCell>
        <mxCell id="7zazZEyK_hy0T95ueNz5-39" value="US" style="rounded=0;whiteSpace=wrap;html=1;align=center;" vertex="1" parent="1">
          <mxGeometry x="830" y="650" width="70" height="320" as="geometry" />
        </mxCell>
        <mxCell id="7zazZEyK_hy0T95ueNz5-40" value="EU" style="rounded=0;whiteSpace=wrap;html=1;" vertex="1" parent="1">
          <mxGeometry x="920" y="650" width="65" height="320" as="geometry" />
        </mxCell>
        <mxCell id="7zazZEyK_hy0T95ueNz5-42" value="RDS" style="rounded=1;whiteSpace=wrap;html=1;" vertex="1" parent="1">
          <mxGeometry x="470" y="690" width="330" height="40" as="geometry" />
        </mxCell>
        <mxCell id="7zazZEyK_hy0T95ueNz5-43" value="Rundeck" style="rounded=1;whiteSpace=wrap;html=1;" vertex="1" parent="1">
          <mxGeometry x="470" y="740" width="330" height="40" as="geometry" />
        </mxCell>
        <mxCell id="7zazZEyK_hy0T95ueNz5-45" value="DSE" style="rounded=1;whiteSpace=wrap;html=1;" vertex="1" parent="1">
          <mxGeometry x="470" y="790" width="100" height="40" as="geometry" />
        </mxCell>
        <mxCell id="7zazZEyK_hy0T95ueNz5-46" value="Learning" style="rounded=1;whiteSpace=wrap;html=1;" vertex="1" parent="1">
          <mxGeometry x="580" y="790" width="110" height="40" as="geometry" />
        </mxCell>
        <mxCell id="7zazZEyK_hy0T95ueNz5-47" value="LST" style="rounded=1;whiteSpace=wrap;html=1;" vertex="1" parent="1">
          <mxGeometry x="700" y="790" width="100" height="40" as="geometry" />
        </mxCell>
        <mxCell id="7zazZEyK_hy0T95ueNz5-48" value="&lt;font style=&quot;font-size: 14px;&quot;&gt;Customer Components&lt;/font&gt;" style="text;html=1;align=center;verticalAlign=middle;whiteSpace=wrap;rounded=0;" vertex="1" parent="1">
          <mxGeometry x="510" y="650" width="170" height="30" as="geometry" />
        </mxCell>
        <mxCell id="7zazZEyK_hy0T95ueNz5-49" value="EU" style="text;html=1;align=center;verticalAlign=middle;whiteSpace=wrap;rounded=0;" vertex="1" parent="1">
          <mxGeometry x="710" y="665" width="60" height="30" as="geometry" />
        </mxCell>
        <mxCell id="7zazZEyK_hy0T95ueNz5-51" value="Customer ETL, BIA, DCO, Learning Jobs&amp;nbsp;" style="rounded=1;whiteSpace=wrap;html=1;" vertex="1" parent="1">
          <mxGeometry x="470" y="840" width="330" height="50" as="geometry" />
        </mxCell>
        <mxCell id="7zazZEyK_hy0T95ueNz5-52" value="EMR" style="rounded=1;whiteSpace=wrap;html=1;" vertex="1" parent="1">
          <mxGeometry x="740" y="120" width="85" height="40" as="geometry" />
        </mxCell>
        <mxCell id="7zazZEyK_hy0T95ueNz5-53" value="IAM" style="rounded=1;whiteSpace=wrap;html=1;" vertex="1" parent="1">
          <mxGeometry x="840" y="120" width="80" height="40" as="geometry" />
        </mxCell>
        <mxCell id="7zazZEyK_hy0T95ueNz5-54" value="S3" style="rounded=1;whiteSpace=wrap;html=1;" vertex="1" parent="1">
          <mxGeometry x="930" y="120" width="80" height="40" as="geometry" />
        </mxCell>
        <mxCell id="7zazZEyK_hy0T95ueNz5-55" value="ELB" style="rounded=1;whiteSpace=wrap;html=1;" vertex="1" parent="1">
          <mxGeometry x="635" y="120" width="90" height="40" as="geometry" />
        </mxCell>
        <mxCell id="7zazZEyK_hy0T95ueNz5-60" value="" style="outlineConnect=0;dashed=0;verticalLabelPosition=bottom;verticalAlign=top;align=center;html=1;shape=mxgraph.aws3.cloud_2;fillColor=#F58534;gradientColor=none;" vertex="1" parent="1">
          <mxGeometry x="220" y="100" width="75" height="75" as="geometry" />
        </mxCell>
        <mxCell id="7zazZEyK_hy0T95ueNz5-61" value="" style="rounded=0;whiteSpace=wrap;html=1;" vertex="1" parent="1">
          <mxGeometry x="1080" y="107.5" width="160" height="932.5" as="geometry" />
        </mxCell>
        <mxCell id="7zazZEyK_hy0T95ueNz5-62" value="" style="rounded=1;whiteSpace=wrap;html=1;" vertex="1" parent="1">
          <mxGeometry x="1090" y="143" width="140" height="48" as="geometry" />
        </mxCell>
        <mxCell id="7zazZEyK_hy0T95ueNz5-63" value="DNS" style="rounded=1;whiteSpace=wrap;html=1;" vertex="1" parent="1">
          <mxGeometry x="1090" y="202" width="140" height="48" as="geometry" />
        </mxCell>
        <mxCell id="7zazZEyK_hy0T95ueNz5-64" value="" style="rounded=1;whiteSpace=wrap;html=1;" vertex="1" parent="1">
          <mxGeometry x="1090" y="262" width="140" height="48" as="geometry" />
        </mxCell>
        <mxCell id="7zazZEyK_hy0T95ueNz5-65" value="" style="rounded=1;whiteSpace=wrap;html=1;" vertex="1" parent="1">
          <mxGeometry x="1090" y="320" width="140" height="48" as="geometry" />
        </mxCell>
        <mxCell id="7zazZEyK_hy0T95ueNz5-66" value="" style="rounded=1;whiteSpace=wrap;html=1;" vertex="1" parent="1">
          <mxGeometry x="1090" y="380" width="140" height="48" as="geometry" />
        </mxCell>
        <mxCell id="7zazZEyK_hy0T95ueNz5-67" value="" style="rounded=1;whiteSpace=wrap;html=1;" vertex="1" parent="1">
          <mxGeometry x="1090" y="440" width="140" height="48" as="geometry" />
        </mxCell>
        <mxCell id="7zazZEyK_hy0T95ueNz5-68" value="" style="rounded=0;whiteSpace=wrap;html=1;" vertex="1" parent="1">
          <mxGeometry x="220" y="1080" width="1020" height="120" as="geometry" />
        </mxCell>
        <mxCell id="7zazZEyK_hy0T95ueNz5-69" value="Jenkins IaC" style="rounded=1;whiteSpace=wrap;html=1;" vertex="1" parent="1">
          <mxGeometry x="230" y="1130" width="240" height="60" as="geometry" />
        </mxCell>
        <mxCell id="7zazZEyK_hy0T95ueNz5-73" value="" style="image;html=1;image=img/lib/atlassian/Bitbucket_Logo.svg;" vertex="1" parent="1">
          <mxGeometry x="691.5" y="1090" width="33.5" height="30" as="geometry" />
        </mxCell>
        <mxCell id="7zazZEyK_hy0T95ueNz5-74" value="&lt;p&gt;&lt;font style=&quot;font-size: 18px;&quot;&gt;Bitbucket&lt;/font&gt;&lt;/p&gt;" style="text;html=1;align=center;verticalAlign=middle;whiteSpace=wrap;rounded=0;" vertex="1" parent="1">
          <mxGeometry x="715" y="1090" width="95" height="30" as="geometry" />
        </mxCell>
        <mxCell id="7zazZEyK_hy0T95ueNz5-75" value="Jenkins Configuration" style="rounded=1;whiteSpace=wrap;html=1;" vertex="1" parent="1">
          <mxGeometry x="485" y="1130" width="240" height="60" as="geometry" />
        </mxCell>
        <mxCell id="7zazZEyK_hy0T95ueNz5-76" value="Rundeck IaC" style="rounded=1;whiteSpace=wrap;html=1;" vertex="1" parent="1">
          <mxGeometry x="735" y="1130" width="240" height="60" as="geometry" />
        </mxCell>
        <mxCell id="7zazZEyK_hy0T95ueNz5-77" value="Rundeck Configuration" style="rounded=1;whiteSpace=wrap;html=1;" vertex="1" parent="1">
          <mxGeometry x="990" y="1130" width="240" height="60" as="geometry" />
        </mxCell>
        <mxCell id="7zazZEyK_hy0T95ueNz5-79" value="&lt;b&gt;&lt;font style=&quot;color: rgb(46, 51, 255); font-size: 14px;&quot;&gt;AKTANA Product&amp;nbsp;&lt;/font&gt;&lt;/b&gt;" style="text;html=1;align=center;verticalAlign=middle;whiteSpace=wrap;rounded=0;" vertex="1" parent="1">
          <mxGeometry x="180" y="50" width="140" height="30" as="geometry" />
        </mxCell>
        <mxCell id="8zDSFXB22d2hlP_r7Qgr-1" value="" style="shape=image;verticalLabelPosition=bottom;labelBackgroundColor=default;verticalAlign=top;aspect=fixed;imageAspect=0;image=data:image/png,iVBORw0KGgoAAAANSUhEUgAABdwAAAIsBAMAAAAaLnbAAAAAGFBMVEVHcEwAAAAAAAAAAAAAAAAAAAAAAAAAAABoAtTLAAAAB3RSTlMAQHvC6RemlH9+AwAAIABJREFUeNrsnc1bm0oUxgORuIW0NtsEq9la4zXbVG/LNlqf69bW9slWk1T+/etXEmCGGZJhmIHzvjsjgSH8mHnncObQakG1kTeY4keAqMiJl+cDX3Un3fBw9KzTMAx8/KZQYbXjlVhu3PX/+iXi/qJReFBksxedMP/r/o6TWpxiwICsxv1Zl/3dcL8ex4yWp0e4kpDNuHO67QKbeYcxXye4lFDTcPc+x8AdooJ7Lu0lthAC7nbg/iMG7hAV3J0oH3cflxJqFu7DGLhDVHB3BbTHuJJQs3DvCWhf4kpCjcJd5NzjBa4k1Cjc2yIv84QrCTUKd9FENZ7jSkJNwt0TeZn4EVcSahLuwrgMcIeahfueEPe/uJJQk3BPhyHPB8GrwuPRq8l5wJWE6ou7F67U58xUF6n09qvwHgmRUJ1xZ5WYqS6Zpno+riTUINy9ROf+B5cNajbuDh4pQXRwT8Qhv+GqQQ3HvYOVHBAd3NtIfoRM4X4VvMQIg8AE7kiPgSrE3Qnvo8TjnrwdX4XhW6GvwYEMdy8IR+ehL2zn/pb5Alfh8evRC92RXe6xve7zGZzLCkBBTca9e59NvT3ikjJOVT0aCHC/Pny7e5bJHXnBSn4W9wL5AsnDL39lT8x53/OKY+/z2/mtjjl922pd0ebCByYkcU9TvNJP9ovMZotBDu7XiQp4R4JBYIP7gzyKM0uvdPrJP+X3gKYzez+/1THvXv44Tu4Ak2OSuOcsn8s+9rnm5epOeBw7qcIxiaelAtwnslP6jzn8xZR3ym8roNwozuB+wpRvWqJ/p4j7fs5C0XTvx19ld8LhOHtffC2Cu2yK+x/n4Be8U16uaU/j/rflzbB6BLjnJuGmn3PO4oK4f2Lum6k67vyb7QvvlKcr2tO4P3rswqk7kEIP99zlokkaOsIyXwmOPwsqPe6MuzeTDkDtzRk740T7V8ecf8RaWODeEqwoSg72w4K4/yvaz864/5C3cH3K/fW9cZI85hJF+YC7EPeYN8mU4C4sF7Mr7t5YXkRyfcp3w5iHO1YHAncJqxsG98Q3hBj3dSN2xb1doFZBmx1f5LgjdYEe7l4BmIZKuN8p4j4rUEWynXO3ipsGN0MO91Ykr+I1FhdxlOD+oIa7aO8TNdwnYIUc7mNp3+nFSrg/quF+U6TyUjuHZQelPYB7CveZdKx3Jd5XgvtcDXdRpbF1UL+dM6iIm4ZQJD3ch9K5akfidiS4PynhLq401lfCHSW16eHee30n6lueuxcccuoaJVg6fU05vApeE4afiuG+UMI9PbSMRmOu+94Rdx+wNAn3EaMzBvfb76lX9iZyXlbWdp+TANPyuofzYrjHSri3k2mQLw29+s1x30VxvwzD8AyhmYbiXsQHeJlv/2BM934OHp4A96gs3DcZm+vk+Q+sUWrnpBikm/ZeuukDXmVJF/d8s8ziPi0WKnwZL67j7Ld2w33IGVo+M7Nl5pQXfbZp65zhGSKRwJ0BbMF0sK0iuH8/ynDqq+A+5mXOR9l9Z0954bNNm0+ZH+gBsJDHfS8X92UB3NfrjDrl4M4NkvckuK9oTzZtMWUbjCLDwL2t0rs/9dlPVXDnVznoiNOYNwOBwz/fCM+ZgHs29LfcHvcLThdaEu7J9nrZb7ZzEuEdXlBp45CAO3B3s3TfFp6qXnBtiAruLv/YYwHuyWUfOSVwZsAduOfhvi/5Tg5T5eKenjfMMpPNZHT+SN60IXAH7nLcv1WOe4f/ltVePu5/WsAduBfH3cnHnV+dRSfubX46Vz7uX1pb4I5qBMCdwT3pFAamcJ8Xw33eAu7AvSzc4/i7D9yhJuOeTkrkFGgE7lBzcM/mxCx/TRuCO9Z3AHcGd3Y5a9rC1xf3BWBpEu6DIKtPebg76026DO6c9X3JiqTAHbICd3ZayX+dwaoee87atlveGiUfuEN1xN07lCzl5K7N3vBeX9xRWIke7t5n6crlcbxV8cfa4I612fRw/yhfqP9ju/JgwB2yFXc3v7LFZjo626qiBnCHbMW9V6QuBf+FAn7tcZ+CFlq4i8oWJb7OHQMmtcfdBy20cO8UrDrk/M6tsQjcobrg3itcZOtTlBObAe5QXXCfFa8p5xzyy+EBd6gmuHtblVB0jiNOpLLGuPdBCync3S0rhqZ7+Clwh+qEe2frArnX4+wG6rg/AHeoCtw32z4FzCZ8Z8uUrAPuUE1w32dryslwT7w+pizcH03hfgdaSOF+yxInxd0tCfe9OJYuomtvWXhjS9xPQAsp3HtsP9eR4e6VhHs7jqWL6HLqzAyBO6SCe7/Q17kgq+Oen7vi8utTzoA7pIK7Xz3uLptLLDVO74ry7hzgDtztxz13rupw74j8gaIY7mPgDtxb2RmkZtwdXkX2XNy/8Rw9U9+9GO4RApHAvZWND/b14t7irQTMPdYTLzCzG+5ODNyBe1HcnbJwT6annWYOEhz3074j4WYSD7qmu+DeAe6IzOR2nS1nKpw+7oz7MFV8cl2qyXl7S/Eks83TlJlpsm/eK4R7T2rXoGbifptZmZR6a+kK994i9abhjyVlRGbr1yzTLzp+yKC5KuWUrJzwVBj3C583OAAWWrjvZzhJVeHob3rD5a818Zv3ai8VcRfmp71Ha/ZSxSmDIAjH7HqqArjH8SgMXlviDeMYZZVo4r7Z9uUFkU53zCsj+e6xL0fhs0alLe+QvF3+MRutzF8tWwj3twEkTKbsoyQqMdwTNC02PiKD+zgHNsXFe+KlVO979wrVdS2KO3+xrXkFVOSbxd0pApOElt1xv5HjLrwlllM13Ce24B7FRGQYd+EP3ZcwM1HFXehUFvJbYt5Sw92aOOSQCO1Lw2ZG2Hn2JVD2VXEXd93yW+JEEfepLbjvEcF9bhr3nhz3joQWBdx/iH4bycwh4WV2xN2emapLBPeJadzbctz3JLQo4O6N5T7vpkBfsRvu3+wJLxAx733TuIuK5vW5T4MYWhRwF3bvPvNUKHfesxvuFj1TpWHetdTT364k6lCKe09CiwruBQ6fW5F73lLD3aaoOw3zPjePO+vM/0TpTYaStivhnt93r1uY43iSScM74X5nEe40zPvEPO5MdOTL+hNx8MYvBXdBffn1Zvy58j8tNdzteqRKwrz3LcDdzdK+7s6FuH9tlYN7Igcn03tvfpwPnH9ftBRx71uFOwXzrudVWNu+iiwJ0/JnYm76jqV3LKZNEXduLe34MpWEyfJ+MVXE/YtdmR8UzPvcCtxbm5etfn/9Rmf0pvUmTO3f+DRBmzMaZb/wovWnvnCzF3XT2TrL8/Agu0VmCPiVOa3Vrk/zcI/spp2EedeTs+GGK7FPDZ31/5K3wvX9K2Wng9x9OsfjVNdbdpuvjt8yLZejX4MDbgOSr349PSi428SI0k3uYHHUsk0EzLtF9jEIZFHoq/Bw9Mz8aBQe6GmCFwSip/pe9+X4y9HpoHi8PG2gguczeB5HRqeDln1qvnnHW2x1K3e+YJ+ab97n4BG40zHvE/AI3OmY9z54BO5kzDusO3AnZN5h3YE7IfMO6w7cCZl3WHfgTse8w7oDd0LmHdYduBMy77DuwJ2QeYd1B+50zDusO3AnZN5h3YE7IfMO6w7cCZl3WHfgTse8w7oDd0LmHdYduBMy77DuwJ2QeYd1B+50zDusO3AnZN5h3YE7IfMO6w7cCZl3HygCdzLmHe+vBe6EzPsjSATudMz7CUisFvdFXQK/Eaw7pIb7pa6qljDvsO6W4X4+qFXfsgfrDu0qL/VSBJh3WHcI5h3WHYJ5h3WHYN5h3SGYd1h3COYd1h2iZN5h3SFC5h3WHSJk3mHdIULmHdYdomPeYd0hQuYd1h0iZN5h3SFC5h3WHaJj3mHdIULmHdYdImTeYd0hQuYd1h2iY95h3SFC5h3WHSJk3mHdIULmHdYdomPeYd0hQuYd1r3uugpH+kdoF9YdMi6nexhVY0gjWHfIpLzu8Vl1F3EI6w4ZUxCOqu2zbmDdITNmvXsfVT5Eu7DukAEHczg24ki9CNYdqtjBnJm7ikNYd6hCfYiMdlo3sO5QheqZHaNdWHeIDu5NMO+w7sCdjnmHdQfuhMw7rDtwJ2TeYd2BOyHzDusO3OmYd1h34E7IvFdl3UXdwrKcQ4wFh3gC7jDvFVr3W+2GyiMwITeOe93Ne1XWvS1qRL+MIziiI/wF7jDvFVp3V/sQ0xEd4Q64w7xXOMjr73v3tI8fwL3u5r26qLvI9M01oxDHU+AO815l1H2mO25SQewHuNfbvC+suFJxrDsOOQfuMO+Vxud0RyIpxCFtwL3O5r066649cCK8DBPgDvNeacKMbhwpxCFtwL0E8/7IC9n1Oec5SuqsVgkznuZIJIU4pBW431SHe+q47XrlumueSlKIQ1qBu1tb3E+qvFSaI5FDCmmfNuCubt5N4e5bcqnKiERSiENagbu6eTeEe7Wd3p7WG0/31AC4l2feDeFebTRab+iERBzSDtzdmuJeqXXXDGSHQmDGDtyVzbsh3Cu17pofe+7bc6J1wf2qe//ViHk3g3vV8Qqtk8kegQSxEnH3usfjnXuZm1riXnUiidZQofaEywbhvqkivBsCbi1xP6n4Wt3qfBCkPZ2+Ibhfhcn3IOyGu6p5N4N71Y5WZySSwkJVZdyd7uG4lAF+WEPcK3/U6GqMRLo2DWM24u4Fx2el+dmbGuJeeQ64ozESqb/QQZ1xf3YwpTLg1hD36vu8SN/Nd2uTa7MMdzcq+1dXNO9GcK8egpm+6SSNOOSOuJffyQxrh7uBLEGNkUiNdxJwL9u8m8DdwPJNjZHIyK4zbTrubu1wNxCu0DefFM6CH4B72birmXcTuBuYv+mLROqMcQL3ss27AdxNLPDRF4kkEoe0B/ebmuFuxNBqc9ha8xOAe8nm3QDuJyau1lBX/GRo2TjWeNyVzLsB3H3LrpYalUTikPbgrmTeq8fdTE7sni7PQSQOaRHuN7XC3UySoK4VdjqzcYB76ea9etzNBOd0xQupxCEtwl3FvC9SxfDeP7xMfvaep1xa0Twz0QpPUy/cppEgZhPutarzbmo52/h/9s7luY0bicOixMeVlGPzOlIc8arIzvJKr0uZ6zhxFa+0nS1exef8+3tYJSvZYg+60Wh0z/QcWXpwgA/Ah99ggDSODeaQZ457ijK3tM97rvd7EiWRM4Utu+24W9rnfaWvumKSyK7kkJpwt7TPe5WpuhIlkRoHsrbjbkjesw3waZLInrrHx13A3Y68Z+vxekkMqxMHd6jD3Y6850MgSRKZdm9hx926vFfZ6mudIomEJsD7M8c90QILK/KeMZtLkkR2JofUhbsVec8YVixTJJGJHl457u2Q94yzt4sEjtWNgzv04W5F3vOpe5Iksjs5pC7cjch7Tp1NkUR24+AOhbhT5X07eXJdPn745emHjw3p6UeTV/bUHX4Rg5hE9pWOZK3HnSrvsuvdsz54SZBEdieHVIY7Vd5lca+UVhjVshIts3TcU8m7KO55k+glf1fcnRxSG+6fDeCeN5obso87qV6RctxTybso7lnVHS6hgv0vrhz3hLgT5V0U97xZxYAdzg7lkNpwJ8q7JO65F5FApv3gOaQt3D+rxz33U3X2JHKaYhmO455Q3iVxX+mtMdrI06EcUh3uNHmXxD338N7nTiI7lEOqw50m74K4Z1//zZ1EdimH1If7Z+W4Z18Qy51E8iebjntieRfEPXsQzZ1EgqPF2HFPiztJ3gVxz5/MzXnHnlF3FogpxB0M2vLjruDVzRnv1HKq+27bjvtSNe4K3mVb8vK57lAOqRD3oWrcV/mrjDmJLHU37rbjPlCNe351hyfz6Lllh15UVYk7Rd7FcNcgsz3W5LBTOaRG3JeKcVcxupec/XFnDu7QivtQMe4rDXW25myPCd6OctwTy7sY7pWGOmNNIjlyyE+Ty+v/X5NJ5bgnlXcp3HXk0KxJZNx64k+X1+9eeOy1f/f1auy4p5J3Kdx1BHMXnP5Rkt8W+XT9DXwC/vH6teOeRN6lcFeh7qxJJHFXssHlz/OA8vp4VTnu/PIejHvkLmI6Ko8ziSTlkJc/By9s2gUCPzl5hbTfwelff43HvRcOxPb0P56kk/fjk5nS9c3jh3dPP6SsxFG7hIQxicTvKPzpZo4qtN1VyPegGlUjoNukuENXyuRd5NLyTH3G9x2hon7pRdXLb/hi+/fYcWdO3kWulRLcp3yrumaYPzW4nJPKbf+L486bvItcWuZdIz7hQuSQg+s5ueS+dA/3HU8l5LvUrP4e8iWR0DRgwdGzP16/Ou7W5F3Ncli+JDI4h+zNIwvvQ9dwP/J0X67usOwVSRpO/LFZv3YM9y1TfXZe3eHXVVFJZHAOyYDAfxx3S/Ku6MVNtiRyGXq/DB3Qfuy4G5J3RW+ysSWR4TkkR39RdQl3zPoCjfK+0oN7n2sQWgc37zlDCX5w3O3Iu6LVTmxJZB08CWDRy8JxtyLvmvZc6TElkYj1kLO0Pts+3B8wFYqT9927p9fjhx+ffvY4Fj/7udKqusO9csEzSnzXbKZphbDjuA/pA0fwevcZT03luNY8SSRiy5pl2iGyfbgv2J6kZMG90oQ7UxI5DSdzlHa+3z7cb9n6rxy469ouccmTRIbnkOQzlwOLseu4L5Xhrmv/uAuehjkPv2GuaLjoCu44+R0qw12VujMlkQNE73TOhPu2K7ij1i7h5F0Ad1XqzpREYl56ZXrn4dRSgq7jjpL39Lhr2+m85ChozDFPXLjXvznusfKeHndtWz+zJJGorbO5cN92BPcxrkKHqnBfKcN9ytE0pxgq51y8jx33SHlPj3ulDHeWJHIWWqSsuC+6gXvFOF5L467ukKIhx5edY6CcceG+7QbunB2YNO7qTm05Zyhp3JGVbLjvK8c9Tt6T465N3WFUxwxNpsCIfvwDmNbhvmetUWHctak7nESuGPqTH+54xIb7oQu479A1ulaDu8LzRWfYySAuh9yhfhp3HR33OHlPjbvCAxcZkkhUDsm1RuzEWNk63PE95FAN7it9uPfjk0hUDsm2aOblB46twx1/AvNADe761J0jiUTlkJy4Lxz3KHlPjLtCdWdIIpF7kfX4cN847lHynhh3jWelxyeRyJ0mGTeHOHYA9w3vgC2Ju0J1h1VkFVu6e2T0GT1XddwRHUpi3CuNuEcnkSOkvs1TzlVbhzvFCNYqcNeo7rDpBXUtuByScRXBS6NP63B/YK5SOdzvVeIenUSukX0TI+4Hxz1G3tPiXqjE/Tz2kR7k4rfI0SA6tmgd7rfc8YMU7nuV6g5XShX5+wVmqN19v38bQQ8dd4S8B+NO2TRve6bzKuOSSPSJNz9Obd/dXX93Wu5gcv0+pAdx3OOS94TXvVLc13FJ5AUyh3z+C7u7q9en2Ltp7kcq1bi/e369p1BDMmAN+7wXSnGPTCKX2Czqn7rY/+sKHj16b9Flqgl3xDj47Lj2Z9eYUqUK9nlXqu7RSeQU++v/q/X93VVAgbzCJpFGcd8Ijtgyl1Z1B21kG1eyD6eY+v0qsPG/Qpqt465E3rWqe2wSWWLVv7f/+jr8273FpdKOuxJ516rukUlkD3/PKKvrlagVJY67DnlXq+6RG+edp14k9CfKEB13HfKuVt0jk8iL2IeyjR1V6bjbk/d7vbhPY5LIZfImPsU0KMddh7wXenEfxSSRszp1JZ5jnmM57irkXbG6gz1BYwe9jntIFTu3cNxVyrtidY9LItE5JP6aIRblOO4q5F2xusMDXxWRQ455vl/fcReU9yJ03mRU3eHX6YrMOWTD/ygcd2Z558Bds7rDtrCi55BcLyv2HHdBeefAXbO6RyWRS4mbLh13OXnnwP1eNe59epgIDQwHgY7q1nFnlncO3FWre0wSucYsV0wgW447t7wz4K5b3UE5bkgi6/Q5JFjojju3vDPgrlvdI5JIiRwS1NAHx51Z3hlw163ucEdQUDVoz/b1Ro67nLwz4F4ox52cRPYFckgw7XTcueU9Hnfl6g6PewtqhLl13LPiTpT3eNyVqzv8sGiTPYeEhuWN484s7/G4a1d3ehI5l8ghMZw47rHyHo+7dnUnJ5EDmbt23AXlPRp39eoOL+OtiDlk5bjnxZ0m79G4q1d3chIpk0M67vyP5xLifq8f9yktiezLNHLHnT+BSId7oR93YhI5rUVq0HHnn5Ilw92AulOTyBk1r3fcJXAnHYMVi7sBdQdfGDrSinPluGfHfZoBdwPqDmZW+9w5pOMuKe+xuBtQd2ISKfGiquMuLO+RuFtQd9jCC0oOuTtz3LPjTpH3SNwtqDsxiRTKIR13SXmPxP3eBO4QuQ+Zc0jHXVLeI3E3oe6gl2wy55COu6S8x+FuQ91pSeRcqJU77oLyHoe7DXUnJZFgDjl23DXgjreRj0/PxkS3FhvqDncDFX5E2J857hpwJy2bibgKI7gTksgh7VGs4y6Ie0+WdiPqDo96ty//ykjK4Rx30eQ94jKi7nASecC3kIPjrgP3qSjuVtQdFPETlbHGDwiOuzTusvJuRd1ByTsh4qXUfTvuRuTdjLqD8O7xBTl23HXgLirvZtQdVpNx1hzScbci7/d2cEcnkRIHdzjupuS9sIP7EjvxXNZS1ee425B3Q+oO9gIH7Cj54LhrwV1Q3g2pOz6JhGR/RemGJqeuN467CXk3pO74JJIrhxxMrr+9p5aw465I3g2pOzqJ5Nkwb3D5LaqEHXc98m5J3dFJZNTR8n/XxE0ZWcSOux55t6TusOMVSXLIN2V0ETvueuT93hTuI1wSGZ1D9v5iKGLHXY+8m1J3cPn6AfdYahHw7/4oa8ddBHchebel7qCMb9lzSB7aHXc98m5L3cFXT4+4HHIsRbvjrkfebak72AnsmXPIHhPtjrseeS+M4T7D9NfEPYMfBxK24dVx1yLvxtQdmURexFjcT7XjLoi7iLwbU3f4ddVbTA7Z9KLqsHbcRXGXkHdr6o5LIiNyyMHacZfFXULerak7qHhbTA7ZcOd/1o67LO4C8m5O3XFJZE3OIfnmqY67Hnk3p+5gj71H9Bd7uc7dcdci7/f2cEckkREb5q0dd3Hc08t7YQ/3Zfjt0A/uOK8dd3Hck8u7PXWH+4Db8NHxIDiuOu465N2gumOSyBkmo382US0d9wy4p5Z3g+qOSSLnVI1jtkjHXYe8G1R3cJXjMTizhBeITR33HLgnlneL6o5IIsk5JLPLOO465N2iuiOSyCH11s9rxz0L7mnl/d4k7sFJZL8mVt1nxz0P7mnl3aS6hyeRUF+xoI4fjrtVed+bpB1UjUMotStBdXfcVci7TXUHA5ctRw7Jre6Ouwp5X9jEPTSJJOeQfcc9F+4p5b0wijskKYGd9E60i3HcFci7UXWHcRwz5JBrxz0X7gnlfWsV937YFJScQ5aOezbc08m7VXUHu+1FfA7JP6A67grk3aq6hyaRM+K9Dx33fLgnk3ez6h6aRM5rSnUnCGYcdwXyblbdwSI5huWQ0F9fOu4ZcU8l7wu7uAclkeQN82aOe0bcU8l7YRf3oCRSTw7puOeXd7vqHphEjkKX1qS3R8c9u7wbVnfQUxYhQ8At9NcbCm739WoyiePEcReXd8PqDg54mxAnKcij6f5Lhf89xz27vBtWd/C55zbk2eiYOHTU+4JCoeOeW94tqzvYc+8CSm1PNaX6lzPH3aK8b03jDmWFVWQOST0CwXFXLO8L07gvm0XlgrpA7IIoQY67Ynk3re5giayaWwQI1Yg4JDrueuXdtrqHJJHTkGweOXLcO+425d22uockkdQcEoKkcNxtyrttdQ9JIsvm2Sy6sCvH3aa8F8Zxb0wiof5/R0x9jmeOu0l5N67u8HhXReWQAO6wAQ4cd63yvrWO+6hp5CLnkADuDdXtuGuVd+vqDq7uXTXlkAsi7g+Ou015t67uzUnkjJpDAtOCheNuUt7Nqzv4Zt6mKYccE8Xx1nE3Ke/m1R0skG1UDgn85ZUK3KHT69uC+8zVHZVE9sjBDIB7oQF3iPbW4M67GURhH/eGJPKcPrZlxX0TRXtrcGfdg9m+usPtv4Dn9gfDuPfWdRdwZ923sAXq3pRE0nNI1bj35nU3cOeU9xaoOyjnC/qGeblxbzi6vqw7gjunvLdA3ZuSSHoOSce9ZMAdnEb/UdZdwZ1R3tug7iDQW3DzjKbbn/MPC+G4Q1/uDVZTDePOKO/bVuA+g5LIiBxSAveSwOHgbd0l3PnkfdEK3KHJaDWMaO3kp6rhuM/xCxzO13V23CX7ST55L1qBOxQ1Fn16DpkZ9xPvB74p6/y4HwWrl03e26HucBIJPYS6JQ+jCwHcX0Sq95bkqdy47yTrl0ve26HucBIZkUMCuB8EcH8JxMt5rQL3WsncrIPqDjb/DZKnwHLeSOD+gdy1p8d9LFi9XPJetAR3YO52jHG5Gf9iGwzu++dMDW7KWg3uK3vy3hJ1J492jS43pbprOO5gynKsnsAe7jESuB8k65dH3rdtwX1Ju/8NHXd4ofxP4f8TbqnHv1ns3ZRRlcuO+9ZAd9ZSdae+0LiIaEaQB76quXCv67uryWRy/T62LyPhDr44Z0/e26LuVLlr9M8ROhRvoh2NO9PQzY/7b9bkvTXqDh8kGdHcLyjPWV6hBGpqFfddZUzeW6Pu1OKoInA/1Vaa1rO0BveXuvfLO8XyvmgP7qTiaH4yeI6e5/aa1rNseGbZIrjDg+YPh/V8+m97Z/DUthHFYSRsehVuqK+2G/CV4plwTegUX5WUKVcgdLhiTOi/36RQZmiQtW+1z96+9/3utqXdT/u+fdJY12rPFqSQ95Ed3Ic61a2UDl/78yyL8O3BxnFvefHg/YvX9Qw+Kz5bkEDe7ah75NXf/hBrP7Qp/phP1/If7eWMe9vFe/X02WJwcKz7bME88Xj8v7OjJHNhTfGn5e065hrbzhn39htby9nXzAXboY2Kh57NAAAGjklEQVTJuyF1jyt2F+3fu3q+78fPs7t7cBxXUnZyxv1G/KtVTuXbqrrHdSIDpqZ1vmdXk8lkNos3qDJn3KfZQNV5mCype9w/CWptgUW4F+C+Fnm/M4V7hNuFNM3O1XHv54y7/Gq/yGiCzap71DIccr331HFP+idZqXGXd0kPs+q9GVX3qNEIeYS11Mf9OGPc5W2j26yaEVbVPWY0QhaiQh/3aca476isIZuQd1vqHsPlSH+QQ3AfZox72f30MpF3W+oew2VQi/hGHffzjHHvZ7SKdpP3kTHcxVyG2dxQHfftjHGXLyJ6uHeSd2PqHlHrHtawpoTgvpMz7kqjunZ5v7OG+3ln7hJt1qQ/W+SMu7i4LTNa0Ayru9wJwnoIhTruWo33JLjLi1tWvWaz6i5Xu8D7f8fquN9kjLu8uNU5yrs5dZcvwyP9EhqG+zBj3OXFrdKb4nmisXDZiaz1S2gY7r2McZcjpqgN8SvPe3u4C51gqV9CA3HfyRn3aUa4x68LI3u4C53gQb+EBuJe5Iz7mdKWaK3ybk/dt7Z+ULrbPdXGXekhsTS4ixE7zOrOuVl1lzpBsM5tq+M+zRj3vhSx25xuJdpVd+k6FFx0C3XcexnjLkZM85+BYwfKoLpLH2eq1NeUYNzLnHE/635+m5Z3i+ouVeDw2yFn2rh33A1fquJedLrKspD3O5O4izqRgmc7CnXcO91o+rMBgkS4Sxu8qmzFFdr3JnEfas3KVBv3Drvhb39cN1XFXVjcVN9AGSfvI5O4i8ZCsqOKug80EeBedKK9AeVUuAsPTvUNlFHyvjRJu4xKSYHrRzTGfykkW7nY+rGsmu84pMJdenCqczxPVE8NpFArcPLN6knjzCwS9vZP6xXXeTLchcWt1pzjmHXh0Cbuok5kJbqQpIvKXd24xVskuZnzT47qVSU+Ge7C4lZpznGMvFc2cZf0EISt2DfC7VrdvBAtum+zn07hcnVZS4b71u/5bAwj5N2ouosqnbB/IFveH416KMFdPo3L/RajTYe7bHnX7YPIy+DCKu7net3hH8W0N9XdRZLu9l8ndduH0+EuW94vclnSbKu7SOykT3YIFrh/X3KwI8Jdth+8H7eznBB30cV4mMscG1d3iREcqn338ytsSlltlRB1UgWUtZS4lwKHuM1ljo2ru6QTKRfMN1LJKGS4l7FLe1MfMyXuEpn7ojvJUnk3q+6SoZBXuH6QNV62Hs2ia/fnqAq7VJLivvU2eGg/ZNOPsK3uAiGIeSS0aNf35X770Sy6bQ9O90PLWlrc+zexpWfD8l7ZxT34yo96bK+1G3lUBxzNoosgL8fhZS0t7iFX++ulZ7PyblfdBZ3IOKErj8OX9kbCVvz0H5Gwv15IEuPe/j7wr6VnLytjNa7uW8VuYCLXoOJ6xT3OOuxoVhGxkvfTsaysvcT9Y/Ng1KG7l7cRnrVpeTes7vrpHzSsu5M6yfd/alq67q/2Mjj9n1asrEfrOsAe6r7GAvLz90P6Lt32rHzVGN6N63zP/lt+nawPqxJ1X+uUv3g/9vJonHSm+4P/bBC+/kCd0dl/PPhuhZ9N1lt55qj7mokfTB6zW6X/8v7g89OE3s+uxnv5nf3g4Pkl4cvZZHftF+MUdbe4565zP8Ddzfx2D3UnflKi7sRR5qg78ZMp6k78pIe6E+QddSee5R11J47kHXUnjuQddSd+5B11J47kHXUnjuQddScmcoa6E+QddScGE/SPyag7cSTvqDtxJO+oO/Ej76g7cSTvqDtxJO+oO3Ek76g78SPvqDtxJO+oO3Ek76g7cSTvqDvxI++oO3Ek76g7cSTvqDtxJO+oO/Ej76g7cSTvqDtxJO+oO3Ek76g78SPvqDtxJO+oO3Ek76g7cSTvqDvxI++oO3Ek76g7cSTvqDtxJO+oO/Ej76g7cSTvqDtxJO+oO3Ek76g78SPvqDtxJO+oO3Ek76g7cSTvqDvxI++oO3Ek76g7cSTvqDtxJO+oO/Ej76g7cSTvqDtxJO+oO3Ek76g78SPvqDtxJO+oO3Ek76g7cSTvqDvxI++oO3Ek76g7cSTvFwwH8SPvNcNB3Mj7A6NB/Mj7F0aD+JF31J04knfUnfiRd9SdOJJ31J04knfUnTiSd9Sd+JF31J04knfUnTiSd9SdOJJ31J34kXfUnTiSd9SdOJJ31J04knfUnfiRd9SdOJJ31J04knfUnTiSd9Sd+JF31J04kvffGAPiJxVDQDaSvwEbCMyP8M2EiwAAAABJRU5ErkJggg==;" vertex="1" parent="1">
          <mxGeometry x="1112.5" y="149.39" width="95" height="35.22" as="geometry" />
        </mxCell>
        <mxCell id="8zDSFXB22d2hlP_r7Qgr-2" value="" style="shape=image;verticalLabelPosition=bottom;labelBackgroundColor=default;verticalAlign=top;aspect=fixed;imageAspect=0;image=data:image/png,iVBORw0KGgoAAAANSUhEUgAAAeAAAABeCAMAAADMvTcWAAAA2FBMVEUAAADJIDVaZZHJIDXskS3pdi1wmaZZh5tZh5tZh5scRH7skS0cRH5wmaYcRH4cRH4cRH4cRH5Zh5scRH5aZZEcRH7JIDUcRH4cRH7pdi3skS3JIDXJIDVwmaYcRH5aZZFZh5tZh5tZh5tZh5vJIDVZh5tZh5vJIDVZh5scRH5aZZFwmabpdi0cRH7skS3skS1Zh5vskS1aZZFZh5tZh5scRH5aZZFwmaYcRH7skS1Zh5twmabpdi1aZZHskS1aZZFaZZHJIDVwmabskS1aZZFZh5vpdi0cRH41YghuAAAAQXRSTlMAv4BAQL+/v4BA74AQQM9gnzAgQEDfMK9QQL8Q74BwII/fn2DPr3CPUL+/IDCA7xAwYGDvEI/PYCAwzzBwcM/fnxypVy0AAAcjSURBVHhe7NZBa4MwHIbxHkIkB0/dZYIfoCttA+1oY6GHRLfv/42WaeEfhmVsbKLheeGB5OoPIasfzXu/ymwEMMAEMAFMABPABDBzSimXApzrYRH4fjqnANYYYwFYTlUIoUoBtP86nQIUXdcVAMw1gAG+lsOi7P10zQYY4PFHFsAAE8AEMAE8Qa+bfgDn2ua9H8CLDmCtdZbAAEsALzRXyfYReJ/c3QiALWTHCHxM7hbg+aXC46kRANM9npmx1HrXL1dggHciNQ0wwPJbXQD+vw5KdouoNyU7jJicjKyJqI2RnX751dcLAeYVDfDEAQwwwAA/v30O4CGAAQYYYIABBhhggAHeluX2b4Bf2rZ9Anhu1d7X3wF/sG83PY6bYBzAyY6qjhiGFz3LQrW77mFGWlGVwx5ccdiqnaot3/8bdRJb+0TGxcGQSSzlf4qsgA0/bJBfrhOYAYA6IMAh6nTgAADsPMABQjlCAICATYFwLuCvDw8PXwuAn+7v758uAcyEoQMY7xUZDNxpwLYfzaLrQlNg1o0HRY1gp+N2Lg7hXRibknmoKfwhuW3COaMSYEwBMOZNgZmn8SiuBJjG40jWDDjIeBTqTyNmMh6nR+D88WS2SSeUoHbDwErHJKcBp6G2EbCgk5q1Isux01L1wFYD5Rz0doEVjfXAGNEEWKZKVCz6ihibA3sP3FLCtweMvk2Bo2gA3M8xUVXg2xJYc0ncRYDBTzIemvSYhVc8mI6NgamqBrbzTpplfVU8B7Bw4IIOdAn432x+IJif3w/57RX49/F3WSengROc5OFPVtIyYN3bfb9DT3FkVAKz71VxEQgJQmeh0GUM7WFfizUtgAl3gkjekb+SPK4Dfvd3mrMBh+8qAReiJcB2ZgELVcDYLNpNpmTKMr6QLuWDawDMJHW6I5sExhrMMUIJ8NzKyNQBM5rOuWZw6DLAJs5oVgJjtgqscXarBUa9yCqAca1kCUYtHhPDCeIswO3m4PfvhvzxCvvn+PtcwAFXvi2AA9JUABu8DiQjcXlYhAsB/3SUbwfU4y2/rltFCzfJ2A3cTaLyy1VKWgAjn68CpoOKSiCy03s/NyygGfAWb1WikmkF3GHR1cAhZiKWpLoZ4BuwbwUMDYAhB+yXpOAGPNMUu3VgnKTVDTgz7CuBcSl7AWDc8xsCf9ntdl8KgHvnXP+WwAZntms7g7Wbi7iuM3j38vKyywMnNbvbHJyr4+Jz8OPnz4+bAzZtgLG+GmA1oNB1wL49cJpqYMyZgQHv8TYB5kUdmp9N1aqm8xvw3KKoawMMow2sB8a/yCJf3Hc9sMahsnVgYvAUbgDM8epaAdwhVUkonsIFwCbdF8P2bx9YxCGcNXyaJNs+TcIkG/J7R+DFZvRpn5gtA2P0iKJhHTAODOBxTGj1PNiS41iXLRbiGA4FwCoOUcn4EtsGTt+O4R72sd6VAEc3FPMcb0Y0fKOjUwMDeEOXivXTpgjPl49ITy4XgeOstRYYc3lgIlu/k8VJDXD+ZhbJhhfc/0pHuBTAwEoss33gvLBZB8xZPTARq4AZzwAXtp+TDQDXCftVwI6RKuC8MFkWLm+KKRumH+8wz6/Az3eYjyQNAwzfVw0Y9ibAxOpWwLRr9emK4gXAGE+bNKXP9Pzdy//nrvDhCZwXGCOS7nQdI/lYOR0X2rOGH5+JafVUBrIY5pNiRpCFhJ5m9rNlYEzopKMDk5MeTiwkvBvFnOlU689HlXc4J0pLTozyZizHXY9HlQ946fYx2PZrBA54ab946oFxBgvkevJhh/n0ivpph/lA0iiHoTFG6jDqv/bOWMVuGIiik9eMVQXE9s+SkHEMAbFSpS6QS/7/j4LlMgSuYTerDXMKVYO55jDWNLLszoaJ4KfocTrlSUzRnxMTPA4vPEzwnJhgE2yCiX9icJhgwwQbJtgwwYYJNsHPx8V5aOF4XDz/H8Em+OXnn7zMLNgwwQYh+DNjEEMWjWGCi3NeSNqt6/PcgH7woDGBi4hci/PkKwofo7G1g9kFNwV/LcACAHUREgyEweECjkrhpaCKJKpe/HguH0MbX4vZBa9AjBVsbdUKsIaBoKrCUFQ70FUL5WuTCCTJCGRuRFZwVLLYjbw6u2BFKCJJuEboTVoHGit4ER7HtplkdKlAbsBGlLcKoDY6Q4DeyDu74A1AT8KQgF1EdsDd6OD17QXvwIZ6LmhcbgcktoMzsPAdvM4uWFYAyOQO3G6JwIm+vWAJAOJYuGqVjn5jD5YbtdMLFr8EoHAG0uh5XnB0rryD4AWAGwvX70H5V9w64P/5J/r1OI5XeQ+WWOiPbkVNZasI8rF7sHggXAuB4mIlM3gg0nnnZwHoEWTHoJaPFiz51NWpEctfKTIqmyEDnqodyOT4GIBMKiu5okYvJKpJeIpqEZL9VJCoEWtTPQM7VUdmcFzuogP5G78BxFnEJwblWGIAAAAASUVORK5CYII=;" vertex="1" parent="1">
          <mxGeometry x="1098.03" y="273.86" width="123.93" height="24.28" as="geometry" />
        </mxCell>
        <mxCell id="8zDSFXB22d2hlP_r7Qgr-3" value="" style="shape=image;verticalLabelPosition=bottom;labelBackgroundColor=default;verticalAlign=top;aspect=fixed;imageAspect=0;image=data:image/png,iVBORw0KGgoAAAANSUhEUgAAAcsAAABuCAMAAAB/esicAAAAYFBMVEX///8ptegAsOfg8vsXsufC5vei2vPq9/wgs+j5/f4AruZgw+w/u+q04PW74/ZxyO70+/7K6fiT1PHk9PvR7PlUwOvY7/qFz/B2yu42uOmb1/Kd2PKr3fR+ze+14fVZweymo7aSAAARwUlEQVR4nO1dCZOrrBKNSCImJkYTY8z6///lkwaRpVGcb+ZmeZ6qWzXXhQAHmt7AxWLG/xuW5b0ssBvHy71+pP+6OjN+jIIRyiiJjvaNQ8ZvUHJ7Ra1m/ADbdSSwXpo3YsLEDVK/pmYzJuLQUdlylhh3IqZuLD0vz3gr5IqxiN71GzeqbkTNq2o3YwpIz1hE9RtVT3JE4ldVb0Y4DjqXhpBlOsmzkP0AxF4uqc7l7mUVnBGMmcvvwczl92Dm8nswc/k9mLn8WMSng3XhR1weTrPB+VqkNSWERCv92k+4XEVtMbSe4yevw4EJemikWf7TuVxGshhmTfEZ/wwp633llRKRU7mMK/UCY/PMfBFqjRxG7pKHaVymd6K59ujXxsLS4nLP87OK6O6yzQ+F0LGqnLjwf4dOWssDEcvmJC5vhBqFkN+v5Ttgf2/VAdZifRIXTmvG6PA7HiTtm+tk/LlpOJlctvw0PC1kApdFQ60iyOm3a/kOOKoRS0txZUV/Gipakr+I/hY2l+2PtIIjmMtkgxTwB+Lj5ThpwXm5tPwHLulfBJlil4p22SxPYVxuS32hVM9/o5UJ7eTGG1G5Me/G5cIWkIIk46qXS+s5dfXXK/l6cN6idozvrWtvxWWJ0mHOMy+XKLrl5KsA/WAlmL4dl4sGkZL/hUv2jVlAfCliuXXx/bjcZ2P0TOKSZnvvT30uHljnvx+XbZ0wBeZnXDJy/Ysavhx8JSK2QfiOXC7250E2g7lk5PyNk7LFmSEq3VtyafhTf84lyb7SScDB04UdPeBNuVwsdszLUhiXlH1xZHrTcpnZF9+Wy3ZN8AnaEC4Z+UZLROHTuFwkOc7mOJeM5L/uKX4rfByXi8Uxw5bNUS5J9o0eWB0fyOVisUXcciNcUrr961q9EPGuxbJq29ks4c/+1h9xGU8XcckJfSetHUFL9EQB+yYjaIbPvtgdB/MLDo8yf1bV+YZEc68btU833tb5Jq9XoxM/LS7ntrxNvUUKXG4mruarrgarNeWQg7YFiVSz/FwetvWmqp7nS9H3QbypFHtDXD7JeuVcTNreqqoqL3cIabeG52uhhv3BCmMxQ7hsTDIJGllvV15CicpScLC/NIRCXJdRUtn6b6uErWGq78tIPNZ2ITkPGTxFLuPE/NHmalm5p3W7oA+87eDS1kCQiUipR/eUh8v9VWscyTsnbntl3T08wGXV3rLC1PtVpgqkJFtZvSrNSRqhdoQZXjY3sy+N3XwNep5BpxFThouLi5GIwOzlNmPC91laj218wqdd5o0RRi2l+sI7fYoXo32ebeAvh0othoxzadZatY57dNVi5OeSU2ly2QpKs0BKLvobG3VXy9fSserfZ9aaX6k7XUKJhUdvqaJ+duUAbkcZZaK9RopQBn7sOLLnBPMckaC8VkzloVGmDzI+/uiE4xV4gF5Ge5ZrYsnYSj2GcVmoxqvKCJkQxiV0DdVlyJL2BaqO1w6ROGpzy+N3U+lYNLOmdCqpYOSOvXgyVGGKiH4m+aN5eSnzCH6HVtoTnMu7THhgrexsIiKHFrk7xS0SIUTa4cqem02mHtUHL3WH5BC4l4fItSNZtii47pMV/E9NhCBcllLeEZJtNlW7QogQdpMEcZlmzKbyTrrJSLMqo7JArXVnSyKh0yve8DUPC0aWlC+GG2xC720T1Z2YIsZG8m75O8G00snM+HtUjpcCBszpImYpdZa9GFrHSPWQgukoZZLOezlJ40yJQ32gTXImYv7WkvHkURFRvfgwzqWgkpy1S0/RanJeinmT7Daig9VTTWSCNqjsToqdR984LQt07bq6OrA9dyFAzyK94JjPdG1AZeplXWRsoWzbvZSIxhqe4FTMDk1wx73QDAAEuEyRHMYlTCJGSl2SnYQYo0DfIJcpjHJD9ACVVoGJGDDdc5ED8vyFbPOls8IhgSIxWy253VZPmwgdl1ammlhn14aelMKpJqYy0CIW3dLzASM+tB38SAZrDAZxeQMqG7snV2KyRiNc7kWddc3hDi9ldhceRaPF4K9cMj1mokJRNU32GHoCD7UQq1Q4CMEVdzfdqJJcuqmZcO6FIbVz6nLOIcWV+h1++omd4uFDguQQhHAZ80w9Y+GXULmOQ1zuI0fs7Ph77qqiWgf9g+b40CFNb7du32aIEauKv6O+XPa0nuOtYEh7U200Cy6Rrk+hnlo1wUDCE015c/u5vuf8nLHnXKwQ3kO4NH9RR0fmAJeJS+XeR2X3WzCqEzxYSRqfd2UnX8C1pIWbuq6KtAnhE2Rs5QIuKaKyCgVcm5ig9tkCVmAPM1Z5FzkZtozggT5HPAttwo47B3C5BQmLC7cVGeFSKPdmZe6eYc+RMjWqb57Is8cc36nHcTLd1HUJ6kyFYC7djucAStSIuw20Vla6+x+YmPYakaz7xGUFnhrsbIkJ4NIjSwTEqUheLiWVRufChHPUjQ4w1Rn8efPEKtEw5E5jHiHT9vlpD7tzi+uIY+d1cS49fB8NhZTPIL+p8WS6/MVoLzG7s8bsl3Eu+WCRviIE4rwkH5cHaqlqXT0Q87wDt4Hl4PTFKiPK7NG7M6hyyHR98V1JmMiGPHlUfvbgXPr2pOiUHLFExx4no3drJPtK2KEWb7w1Dm3jXILE8JuwcCadh8uDqIcVbQId1lsejI6+J9BYZeSk7eysx0wysRiZYNKjSoFtS6shEygbaAW4ZOTfQM9AACXT10gQnWYs4SH8EebAAv+dMx1GuUzJgLhfyJUe51JsA7FlPdQDVwUEnobl5OPBELSKSqLOGtVa6kv58ps4ojzWxw9cZAPdUmpuchgWA601FVL+tCncM+kPM2qau8blIoDLYszlG/m4lFTayjg0dGjEWym7SKxS0qXW/o5K1hxPmUNm5ZmUZGDenTtHK6s9cyobEJ2rXlTCVBiS1rExFeFNXeJ0+5+MWZjiy94ol5exrr8znEtRC1dpqiDzL/XjYPuyfHpL12hFZbTvTFSNzAf+snHyAdIqZTp76Azk8qR7OFEYRmVi66fcKy38/NrFLUUN1lEucyyBVscN9+GJMAd1u0F4XQcA7j1z1OH2hOyCZK1RqZEpdwZn2KxmXiO0w66X7Xx2OlpOIJfLkeXSFtZPs7vBfVDx6aJPigrnZJTL9r3hSEyB+tYFlYh0SQfylTXYP7miGCVwayc7nXYLiPTKC7G0R512IanrV9YLd0oaK1IeyOV2NPhhMrAzp9yV9+fDVHbdyYuWpNdFVqAZskg40JhX5xByjFyfOwenSQfinyWq+ZEuqKT3T6zyB+T3aGDq+jInvauImrtQArm8jS1RwICm7lCjXPhhaQApW+VqL6paSYNcRoPm0QLnst+U7oxJ6FtGR+B4Aw5PZF4KOdPNS0W/PNV5YF7i4TMMRd30RwA0WmMCuXx4+r3H02TgrquoS6k6bA1HlKvsCvz3eXlyuDyKdBvRo8ySZsLBf1sNw+prXJeV9Yq79VKuOrnse7nCIFR6s05QHK4dnUxb+QK55KN6OPbRmM79o243QGCLF6Tb5IgRKhCyXroP6FjaXDIZhzyBJmsvtumkiKvADbcxOwFedno7kKmolDIX31PN/Pl3CE5dalIv6AK5jEezeGyjpen7DNwmwHOtKZiYcwgwyuVZ82F4K25wKSYkFyxbLCDCxia6DZ/vp9f+ejL3qaKy65/U5/MZVWV1yDSA/jcDuVwMu/DkLNNrohmBtfIjHLSMEIpE6QCjXDrWq43cti+jjkp5Xpa1c/U5ZuSY8PtktXytjkym/D5a8CP2+2IDA7+iGDVEAaFcZiPNLW2jJVGCK9WCKOBJhd8GOYhmmY5yeRxzuTl5BdBkWTvQWMz1wqn8IHz7uqxYSWlNXSOOtffHSKYcLwZZO2p5COXygtv1ClBb40rVpYrctCBEoeZ3jgY5OcZ961Zk1cbS8cfqo1cktBlK+XHMq6XBt9/STSk2ybRDkkdf7JJN+UYU7xa1PIRyGQ/7s5duLsGjG+wQLdONZv6fgeSDcS7PzJ5ZBionTmJMOzAnWWRv9hhM0D4TcTTEwR8kcee1TqYbXfapTzxUEmyfxHoaYyiXQhf19l8TOVIqlWwdDdZALblIgxUXa+NcHt1ETA2FG780l1dwABkDk0udoYnZskL56D/5FkpcL+zJRKgccNFH68FsLw1gGk/mcmmkDli4YoFmqW7mTO/KVMboB5L1AvIKYPX26XzCX2bal2bfQKqH7nIC692/Yp66tvsWSl+gSmmznvQn73EH3hwHCwXRNMhgLkX/4Y9CW51JCyrKbm/NIXAiLJMB9SWAS5h6Hp+itAAGcyohgVLPLQCLj3qk7J5J6m+oUBzKkZXZw/5MtiW+bIbmvoHGPlX36QjDTOoECSNwwNWVNS1AwsNVn08wJA8PdsBRbPCqqTCY61z1iZKqrhGzU4kFZJSj+1ULI1bEiodZBv0Qbs46FGs/djsjv1MY8iScSzF2ESUrhpGFDGpI8XEqxruRX/VqUiFcglBkyBHlaokayVuPrMFwXAOZyOhIGsU70uWTrHsc6ClBtiZ2XDPXySc0A6XRT+BS6odP61dEnuEaWWy6eIDpH9vZE8dGUN66aIadt7MXGwmyUS6lP10zbK5wwQ2i7MR2DCjNkYS+QJXXF4ffOLnasc0lGAr9xiCOboOEmq9TuBSbMBi5aDUqRDXwHX4yOmAt5F2Q3dfgsP0kYggR/fjtVIgrloXs8yog811bGGq3wLaXn+LqRdVM72/cG37j+9+wtJxTzvekoT3lWK3MfgI2hTDSlMs4TRfp6SY3Lmkq3BQuuy2ElJx3h7a85HhpRIFr3FW7hcftlfQirno9goH7vG4ymam5HPdtZeLdWTibabYI2Oclc6L1pazuCiyLhI+z/Wkl9w13gnSrd7hnb3SrzIgR72gvwl/EPJvDTG+Smz2Zdluy2/EA/+Q80bpxEpdtP8sEIgr76lXcxWPbpmh+TeLJulG/EcZlK3ZkUJBAZbTGhe2lPcP6r9256QX2/aU1r//mM5aEv+Axzd6ktLq1NzZxxdfw8mI2CeJbYGt9+ZrIJbYBglReYwgyVR1vG1x1hIhC8JkwiWudUTjhIHCPu9j1o11AvTp68w6yu9uVC90UbRj/5giP+3PHfQZpH32xvwEvi79QY/IyKyO3GeCSm1POFwT2d+tkg2bgODc8+9FMiHewwdJ5cCNm1+iNa6WF6COQsZ0d5A+9po5j1irQbV6ygRmLH0ZoTRxTUb8b5XocRTe+GZuSyOu1gBQRmedAcuuxktC1j4xkrZ8Y0F++Zl2BZCj1lqNpn3GHYNZe9Ts2VgTZndHWhWJeuyLv65KtusnCf6D7O+U3cT0rbgu1pUZxhgL5MSK8ea4CvL3eUJXn2NiT2mi5M93xzWG7+lwOe2Pj5aqsy+sOqcTt7n81ri94JyS8vPryGE04Si8lRtqlHgrsrDbIWnTw1WVxelzqulwVmtQzfnZflj63+anGbsW7a13f6/I24YQzLKY5cu6W/6yWGa8E/o2KkfPwvvyMys+EJ6Y5fk6luzlsxkuBeG1CuYy++Uznz8PAmetB5zp7zJsZ/x54lGMCl9HXfgPhw4CdzDOZy9ENXjP+HoehjyBM4XJa0vqM30e59ovXqVxantUZ/xbn0d1h077nNZBIMuNvYR8t8Z+5RDYTzvg3sM+sFDAY83OJC+dv/NDeJwDdf0sbI1PPyyWr0W/0hSZSzvhdHF0ueRzL2PLs/8bwEk1a/8rvRX8AHC7F7snw77hj38CY3Xkvgb1PXRqI4Vwi5umkTw7M+D0YhxUox80ULm230bTtvDN+D1r+juZQncal6c5dz66fV2HbnS+hJzxP5VILs6y/+ete745jBHlclfFpgqlcQviTF+M9G3rGP8FxVa5M3fMHXLZstsXMTL4dfsTljLfEzOX3YObyezBz+T2YufwezFx+DwK5nFO1PgDGEdHG+Yv6udxzQOQjUPWUmXshL9rE9O89nfFG0OKaa2P2aUEyz+ebZ7wb6o4zexP8sgus0Dm29SlYEcoYo+7kK6i4EXgg5ow3wH6Vb/IbliOwPW/yyxylfAf8D+ynxgcBKZzsAAAAAElFTkSuQmCC;" vertex="1" parent="1">
          <mxGeometry x="1099.99" y="329.62" width="120" height="28.76" as="geometry" />
        </mxCell>
        <mxCell id="8zDSFXB22d2hlP_r7Qgr-4" value="" style="shape=image;verticalLabelPosition=bottom;labelBackgroundColor=default;verticalAlign=top;aspect=fixed;imageAspect=0;image=data:image/png,iVBORw0KGgoAAAANSUhEUgAACgAAAAIRCAYAAACGMeSBAAAABGdBTUEAALGPC/xhBQAAACBjSFJNAAB6JgAAgIQAAPoAAACA6AAAdTAAAOpgAAA6mAAAF3CculE8AAAABmJLR0QA/wD/AP+gvaeTAAAAB3RJTUUH6AoDCwAquSiiNwAAgABJREFUeNrs3XmcVmX9//H3dc593zMMDPvivmvgvuRuJbmwDqg4o5aagEHCDIu5w+AJMLNMFAYNi+UXmjqopaSCWta3+lZmpeYWWrmiIPs6932W6/eH1LcShm2Wc5/zej4ePnqkMHM+73PdZ7nP51yXEdCMKioqZkq6hCRir42kUmIAPsU6jnPqY4899nuiAAAAAAAAAAAAAAAAcZMhAjSXQYMGHWetHSnJJQ0ARcpEUXSnpNMkWeIAAAAAAAAAAAAAAABx4hABmou19k7R/Aeg+J1SUVHBTKYAAAAAAAAAAAAAACB2aABEs9jSLPN5kgCQBMaY284999y2JAEAAAAAAAAAAAAAAOKEBkA0ucrKyjaSbiUJAElhrd2npKTk6yQBAAAAAAAAAAAAAADihAZANLmGhoYbJO1PEgAS5oaKior9iAEAAAAAAAAAAAAAAMQFDYBoUoMHD95X0jUkASCB2hhjphADAAAAAAAAAAAAAACICxoA0aSiKPqupDKSAJBE1trLBg4ceBJJAAAAAAAAAAAAAACAOKABEE1m0KBBp0u6kCQAJJgxxtwpyRAFAAAAAAAAAAAAAABobTQAokl4nudIuks0xQBIvlMHDRp0ETEAAAAAAAAAAAAAAIDW5hIBmkJ5efkISSNIAkAaGGNOOeyww2YtWbLEJw0AAAAAAAAAAAAAANBamAEQu+28887rKGkKSQBIC2vtPsaYr5MEAAAAAAAAAAAAAABoTTQAYreFYXizpG4kASBNrLU3DB48eF+SAAAAAAAAAAAAAAAArYUGQOyWAQMG9JI0miQApFBZFEXMfgoAAAAAAAAAAAAAAFoNDYDYvQHkOHdIypIEgJS6fODAgScRAwAAAAAAAAAAAAAAaA00AGKXDRw4sEJSX5IAkGLGGHOnJEMUAAAAAAAAAAAAAACgpblEgF1RWVmZi6LoJ5K6kAaAlNv3sMMOe33JkiWvEgUAAAAAAAAAAAAAAGhJzACIXbJ58+ax1trDSAIAJGPMdyoqKspIAgAAAAAAAAAAAAAAtCQaALHTzj///O7GmAkkAQD/sq+k8cQAAAAAAAAAAAAAAABaEg2A2Gm+798qqQNJAMB/uGHQoEF7EQMAAAAAAAAAAAAAAGgpNABip1RUVBxvjLmCJADgU9pZa6cSAwAAAAAAAAAAAAAAaCk0AGJnGGPMnYwbANimr1RUVJxIDAAAAAAAAAAAAAAAoCXQyIUdNnDgwC9Zaz9HEgCw7fOqtfZOSYYoAAAAAAAAAAAAAABAc3OJADuioqKizBjzY0kdSAMAts0Ys2/Pnj1f/etf//oaaQAAAAAAAAAAAAAAgObEDIDYIcaYGyXtRxIAsH3W2u9WVFSUkQQAAAAAAAAAAAAAAGhONABiuwYPHryvtfZqkgCAHbavMWYsMQAAAAAAAAAAAAAAgOZEAyC2K4qiaZKYyQoAdoK19qYLLrhgT5IAAAAAAAAAAAAAAADNhQZANGrQoEG9JQ0hCQDYae0KhcJUYgAAAAAAAAAAAAAAAM3FEAG2pbKy0m1oaPijpGNIAwB2SWSMOfnxxx9/gSgAAAAAAAAAAAAAAEBTYwZAbFM+nx8hmv8AYLfOs1EU3SUa7gEAAAAAAAAAAAAAQDNwiQBbM2DAgE7GmEcllZEGAOw6Y8y+hx122CtLlix5jTQAAAAAAAAAAAAAAEBTYgZAbH1gOI4nqStJAMDuM8Z8+8wzzywlCQAAAAAAAAAAAAAA0JRoAMSnDBgwoJekq0gCAJrMgeXl5eOIAQAAAAAAAAAAAAAANCUaAPEprutOk5QlCQBoUjddcMEFexIDAAAAAAAAAAAAAABoKjQA4j9UVFQMttb2IQkAaHLlvu9PJgYAAAAAAAAAAAAAANBUDBHgnyorK3P5fP4v1trDSAMAmkUURdFJTzzxxB+JAgAAAAAAAAAAAAAA7C5mAMS/NDQ0XE3zHwA073nXcZzbiQEAAAAAAAAAAAAAADQFlwggSYMGDeohqV5SCWkAQLM6oGfPnn/561//+jpRAAAAAAAAAAAAAACA3cEMgJAkWWu/Jak9SQBAixxzv9OvXz8argEAAAAAAAAAAAAAwG6hARAaMGDACZIuJwkAaDEHZbPZscQAAAAAAAAAAAAAAAB2Bw2AMI7j3MlYAICWZa2d2L9//z1IAgAAAAAAAAAAAAAA7CqavlKuoqLiUklnkAQAtLhyx3EmEwMAAAAAAAAAAAAAANhVhgjSq6KiokzS65L2Iw0AaBVRFEUnPfHEE38kCgAAAAAAAAAAAAAAsLOYATDdJojmPwBo1fOw4zi3EwMAAAAAAAAAAAAAANgVLhGkU0VFxYGS7pOUIQ0AaFUHHHbYYS8vWbLkDaIAAAAAAAAAAAAAAAA7gxkAU8oY811JpSQBALE4Jt/er1+/EpIAAAAAAAAAAAAAAAA7gwbAFKqoqPiitfZ8kgCA2DjIdd0xxAAAAAAAAAAAAAAAAHaGIYJ0qaysdBsaGv4k6WjSAIBYWR+G4WFPPvnkR0QBAAAAAAAAAAAAAAB2BDMApszmzZu/Jpr/ACCOyl3X9YgBAAAAAAAAAAAAAADsKGYATJEBAwZ0chxniaSupAEAsRQaY45//PHHXyYKAAAAAAAAAAAAAACwPcwAmCLGmMmi+Q8A4sy11t5JDAAAAAAAAAAAAAAAYEcwA2BKDB48+PAoil6UlCUNAIi98xYuXPgYMQAAAAAAAAAAAAAAgMYwA2BKRFE0TTT/AUCx+G6/fv1KiAEAAAAAAAAAAAAAADSGBsAUGDhw4PmSziUJACgaB2ez2WpiAAAAAAAAAAAAAAAAjWEJ4ISrrKzMNTQ0vCLpUNIAgKKyzhhz2OOPP76MKAAAAAAAAAAAAAAAwNYwA2DCNTQ0XCOa/wCgGLW31t5MDAAAAAAAAAAAAAAAYFuYATDBBg0a1MNau0RSe9IAgKIUGmOOf/zxx18mCgAAAAAAAAAAAAAA8N+YATDBrLXfEc1/AFDMXGvtNGIAAAAAAAAAAAAAAABbwwyACTVgwIATHMd5XjR5AkDxn6yNGfz4448/ThIAAAAAAAAAAAAAAODf0RyWTMZxnJnsXwBIBmvtHf369SshCQAAAAAAAAAAAAAA8O9oEEugQYMGXS7pZJIAgMQ42HXd0cQAAAAAAAAAAAAAAAD+HUsAJ0xlZWW7hoaGv0raizQAIFHWSDp04cKFK4gCAAAAAAAAAAAAAABIzACYOA0NDRNE8x8AJFFHSd8gBgAAAAAAAAAAAAAA8E/MAJggAwYMOMhxnFcllZIGACRS6DjOcY899thfiAIAAAAAAAAAAAAAADADYJJ2puPcIZr/ACDJ3CiK7iQGAAAAAAAAAAAAAAAgMQNgYlRUVHxR0s9IAgDScdhfuHDhT4kBAAAAAAAAAAAAAIB0owEwASorK92GhoY/SzqKNAAgFd4qLS09YsGCBQWiAAAAAAAAAAAAAAAgvVgCOAEaGhpGieY/AEiTQ7Yc+wEAAAAAAAAAAAAAQIoxA2CR69OnT+dcLrdEUhfSAIBUWS3psIULF64gCgAAAAAAAAAAAAAA0okZAItcLpebIpr/ACCNOllrbyYGAAAAAAAAAAAAAADSixkAi1hFRcURkl6UlCENAEilMIqiY5944olXiAIAAAAAAAAAAAAAgPRhBsDiNk00/wFAmrmO49xJDAAAAAAAAAAAAAAApBMNgEWqoqJiiKRzSAIAUu+sgQMH9icGAAAAAAAAAAAAAADShwbAItSvX78SSd8iCQCAJBlj7hgxYkSWJAAAAAAAAAAAAAAASBcaAIuQ67rXSjqEJAAAW3zmo48+GkUMAAAAAAAAAAAAAACkiyGC4jJw4MC9jTFvSGpHGgCAf7Na0mELFy5cQRQAAAAAAAAAAAAAAKQDMwAW2w5znNtE8x8A4NM6SZpEDAAAAAAAAAAAAAAApAczABaRgQMHnmqM+Q37DQCwDUEURcc98cQTrxAFAAAAAAAAAAAAAADJxwyARcLzPMcYc6do/gMAbFvGGDONGAAAAAAAAAAAAAAASAeXCIpDu3btrjDGjCIJAEBjjDEHfeYzn3l+yZIlb5EGAAAAAAAAAAAAAADJxmxyRWDQoEHl1tq/StqTNAAAO+CNPffc8+h7773XJwoAAAAAAAAAAAAAAJKLJYCLQBRFE0XzHwBgx/X88MMPv0YMAAAAAAAAAAAAAAAkGzMAxtx55513cBiGr0oqIQ0AwE5YnclkDv3xj3+8kigAAAAAAAAAAAAAAEgmZgCMuTAMp4nmPwDAzuvk+34tMQAAAAAAAAAAAAAAkFzMABhjAwcOPMsY8yxJAAB2USDp2IULF75KFAAAAAAAAAAAAAAAJA8zAMbUmWeemTHG3EkSAIDdkJF0GzEAAAAAAAAAAAAAAJBMNADGVPv27UdLOpIkAAC7acCgQYP6EgMAAAAAAAAAAAAAAMnDEsAx1KdPn865XG6JpC6kAQBoAq/vueeex9x7770+UQAAAAAAAAAAAAAAkBwZIoifkpKSW6y1NP/FzEuHnqq1bTsVfR3GSPttXq393/gtOzVG1nTfT4XT+stt07b4i7GROi6cI3fjWnZsfPRaunTpCEkziQIAAAAAAAAAAAAAgORgBsCYqaioOELSi6I5M1Y+7riHfnfUOYmopXOwSeuOOl297/NUumkdOzcWR2Kj35w3Xm73PbVf506JKKns5d+o4xNz2bfxsjqTyRz64x//eCVRAAAAAAAAAAAAAACQDA4RxE6daP6LFWscvXrwiYmoJRsUtK7XKQqypXrjlMHs3Jj44NDPatVeh+jjTFtt3rA+ETVtPuo0+XsdyM6Nl05BEEwkBgAAAAAAAAAAAAAAkoMGwBgZNGhQpaQzSSJe/rHXZ7S+rGMiamlXWqJgyxKz7/c6RWt6HMAObmWhm9Xrpwz61///u0olGxV9XdYYrT374k/WnEacVG+ZaRYAAAAAAAAAAAAAACQADYAxUVlZ2cZa+22SiBc/W6Il+x6ViFrKChu1ptdJ//r/VkavnHEhDVqt7K3jz9Xm8i7/+v8NkdVy3yaitsLeB2vzESezk+MlI+lbxAAAAAAAAAAAAAAAQDLQABgTDQ0N10o6gCTi5fX9j5WfLUlELW63vWXNf37kV+9xkD447ER2dGt97tt10t+OO/tT/35pPlIQJaMJcN2ZQ2RzJezseBk4YMCAPsQAAAAAAAAAAAAAAEDxowEwBgYOHLi3pOtIIl7Wl3XUu3sckohaOuY3aP3+vbb631479TyFWRq0WsNrp52/1exDa7W0ECWixrC8kzac0o+dHbeTv+NMO/PMMzMkAQAAAAAAAAAAAABAcaMBMAaMMd+R1JYk4uXVg0/81Ix5Rfkhj0I1HHL0Nv97Q9uOeuv4c9nhLWz1Hgfpg0NO2OZ/X1EItTkhswCuP7mPgg5d2Onx0qu8vHwEMQAAAAAAAAAAAAAAUNxoAGxlAwcOPFXSxSQRLx923V8fd9wjEbV0tIEaOvVo9M+8dezZ2lTemR3fQqyMXjnjQsmYRv6M9N7mIBkFZ7Ja3/tCdnz8TOnTpw8ffAAAAAAAAAAAAAAAihgNgK3I8zzHGHOXJEMa8RE5rl478PhE1JILClp7xMnbrzmT1eunX8DObyHv9zxZa3ocsN0/tz60Wh0kYyngzb1OVGG/z7Dz46VzSUnJBGIAAAAAAAAAAAAAAKB40QDYiv74xz8OlXQiScTL3/Y5QptK2yWilrK2bRXm2uzQn1168PFaufdhDIBmFmRL9MYpg3f4z7+/OVBCVgLWmrMvkgynnTix1tb079+fDz4AAAAAAAAAAAAAAEWKToxWMmjQoHJJU0giXhpKyvTWvkckopZ2DRu05rCdm8nwlTMulKVBq1m99dm+amjbYYf/fMFKywphImoPeuynjcecwSCIl6zjON8hBgAAAAAAAAAAAAAAihOdPq3EWjtJ0p4kES+vH3C8AieThAEmu9eBOz3b2rqu++jdw09nIDSTTe276G9Hf3Gn/95HhVCFhMwCuP4L5ysqKWMwxIgxZlBFRcW5JAEAAAAAAAAAAAAAQPGhAbAVDBo06BBJNSQRL6vLu+r9bgckopZO/iZt3OeQXfq7r58ySH5pWwZEM3jttAsUZbI7/fciKy1tCBKRQVRWrvWnD2QwxM+0M888M0MMAAAAAAAAAAAAAAAUFxoAW4G19k5JJSQRI8bo1YNPlIwp+lLcKNDGnVz699/5pW215IS+jIkmtmrPg/XhQcfu8t9f6UfaEESJyGLTiWcp6LwHgyJeDm/Xrt2VxAAAAAAAAAAAAAAAQHGhAbCFDR48+GxJA0giXt7rdqBWl3dNRC0djFWhfefd+hn/OPpMre/MCtVNxcrolTMqd7vB9L18JCVgKWDruFp3dhUDI2aMMZPPO++8jiQBAAAAAAAAAAAAAEDxoAGwBZ155pmZKIruJIl4CZyM3jjw+ETUUlpo0JojTt3tn2MdV69+rpLB0UTePeJ0re2+327/nE1hpJUJmQWw4eCjlT/4KAZHvHQLw3AiMQAAAAAAAAAAAAAAUDxoAGxB7dq1GyPpCJKIl7f2P0oNuTaJqKWkYydFmWyT/KyP9+mpZfsfyQDZTUG2VH89aWCT/bwPGkKF1iYim7VnVck6LoMkXmr69+9/GDEAAAAAAAAAAAAAAFAcaABsIf369etmjKkliXjZVNpOf9urVyJqKc9v0NpDjm3Sn/nq5yoVuRkGym5YctIA5cvaN9nP863VR4UwEdkEXfbUxhN6M0jiJee67reJAQAAAAAAAAAAAACA4kADYAvJZDJTJXUkiXh57aATFCVgBjIjKdyv6Sft2tihm/5x1BcYKLuaX/uuzZLfskKkfJSMWQA3fG6QorJyBku8DK6oqDiXGAAAAAAAAAAAAAAAiD8aAFtA//79j5U0nCTiZUWHHvqwy36JqKVjYaM29di/WX52U89glybNNYOitdL7+WTMAhiVlGnd5wYzWOJn2plnnsn0nwAAAAAAAAAAAAAAxBwNgC3Add07JbkkER/WGL168ImJqCUTBtrQs/lqCbKleuOkgQyanbRin55adsBRzfbz1/iR1oVRIrLafNwX5O95AIMmXg4vLy+ncR0AAAAAAAAAAAAAgJijAbCZDRw48CJJrKEaM+/scZjWte2UiFrKs0Z+uw7N+jveO+J0rem+HwNnB1nj6NXPXdjsv+e9hlA2EXkZrT3rIskYBk+8TKmsrOxADAAAAAAAAAAAAAAAxBcNgM2osrKyjTHmWyQRL34mp7/uf0wiamlT2KQ1vU5p9t9jZfTq56po0NpBbx/5Oa3rvFez/56G0GpFIRlLARf2PVQNnzmBwRMv3fL5/ARiAAAAAAAAAAAAAAAgvmgAbEb5fP56SQeQRLws2f8YFbIliagl17m7rJtpkd+1ao+DtPSQ4xlA2+GXlGnJSQNa7PctzYcKbDKyW3tWlWw2xyCKEWvt2IEDBx5KEgAAAAAAAAAAAAAAxBMNgM2kX79++1hrryGJeNlQ1kFv7/mZRNTSvrBBaw86qkV/56unXaAwQ4NWY/560kAVStu12O8LrPRhPhmzAIbtO2vjSecwiOIl5zjObcQAAAAAAAAAAAAAAEA80QDYTDKZzO2S2pJEvLx60GcVJWAZW2Mj+fsf3uK/t6FdJ/3tuLMZSNuwofMeeufIz7f47/24EGpzmIxpANefOkBh+84Mphix1p4/aNAgOjMBAAAAAAAAAAAAAIghGgCbweDBg0+TVEUS8bKsyz5a3mmvRNTSKcxrc7e9W+V3v3VCH20u78KA2opXT79QkdPyh1Ur6b18kIgMbTandV84n8EUt/1i7XcqKytdkgAAAAAAAAAAAAAAIF5oAGxinuc5URTdJcmQRnxExtGrB5yQiFqyQUHrep3car8/dLN6/ZRBDKr/suyAo7R8v8Nb7fevD6zW+FEistx8xCkq7Hsogypejtm8efMwYgAAAAAAAAAAAAAAIF5oAGxiL7zwwnBJnyWJePnH3j21sax9ImppV1qqoE3rri79waGf1aq9DmFgbRE5jl47/YJW347386ESsRCwMVp71kWyhj7qeO0WM7WysrIDSQAAAAAAAAAAAAAAEB80ADahfv36tTfGTCaJeMlnS/Xmfkcnopaywkat6XVi62+IMXrlc5WyTHQpSXr76N7a0LFH64/1yGp5PkxEpv6eB6jhyFMZXPHSvaGh4UZiAAAAAAAAAAAAAAAgPmgAbELZbPZmSXuQRLy8ccCx8t1sImpxu+0ta+LxsV3bdV+91+uU1I+vQptyLfls/9hsz4eFUL5NxDyAWtv7QtmSNhzE4mX8wIEDWZ8ZAAAAAAAAAAAAAICYoAGwiQwaNOgQa+1okoiXte06670eyViqtmNhg9bv3ytW2/TGqefJz5Wmeoy9cXKF/Bg1qYVWWpqQWQCjtu214ZR+HMjiJWeM+RYxAAAAAAAAAAAAAAAQDzQANhFr7XRJJSQRL68edKKsKf5lap0oVMPB8VvGON+mXG99Nr0NWus776l3e8VvmdoVfqSNYTJmAdxwch8FnXsIsXLB4MGDzyYGAAAAAAAAAAAAAABaHw2ATWDQoEEDJDFNVcws7XaAVnbonohaOtpADZ3i2QT192O+qI0d09mg9eoZlbKOG78Ns9J7DUEiMrauq/VnDuGAFjNRFN1eWVnpkgQAAAAAAAAAAAAAAK2LBsDdVFlZmbPWfpck4iV0XL1+4PGJqCXn57X2iJNju32R4+q10y9I3Rj78KBj9fG+PWO7fRtDq1V+lIisN3/meOUPPIIDW7wc09DQMJQYAAAAAAAAAAAAAABoXTQA7qaGhoYxkj5DEvHyt32P1KaStomopaxdO4W5NrHexo8OOErL9zs8NeMrcly9fup5sd/OD/KhomSsBKx1Z18sOUw4FzO3VFZWdiAGAAAAAAAAAAAAAABaDw2Au+H888/vLmkiScRLQ0lbvbV3MprR2jVs0JrDimMmw1dPH6LIScch5W/Hnq2NHeO/vHQhsvqoECYic7/rntp47Oc4wMVL94aGhhuIAQAAAAAAAAAAAACA1pMhgl0XBME3JTH7Ucy8duDxCt0EDG1rpb0PkkxxNNVt6Lyn3jnyCzrw5ecSPb7yZeV664Q+RbO9ywqhumYd5RxT9Nmv+/z5avP6H+Rs3siBLj6uHjRo0OzHH3/8LaIAAAAAAGzLHXfc0aakpKSrMaZTFEUdJXWS1FFSJ2ttR2NMqT55Wf1f37UaYzr9+8+w1hYk/fNLgVDSOkmbrLVrjTFrJK2x1q51HGeN4zgfL1u2bJnneQHpAwBamud5jqTOQRB0McZ0ttb+x/8aY7Jb/mh7a+0/l77pKMn817kvMMas3/J/A2PMemvtGkkbJG2w1m4wxnzsuu7H+Xz+41tvvfVj0gcAAEgnQwS7ZtCgQcdZa18QsyjGyur23fTro/tIpviHdqf8Bq0+8Zyi2uZsfpO+eJ+nXMOGxI6xF8+6XO/1PKW4xlLW0UFtktHv3e6Fn6n9Mw9wsIvThYQxDz/++OOVJAEAAAAA6TV9+vRumUzmcGvt/tba/Ywxe1tr95G0n6S9JXVphc2KrLXLjDEfSloqaakxZqm19u9RFP01k8m8OWrUqNXsPQDAzvI8r6OkA4IgOMAYc4Ax5gBr7QGSDpC0Tyud9yQpkPSxtfZjY8w7xpi3rbVvW2vfNsa847ru3zzPW8MeBAAASB4aAHdRRUXFLyV9niTiw0r69bH9tKa8a9HX4kaB3IMOV6F9l6Lb9gNe+R8d9csHEznG1nbdV7+66AbZIjx0HlaWUXkmAf3KUajucyYr8/EHHPTi5cyFCxf+khgAAAAAINlmzJixl6RjHMc53FrbU1IvST3Veo0Ou+tjSUsk/VXSEmPMnzOZzJ9Gjhy5gr0NABg/fnybsrKyI1zXPcZae7Skf/7TuYjLWirpdWPMG1EUvSrpdd/3/3zbbbetZY8DAAAULxoAd0FFRcUlkn5EEvHybo+D9dJhpyWils62oFXHfKE4Dyo20ucfulXtVyavQes351+tVXsdUpTbXuYY9WyXTcRBv+Tt19Xlge9y0IvT596YF48//vgTPM+LSAMAAAAAkmHatGkds9nsiZJONMacaK09UZ/M5pcG70j60z//yWazz9MUCADJtqXZ7wRjzKmSTjDGHC3pMEluCsq3kt6y1r5gjHlB0h83b978wu23376RkQEAAFAcaADcSdOnT2//l7/85Y0oivZMQ735fF5BEMR+OwM3qycOP0ebs6VFn3mbwmblj/2coky2aGvo+sESnfqTOxP1Wfjg0M/qT+cOK+oa9m+TUddsMlYt77xgukrfepmTUpwuKIwZ/vjjj88hCQAAAAAoTtOnT+/mOE5vSV+UdKY+aXrg++NPWGvtq5J+4TjOLx3H+Z+rrrpqObEAQPG66aab9sxkMmdYa0+TdKqk4yVlSeZffGPMHyX9Koqi/8lkMr9m+WAAAID44gucnfT666/f1b179zEkES/f+MNbmv7yO4mopUNZqdYeclzR1/HZp+7Vnn9/MRH7JHSzeu7Lk7S5vEtR15Ex0pHlWbkJOPRn1nysbvfWyoSBEBvLgiA47KmnnlpHFAAAAAAQf9/5znfatmnTpre19ovGmC/qkyUN+b54x1hJr0n6haQn27Zt+/OhQ4c2EAsAxFdNTU1Jhw4dTjfG9JHUh/PeTosk/dkYsygMwyeXLFny+wULFoTEAgAAEA9c2O6EFStW7C3pTWNMG9KIj7fXbdZpj/5O+bD4V55sn9+gdSeek4j9MqzNRo1quyERtSwNHV24ppsKtvhr6ZFztU9pMlYsOPGDl/WlHiUcBGOkXbt2y3K5XKKWhbDWDj/qqKN+EcdtW7x48UBr7SBjTMekjSVr7WZJz/bp0+c+Y4zl0xUPTz/99LlhGA5xHKdT2rOw1gbW2r+UlpbO6N27d4tf8Dz33HNdgyCoNsZ8RulYigjp/ayttNY+fO655/6suX7H/fff3ymbzdZYa3sZY9wtv9ex1mb0n7N/ZKIo+ud02u4ufvYy1tqtfg/jOE5grf3XOc8Ys0nSjjxMC40xwZbtjqy1gSS5rhtKCrb8t/Dffm5DGIb3XXzxxX9ghBW3+fPnH+84Tq2kdnHbNsdx8jszdiXZKIr8f/v7BWNMwRgT/dvYXRYEwfcuueSSpez93VNXV9fFGDNA0kBrbb84jqEitdkY85soin6ayWQevuqqqz4gkpZz6623nm2MudAY0zmB10PrrbVP33DDDfXcHwM776abbtrTdd3zJfWT1FtSW1JpMqustc84jvOE4zgLmR0QaTd27NiLJPXd2eOMtXat4zixfshtrS1Ieuiuu+76NXsa/2348OEDrLWDJXVMYHnrrLWL5s6d+zB7Oj6uvPLKc6IoukBSl7RnYa31Jb1grb1n3rx5DTQA7oQVK1bcZ4z5MknEy6XPvKSn3l1R9HUYa1XWY29t3GP/oq+lqys9d3Cocic54+xbHzv63sriP2QaIx3eNqtSp/hryUaBbm+/Vh2dSEBzcRxnwOGHH/5k3LZr0aJFX5V0bwp2wc19+/adzEhsfYsXL77GWvtt8QLRf/tFnz59vtiSD+IWL17ctlAovOf7fifiRxoYY9S+ffuqs846a0FT/+znnnsus2zZsr8EQdAziiL9s//u3/rwEpPhP//XdV1ls9lA0tlVVVW/ZIQVpwceeOCAKIre8H2/JOmf/y3X5JKkTCbzseu6PauqqlYxCnbOPffcc0AYhhdIGizpdPECQXOzkl6QtMAY8+Do0aPfI5Lmc+utt15kjHkg6fcqxpjvXH/99dexx4Ht8zyvaxiG/SVV6pNmnAypNLtQ0u+stQsymcwDnuctJxKkydixY6+X9K0UfM4H3HXXXYvZ4/inoUOHXmmM+X7S6zTG3DB79uzb2OOtb/jw4Tyr2gpr7TNz587tw0XvDlq5cuUpkr5EEvHyqw9XJ6L5T5I6BZu1KgHNf5J0ffcoUc1/klTTxerRtUbLi3zFWWul9xsCHVKWLfp94jsZPZpvq2Ft1nMwRBp9LSV1flUSDYCtbPHixcO4odqmM59++unPSHqjpX5hNps9K5/Pd4oiGuCRDsYYWWuvktTkDYDLly//nLW2ZxAEic7w3xsboyhSGIaZ0tLS782aNevokSNH+oyy4uM4zpx8Pp/46dD/OXbD8JNJLF3X7SbpfEmzGQXbd8cdd7TJZrMDHccZEYbhWVzLtezpS9KJkk601n6rrq7ut9baBdbaH40ZM+Zj4mnya4WvpWF8W2tHe553g+d53AgAW3HDDTd0ymQyX3IcpyoMwzMkOaTSolxJpxtjTg/D8Du1tbU/M8b8cP369T+ZNm3aZuJBkl133XXl+Xz+ppR8zr8piQZA/Pu1+FVpqDOKolGSaABsZUOHDh3Ks6ptfhbPGTZs2GE0AO7YzbVZtWrVnQykeAmt1U2/W5KIWrKBr/U9P5uIWo4otRrSPnmrUbR1rK7pFum6D4v/e4O1gdXaIFKHTPHX8iu/VL1zm3Wgm+yHtsBWdEtJnV3Z1a1r8eLF51lr7+U6eNuCIGjRL7Kttd1JHSnUozl+qDGmwXXdfzYZpibMKIrk+37PTp06jZJ0F8OruNTX15+Tz+d7p61uY4wymYyMMTStNsLzPKdz585fdF33K9baCySVpen4FlOOtjREGGNumzlz5lPW2nndu3f/aVVVVUg83B/vhDJJpZI2scuB/1NbW3uCpBGSLuW8FxtZSX2ttX3btWu3duLEiY9L+uHUqVN/pk9myQUSpaGhYZgxpn1Kyj1+zJgxp02fPv1/2fNI07W4MaYHu7p1DR06dLAxhmdVjYiiKE8D4A5YuXLlZcaYk0kiXua8/oFeW7UhEbW0y7la3bZDImq5uXskJ6GH3QvbW92/RnopAe+rvd8Qqn07I1Pk58hI0n0N7TSx7RrO9gDQxJ566qkzrbUPiCXiGvOjAQMGvEMMQHF67bXXfn/44Ye/lMvljsnn86mq3fd9ua47ub6+/kdVVVXMRlUknnvuucyHH344558z4qVJJpORpOX5fP4njIRPmzVrVlff978q6SpJ+9L8EFsl1trzJJ23fPny92fOnHlvJpP5wciRIz8kGgDYcZ7n7RUEwVeMMcMlHUwisdbBGHOZpMtqa2tfl3S367o/9DxvHdEgIYykUakq2JgxkmgABNBirrzyyjOjKHpQEv1t2/bgvHnz3mYK7O1Yvnx5O2PMrSQRL2vyvr79578nopay/Eat6ZWM/tJB7a1OKkvuuHPMJw2OSWg0a4isPi4k44HAW2FWzweJX/0KAFrUU089dbQx5sf6ZIYJbIUx5ndbHrS3OB7qA03D87zIGDPun7MApo3v++2ttVMYCcVj+fLlY4Mg2CeF51xls1lZaydeeumlPCz+N9OnTz+urq5ulu/77+iT5bj2JZWisY+1drLv++/V1dUtnD59+tnWWt5tBIDGr9+Pra2tnRWG4d+MMd8UzX/FppekGWEYvl9bWzurtrb2KCJBsRs7duwAY8xhKSt7yNVXX819B4AWceWVVx4dRRHPqhr3vO/7V0p0SG5XJpO50Vq7F0nEy61/+rtWNSRj1Zds1x7a5Bb/R7HUka7vlvyH0ce3sapob/X4uuL/TnZpQ6jOWUeZBHy9/MDmtjq2vKASVhAAgN22aNGiQyQ9LakjaWzTa9baARUVFSy/BRS5ysrKX9TX1/84m82eXygUUlV7GIaKomhEfX3996uqqv7IaIi3+vr6zr7vT4miKHW1Z7NZSXrJGDOHkSDV19e7y5Ytu2DLzBtnkEjRcyUNdBxnYF1d3SszZsy4beXKlQ96nhcQDQB8srx9FEUDrLVXh2F4JokkQrk+Wbb5q7W1tc9aa781derUnxMLipG1dmwKXyjMhGH4NUkTGAEAmtNXvvKVg6MoWiyeVTXmLd/3K+bPn79RkpgBsBGrVq3az1o7jiTi5a9rNur/vbE0EbV0aFivtQcm4yWnr3WOtHc2Hc1XN3aLVJaAo2coq6X5ZHyfvNq6ejLfhgMkAOymp59+ei9Jz0jqQRpbZ4z5wHXdfn379l3VitvAjgCakOu612QymbzjpO8rkkKhYCTVMetU/Flr7wqCIHU3PcaYfy7/e21VVVWY5jHgeZ4zY8aMyuXLl79ijKkXzX9JHO9HGmPmd+3a9a0ZM2aMnTVrVhmpAEjxeS83adKkr4Zh+Jq19nFJZ5JK8k59ks4xxvystrb2dxMnTjzP8zyeW6No1NTUHG6MOSul5X9txIgRXKsCaDbDhg3by3XdZyTtQRrbtDSKonPmz5+//J//ggupRlhr75DEyStmJv7+TfkJeOPdWKvCQUckYp/smZVGdE7PzGtJqvdjP9KmMBkzSDyRL9OKiNMaAOyq5557rmMURU9KOoA0tmltFEX9zznnnHeJAkiOIUOG/N1ae9eWWcZSxVor3/dPqa+vr2QkxNfDDz98RKFQ+HIal4DP5XKS9GhVVdUzad3/s2bNys6YMWNo165d/7ql8a8nn4rE298Yc6fv+/+oq6u7adasWR2IBEBaeJ6Xqa2tHRaG4V+ttfdK+gyppMLJxpgfh2H4l9ra2i/RCIhi4DjOGH3SyJpGndu0aXMJowBAcxgxYkQHY8wTkg4kjW1aF0XRgHnz5r39H+cmctm6VatWnS7pApKIlyff+Vg/f39lImrpFDZoc9e9E1HLTQmZEW9nJGbGQyu9l09GA6AvowX5dhwoAWAXLFy4sKyhoeGnko4hja0zxmy21g7s16/fy6QBJE9paelU13U/TOMsgL7vS9JdP/zhD9syEmK7j+aHYZi6B0uO48h13YLjODekcb97npepq6u70vf9v25Z/vgQPg2p013SLb7v/23GjBnX3HHHHSx9ACDJ5z1n0qRJlWEYvipptng5Ma0Ol3R/GIZ/mTRpUqXS21yFmBs3blxHSZemPQY+owCaWmVlZZsgCH5qrT2WNLapIGnIvHnzXvzv/0AD4FZYax1Jd3HSitkoDiPd/PybiaglF+S17vCTE1HL8W2sBrZP3ywEpY50Q7dk1L0hiLQ6SEYT4O/8Ev01SN/MLQCwO1544YVsNpt92BhzOmlsUxhF0aX9+vX7NVEAyTR48OD11tqbt8w2lr777UJhjzZt2lzDSIif+vr6i3zfPy6NtedyORljpl144YVvpq326dOnn921a9c/Svq+eOMdUhdjzHdyudybdXV1IzzPyxAJgCSZOHHihVuW+q2XdBiJQNLh1tr62tra306aNOks4kDcWGu/KintL9EdOW7cuC8wGgA0lREjRmTbt2//sKQzSGObImPMpXPmzHl2a/+RBsCtWL169ZXW2hNIIl7ueeVd/X3d5kTU0ra0VEFp8V8XOka6uXuU2k7ZivZWJ7VJRhPg+w2BooT0cd6fb6dIAIAd4Xme8/HHH/9QUj/SaNS4fv36PUoMQLK9/vrrsx3H+aPruqmrPQxD+b5/0yOPPLI/IyE+6uvr2/i+PzOK0neH47quHMdZbq29NU11T58+/bi6urqfOY7zjKSj+RTgv+wtaVbXrl1fmTlz5oXWWl5eB1DUamtrj6utrf2FMWaBWOoXW3eytfbZ2traZ2pra48gDsRBZWWlK+kqkpCstWNJAUATMb7vf99a258oGgnJmKtnz569YFv/nQbA/7Jy5cr21tpvkES8fLy5oDtfficRtbTNb9Saw09KRC0Xtrc6JuWLj9zcw8pJwNethUhaVggTsU/eCTP6jc+qOGgaaVxqDelyyimn3GGMuZgkGr2h8vr27VsXp22y1rJjgGbgeV5kjLkmrbMA+r6fC8Pwu4yEWB3vb/Z9v0saa89ms5J0U1VV1do01Dt9+vR9ZsyY8f8cx3lB0hcZ/diOz1hrF9x9992/vPvuu2kUBVB0brzxxi61tbV3SfqDJGaPwo44W9Kfa2tr7/I8ryNxoDXttdde54lZuv9p0Pjx4w8iBgC7a/jw4d81xnyFJLbNWjt19uzZdzX2Z2gA/LSbJe1BDPEy+YW3tK4QJKIWp8c+sgn46LV1rK7pxjxrR5RaVXZIxkP4jwqhCgnpJ6hvKNNmTnEA0KhFixZ9QxJvaTbu+3369OHlICBFKisrf2GMeXRL81GqWGvl+/6Q+vp6HsLGwCOPPLKP7/tXp7H2TCYjx3FelDQv6bV6npeZMWPGWMdxXjPGXC6+q8XOHbc/F0XRn+vq6n5YV1fXhUQAxN2IESOytbW112Uymb9LGiPJJRXshKykMWEYLqmtrb1SEi9uo7WMIYJ/caIoGkUMAHbHsGHDbrbWjieJbTPG3Dd37txJ2z0oE9X/WbNmzcHW2tEkES8vr1yvB9/8KBG1dMyv1/r9eiailpouVt0zjE9Juq6bVXkCjqaRlT5oSEaj7Trr6PEGZgEEgG156qmnRkmaRBLbZq1dWFJSwhdYQDpdk81mG4xJ3/Mk3/cVhuH36uvreRjbyoIg+H4QBNk01r6lAXdcVVVVmOQ6p0+fflzXrl3/1xhzp6RyRj12kSPpMklLZsyYMdbzPL7vBxBLnucd26NHj99Kuk1SexLBbugm6fu1tbW/YllgtLTx48cfJenzJPEfho8aNaodMQDYFcOGDfuaJI8kGvXEvvvuO1TSdqdy4guBfxMEwZ3GmBKSiA8r6abfLVGUgGXOHBup4ZBjErFf9stKwzqz9Nw/dXGtRndJxmyIq/xIG4Jk1PJ0oUwfRTy3BID/9tRTT11ijJlBEo36fRAEF/fu3TsgCiB9qqqq/mGMuSuNswBKku/7PSUNZyS0noceeuj0QqHQN421Z7NZGWMWVFVV/TKpNU6fPr19XV3ddMdx/iDpREY8mkhnY8ydXbt2/dXMmTN7EQeAuBg/fnybSZMmfSsMwxcknUAiaEKnS/rzpEmTvuV5XilxoCVEUcQMVZ/WMZvNXk4MAHbWsGHDzpdURxKNet73/Ys8z9uhZ1U0AG6xYsWKs4wxA0kiXh7520f67UdrknH1ExXU0KlHImqp7REpx+Tq/2F4Z6sDc8loinwvH+1A/3j8BZIebOClIwD4d4sWLTrbGDOX+4BGvSapf0VFxSaiANIrl8vd4rruR2mcBTCKIoVh+J0f//jHHRkJLc/zPCcIgnlhGKaudmOMstlsXtJNSa2xrq5uoOM4r0mqEcseonmcZq3908yZM2/wPI+1OwC0qokTJ57brl27V62113PeQzPJWmuvD8Pwxdra2lOJA82ppqamm6RLSOLTrLXMRA1gpwwfPvwsSQ9wjdiot3zfr5g/f/7GHf0LHIg/OSlltiy3gRhpCCNNfeFviailxG/Q2iOSce9xWpnVOe2Y/e9Td5lGuqlbMmbO2xRGWpmQWQD/HOT0lyDHAAUASYsXLz5Z0k8kMeP1NhhjPgjDsH/fvn1XxXw72VlAMxs8ePB6x3Fqc7l0XksWCoX2hUJhMiOh5fXq1euqIAgOSeV99Sez/323qqrqraTVdscdd7Spq6u7S9LjkvZmpKOZlVprb+3atesL06dPP444ALQ0z/Pa1dbWft8Ys1jSgSSCFvAZSb+aNGnSNz3P44EAmoXjOCMlMdvkVhhjDlu9evU5JAFgRwwfPvwka+1PxLOqxiyNouic+fPnL9+pcxW5SStXrhwl6UiSiJc7X3pb721oSEQtbdqVK8wV/zWha6RJ3SMG5zacUy59vm0ymiM/aAgV2mTU8qOGdgpFowSAdFu8ePGR1tonJbUljW1aG0VR/wEDBrxDFAAk6dVXX53juu4LjpO+r06stfJ9f/SDDz7IdyUt6P777+8UBMFt1qbvpTvHcZTJZJbl8/nbklZbXV3dyblc7kVJYyRuTtGijnEc5/d1dXXfohkCQEupra09MQzDP0q6kjTQwlxr7Y1BEPyxtraWBng0qREjRmQljSSJRo0lAgDbM3To0MO3PKtiGb9tWxdF0YB58+a9vbN/MfUNgGvXru1sjJnEGIqXDzY2qO4vyXj2Wt6wQWsOOyERtXy5o1VP3m1p1KQekZKwvopvrT4qJKPZc2nk6ucFBi6A9Fq8ePG+W26oOpPGNjVIqujXr9/LxbCxaWwMAVqD53mRtXZcLpdL5YcuCALHGHMPI6HlOI5zm+/7qWzWz2azknTDpZdeui5Bx5BMXV3d9ZJ+JekwRjha6+Ml6fquXbv+evr06QcTB4DmUllZ6dbW1k6U9L+c99CajDFHSvrtxIkTvy5evkATKSsru1DSPiTRqL7V1dU9iQHAtlx55ZX7SHpKUhfS2KaCpCHz5s17cVf+cuobAH3fn8IAi59Jv39Lm5OwBKm1snsfJCVgmbYOrjSuC7P/bc8hOenSTsl4PrisECofJaOWH+fLtN5yrw8gfZ588slu1tpnJO1LGtsUSrq0b9++vyIKAP/toosu+o3jOI+6rpvK+guFwhkLFiwYyEhofg8++GCvIAiGp7F2x3Hkuu6fX3vttR8mpaYZM2Yc2LVr199K+pY+acACWtuJjuO8MHPmzAuJAkBT8zzvgJ49e/5S0hQpEe/Ho/iVGGNur62tffzGG2/kGTB2m7V2DClsl3FddzQxANiaESNGdI2i6BljzH6ksU2RtfbLc+bMeXZXf0CqGwBXrlx5uDFmBOMoXp5ftlaP/WNZImrp5G/Uhr2T8XLt+K6ROnPrnqqsrJXez4eJ2CcbraOf5Fn1EkC6PPnkk+0dx1kk6TOksW3GmPF9+/Z9hCQAbIvrutdls9lCGmsPw1BBENxTX1/P0pHNfv9l54RhmMrv6bLZrIwxYz3PS8Rbh3ffffcAY8wLkj7LyEbMdLTWLqirq/vhrFmzyogDQFOYOHFi/y1L/p5OGoihgZlM5sUJEyacQRTYVWPGjDlB0ikksUOuuP766zsQA4B/N2zYsPIgCBZJYpbQRlhrx8+dO/fh3fkZaZ8B8A7xNlKsRNbqxt/9VUmYc8yNAm087PhE7JdDcjYxs9q1hA6uNDYhsyWu8SOtC5NRy88KpXo/4pAPIB3q6+vbOI6zUNLxpNHoDdU3+vTpM4MkADRmyJAhf3cc545MJp3Xkr7v7yPpakZC83n44YfP830/lQ+UXNeV67qPVlZWFv1MvPX19e6MGTO8KIoel9SZkY0Yu8z3/RdmzJhxFFEA2FWe5zmTJk3yjDELOe8h5vZxHOe52tra68SSwNg144lgh7VraGgYRgwA/qmysjIn6WFJJ5BGo6bMnTt3+u7+kNQ2AK5YsWKwpD6Mo3i5b8lSvbhifSJq6SCrQvtkzCxe28PSKbuTLu1o1bM0GbW81xAmoinXyuj+hnYMTuwsvhRC0amvr3fbt29/n6TPk0ajvt+vXz+PGADsiJKSkm9ms9llaaw9iiIFQXDzI488sicjoVnO27lCofC9KIpSWX8ul/Mdx7mh2OuYNWtW1+XLlz9ljLlZvHCN4tDLGPP8jBkzLiUKADvL87zOYRg+Ya3lvIdikZF0W21t7UPXXHMNSwVhh40bN25PY0wlSeyUMZWVlS4xAKisrHTLy8t/JOlc0mjU7Dlz5tzcFD8olRfm1tqcMebbjKN42eCHuvWPf09ELW0Km7XmyFMTUcvZ7ay+0JbZ/3aWa6RJ3ZPxAKchtFpRSMZSwK8FWf3RZ/UyAIm+zjXt27e/V9IFpNGon5aUlIwiBgA7avDgweuNMROy2Wwq6y8UCqVBEHyHkdAsbvB9v0caC98yq+a0Cy+88M1irmP69Okn+b7/oqRzGM4oMqXGmB/W1dXd4nkeDTwAdkhtbe1xYRi+IKkvaaAIVbZp0+Y3EydOPJAosIOuksRDpZ1zwF577TWAGIDUM+Xl5fdIGkIUjXpiv/32+5rUNPMxpfLGfvXq1eMkHcZYipdv//nvWr65kIhach07K8oU/4OhrJEmdKf5b1edVmZ1Trtk5PdBPlKQkKHwQL6dfIY1gIRatGjRtyWxzELjfm+Mubh3794BUQDYGa+99trcbDb7J2PSOUFwEARfqq+vP4mR0HR+9KMf9fB9/yZr03eDYoxRJpNZYYz5ZjHXMWPGjCGO4zwnaW9GNIr14yjppm7duv102rRpHYkDQGMmTZrUT9IvJdE8hWJ2jDHmDxMnTjybKNCYmpqaEmvtCJLYJWOIAEi3YcOGfVPSV0miUc/7vn+R53lN9qwqdQ2AH330UXdr7U2MpXj5x7rN+sFr7yeilvYN67X2kGOTcWDubHVgjk6p3VHbI1IuAc8HQ2v1YT4ZswB+HLlaXChjcAJInKeeeupGY8w1JNGo1yT179Onz0aiALCzPM+LrLVjstlsKm+SfN83URR931prGA1Nw3Xde3zfL0lj7ZlMRsaYm6qqqtYWaw0zZswYa4ypl8QNJoqetbZfLpd7fvr06YeTBoCtmThx4lhr7U8llZMGEqCLMWZRbW3t14gC22KMuVhSD5LYJWeNHTv2aGIA0mn48OHVkm4giUa9aa0dOH/+/CZ9VpW6BsBsNnurpA6Mp3i56XdLlA+Lf7lUY63C/Xsm4+7HtaruEjE4d9N+WWl452Q8H/y4EGpzmIxaFhbKtCZidRsAybF48eKvGGNuIYlGLQ3DsH/fvn1XEQWAXXXRRRf9xnXdRx0nndeSvu8fXV9f/2VGwu57+OGHT87n8+ensXZjjLLZ7MvGmDnFuP2e5+Xq6urmGWPuVEpXV0EyWWsPdRznf+vq6ljOGsC/VFZWurW1tTM47yGBXEn31NbW3uV5HmMbW7tvqSaF3UJ+QAoNHTr0UmvtXSTRqKXGmHPmzp37cVP/4FRd0Kxevfo4SVcwnuLll0tX6en3ViSilk7+Jm3ssV8iarm2m1U5tzxNc4Xbxap7pvjrsJLeyydjtcQGa/RIoS2DE0AiLFq0aLC19gf6ZPkubN1aSf0HDBjwDlEA2F3GmGtzuVwhjbWHYagwDGfcd9997RkJu3FvZa3xfX9uFKXzpbtcLidJ11RVVRXdNPN1dXVdunbt+oykrzCSkVAdJD1RV1d3GVEA8DyvXc+ePX8imjiQbGPCMHzQ87xSosA/jR079gxJnyWJ3XLp6NGjuxADkB7Dhw+vMMbMFS+NNGadpP6zZ89ulmdVqQo+iqI7GWzxEkRWE373ZiJqyYa+1vc6MRG1HF5iVdmBpX+bSlvH6tpuyXiwsz6wWuMno5ZfF0r19zDDAAVQ1BYtWtRb0oOSOKBtW4Okir59+75EFACaQlVV1T8cx7nDdd103scHQcdsNjuBkbDrHnnkkaG+7/dKY+2O4yiTyfy4qqrqmWLb9pkzZ+4h6TlJn2cUI+Gykv7fjBkzPKIA0uvGG2/sFgTBLyUNJA2kQGUYhk94nseLTpAkWWvHksJua5PJZK4kBiAdhg0bdqq19gHxrKoxBWPMBXPmzGm2Z1WpaYZbuXLlReILutj5wevv6/XVGxJRS3nWld82GatL39zDymUOoSY1pL3VMaXJaKp8Px8qCZVEku5vaCdaXQEUq6effvqzkh6TxBvKjR/uL+3bt++viAJAE7slm81+nMbCoyhSGIZff/jhhw9lGOy8xx57rDyfz09L8ex/vjHm+mLb7nvuuecAa+2vJB3FKEZKGGPMzXV1dbM9z+MBDpAyN910056u6/7cGHM8aSBFvhiG4c89z+tKFOk2fvz4vY0xg0miSdSMGDEiSwxAsl1xxRVHSXpCEsvvbVtkrf3y7Nmzf9acvyQVDYDvvfdeG0nfYkzFy+q8r++++I9E1FKW36jVvU5ORC0Dy61OLqMlqskPtuaTxsok9FXmI6tl+TAR++WtMKvf+iUMUABF5+mnnz40iqKfSionjW0zxozr27fvIyQBoKlVVVVtMMbckMmksyfC9303CIIZjISd19DQcEsQBKmcWcR1XRljpl144YVFtRTEjBkzjgqC4H8lHcIIRgoN69q16yOzZs0qIwogHSZOnHig67q/MsYcSRpIoRPCMPyfCRMm7E0U6RVFUY0+mREZu2/vNm3anEcMQHJ95StfOdhxnKcldSKNbbPWjp87d+7Dzf17UtEAWFZWdq2kAxhW8XLLH/+uVQ1+ImrJdu0h6xb/g59SR7qhe8TgbCbHt7GqaJ+M5sqPCqF8m4xa6hvaKi+mvARQPBYuXLh3FEXPSOpBGo2a3KdPH5pTADSb119/fV4mk3nRmPRdS1prFQRBn4ceeqgPI2HHPfjggwf7vj/K2nS+dJfJZFYaY75ZTNs8Y8aMzxpjfm6M2ZMRjBQb5Pv+4unTp7MsIpBwEydO7GWM+ZWkg0kDKdbLcZxfT5w4kc9BCo0fP76NJJatbVpjiABIpssuu6y767pPSdqDNLbNGDN57ty501vidyW+AXDFihV7S7qOYRUvb6zeqPl//SARtXTIr9faA5OxAszIzlb78E5Ls7qxW6SyBBx5QystbUhGs+hq6+qJPC+yAygOzz77bJdsNvu0pP1Jo1E/6Nu3783EAKA5eZ4XGWPGZrPpvIkKgkBRFN3z3HPPsTTkTpyfgiBw01h4NpuV67o3VVVVrS2WbZ45c2ZvY8xzklgGDpDOcBxn0bRp0zoSBZDYa9vjjTG/lsTMZ4B0gDHmFxMnTjyUKNIlDMPLJHUhiaa9jhw7duyJxAAky4gRIzrkcrnFkjhXNsIY84PZs2e32LOqNMwAeJtYazp2Jvx+iYKo+N94N9aqcOARidgne2SlkZ2Z/a+57ZmVRiQk5xVBqI1hMmaueDLfRh9HDgMUW7swY3pIxMbChQvLgiB4XNLhpNGon5aUlFxFDABawkUXXfQ/mUzmUcdJ57Wk7/sHLlu2jGPuDnjooYfO9n3/zJReUyuTybwiaXaxbPPMmTPPsNY+Lqkdoxf4l1NzudzPZ82aRVMskDC1tbXHhGH4tKTOpAH8yz7GmJ8zE2Dq7l1GkwK5AmhcZWVlmzAMF1prjyWNRv103333bdHvTRP9DfXKlStPMcZ8iXEVLwvfXq5ffLAqEbV0Cjdrc9dkvBCXlJnpisHXkjLTopXeawgSsU98GdU30CsOIL7q6+tz2Wz2UUmnkUajfm+Mubh3794BUQBoQddks1k/jYVHUaQwDL/1ox/9iGaQRjz33HOZKIrmhGGYyvq3zJI5vqqqqigCmDFjxunW2idF8x/wKdba43zf/59Zs2axLDaQEJ7nHS3pWTHjFbA1+xhjnps4ceKBRJF8Y8aMOUvS0STRLNeQF48aNYolQoEEGDFiRLa8vHyBtfZzpNGo3/u+f7HneS36rCqx7T7WWiPpLknM3BMj+TDSN/7wViJqyQV5rTv8lETUcnwbq0HtLQO0hZQ60g3dkzEL4MbQapWfjFqeD0r11zDHAAUQO57nOe3bt58vqQ9pNOo1Sf379OmzkSgAtKSqqqp/OI5zu+umcmVXBUFQ5jjOtxgJ27ZixYqrC4XCvmms3XEcZbPZRy+66KJni2F7Z8yYcboxZpGkckYusE29fN//GU2AQPHzPO/oMAx/Jpa7BxqzrzHmF57nHUAUyWaMGUMKzaYkm82OIAag+A+VQRDMkjSAKBr1mjGm//z581v8WVViGwBXrlx5uaSTGFvxcvcr7+of6zYnopa2bUoVlBb/jGFG0s09LJ2yLWxgudVJbZLRdPl+PlSUkP7R+xraik8DgLg59dRTp0mqIolGLQ3DsH/fvn1XEQWAVrmvMuab2Wx2RRprt9YqCIJhDz/8MDMlbMWjjz7aPZ/Pf8PadL50l81mA2PMDcWwrXffffcJxhhm/gN2TC/f959lOWCgeE2cOPHQMAyfEc1/wI7YLwzDpz3P24sokmncuHEHiIaW5ja6pqamhBiA4jV06NBpkoaSRKM+yGQy/WbPnt0qz6oS2QC4fPnydsaYbzK24uXjzQXd9dI7iailXX6D1vRKRn/pkA5Wx5Qy+19ruLmHlZuAXjM/svqokIylrN4NM/pFgfsPAPGxaNGiW6y1vH3auHWS+g8YMOAdogDQWqqqqjYYY67PZDKprD8IAhMEwb2MhE/L5/N3BkFQmsbaXdeV67q3X3jhhW/GfVtnzpx5SBRFT0hqz6gFdtjhvu8/e/fdd3ciCqC4eJ63lzHmaUndSQPYYYeGYfjMDTfcwHkvgbZ8/+qSRLPq7jhOJTEAxWnYsGG1xpixJNGotZIG3Hvvve+21gYksgEwk8ncJIm3MGLm5uff1Ho/SEQtTo99ZRPw8WnrSNd2ixicreSIUqvKDslovlxWCFVIyDSAj+TbapN1GKAAWt2iRYtGS7qJJBpVsNZe0Ldv35fSVHRaZ5EC4u7111+fl81mXzImnTNKFwqFkx966KEhjIT/8/DDDx8XhuHFaa0/l8utLBQKt8Z9O2fMmLGXtfYZST0YtcBOOyaKoidmzpzJzJlAkbj++us7BEHwhKQDSAPYaYdns9mnPM8rI4rkGDVqVDtJw0iiRYwjAqD4DB8+fKSkySTRqIYoiirmzJnTqs+qEtfhsGbNmgOtteMZX/Hy0sr1WvC3ZYmopVPDBq3br2ciaqnuatUjw/hsTdd2sypPwJE4sp8sBZwE662jxwvcvwNoXYsXL/6ypOkk0fjpxxjz5X79+v2MKADEged5keM4o9I6C2AURYqi6J6FCxdyMb1FEARzgiBIZUdoJpOR4zjXXnrppevivJ1bZi5bLJoggN1xqrX20enTp7OkAhD/69WykpKSJ40xx5IGsMtODsPwvsrKSmaLS4hsNnuFpA4k0SJOGDdu3KnEABSP4cOHn2etnUkSjYqstZfNmzfvV629IYlrAAzD8DuSShlj8WEl3fjbJYoSMFOJYyNtPvToROyX/bLSsE7M/tfaurhW1V2SsR9W+5HWB8mo5el8qT6K6I4F0DoWL1480Fo7VwmdrbvJrjGtHd+nT5+HSQJAnFRWVv5vNpv9cYpnAey2adOm6xgJUn19/ZcKhcKxaazdGKNsNvuXV1999f/FeTtnzZqVjaJogTHmSEYssNvOcRynftasWVmiAOJ7ig7DcLa19jSiAHbb+b169aIZIiHHRkmjiaHlbFluGUARGDp06BettQ+KJdK3Z9zcuXNj8awqUQ8VP/744zMlsdxMzNS/9ZF+v2xNImrpGPlq6JSMFWEmdI9UYhifcTCss9WBuWQs5fd+Q6gkVBLK6EcNTFwCoOU9+eSTp2y5oeLBWeOm9OvXL7UzJKa1sQgommvJMBybyWQKaazdWqsgCG6qr6/fL81joL6+vk0QBNOjKJ0v3W2ZBbPa87xYB+D7/vclncVRC2gyg3zfv4YYgHiaNGnSbZIuJgmgye59RtbW1t5EEsVt3LhxfSX1JIkWdWFNTc0+xADE2xVXXHGiMeYxScz03ghjzOQ5c+bMiMv2JKYB0FrruK57O0MsXjYHkW554W+JqKWk0KC1R5yciFpOLbPqU24ZoDGRNdKE7snYH5siq5V+Mh5yvRSU6OUgxwAF0GKeeOKJoxzHeVJSW9Jo1Pw+ffrcTAwA4uqSSy55L5PJfNdx0jmRaxAEWWvtnWkeA9Zaz/f9Lmmsfcvsfw9fdNFF/xPn7ayrq5so6SscsYAmdz4RAPFTW1s7zFp7LUkATW7qpEmTLiKGor53Yza6lpdxHOcqYgDi64orrjjUcZyfSmpHGttmjPnB7NmzY/WsKjHfRq9evfqr1toTGGbxcseL/9AHGxsSUUubduUKc22Kvg7XSDf3oPkvbs5uZ/WFtsnYLx80BErGPIDSjxraKhSzLAFofs8+++xBrusultSJNBr1RElJyTBjDBczAGLNGPPNTCazMo21W2vl+/75CxYs+Fwa63/ggQf2DYJgvLXpPFVls1k/DMNYNxjMmDHjIkmTOVIBzWIZEQDxMmnSpLMkfY8kgOa59bPWzq6trT2GKIrPmDFjDpV0Lkm0ihHjx49vQwxA/Fx55ZX7OI7zjKTupNGon+67776xa2ZORAPgypUr21trPcZYvLy/oUH3vPpuImopb9igNZ9JRn/pJR2sepbwzDyOantEyiSgjsBKHzYkYxbAD6OMni2UMjhTzLDOJlrAokWL9gyC4GlJe5JGo37r+35V7969A6IAEHdVVVUbstnsta7rprL+IAgUBMEPPM9L3TSIjuN8PwiCbBr3u+M4ymazt11yySVvx3UbZ86ceawxZo7Em15AM8hHUTSFGID4mDBhwv7W2ockZUkjdiJJH0t6XdJvJT275Z8nJC2Q9JN/+3e/sta+ImmppDzRxU5bST/xPK8rURSdsUrQZElFpqu19hJiAOJlxIgRXaMoelrS/qTRqOd937/Y87zYPavKJCRgT9IejLN4mfj7N7U5SEATkLWyex8oJaAHpIMrXd01YnDG1CE56bLOVnNXFf9YW16I1DXnqNQp/lp+ki/Tadm8yg2fHQBN75lnnukQhuETkg4mjUa9aYw5r6KiYhNRfDK7FoD4e/XVV/9fz549rw7D8Mg01u/7/mFHHHHEMEk/SEvNDz30UO9CodAnrcfpXC73sbX2trhu3x133NHZWvuIpDKOUEDTX6JK+uqYMWOeJwogHsaPH9/GGPOopC6k0WpWSvqzpCXW2r87jvN3x3H+kc/nP7j11ltXbDl27rRrrrmmbbt27faNomh/a+3+xpgDrLWHSzpa0gHiRYfWcEAYhgtGjBhx7r333usTR/zV1NS0N8ZcRhKtePFo7XhJc3f1WAigaY0YMaIsCILHJfUijUa9aa0dOH/+/I1x3LiibwBcvnz5IdbaUUzQEy+//nC1Fr69PBG1dCps1Oq9D0lELWO7ROqcYXzG2bgukR5b52pVkc9tZGX1fkOoQ8qKf8Btso4eaSjTFW02MEABNKn6+vo2YRj+VNJxpLFtxpgPgiA4Z8CAActJA0Ax8TwvWrBgwchMJvObIEjf5KVRFMn3/e/W19cvqKqqWpuC87obhuHsMAxTOd4zmYxc172msrJyQ0w/j05JScl91tqDODoBTc9ae11NTc18kgDio23btvcYY44niRZTkPR7Y8zPJf0xDMMXb7nllvea4xfdfvvtGyW9seWf/3DdddeVl5SUHC3pVElnSDpNUjd2T4s4c4899pgmqZoo4s913Sutte1JolUdOW7cuC/ceeedvyAKoHVVVlbmgiB4dMv1A7ZtqTHmnDlz5nwc1w0s+s4M13XvlFTCWIuP0FpN+P2bybgAjAJt/Ewy7pEPzlld3pmXKOKug/tJE+CkZcU/6/jaINLaIFKHTPHX8ku/jc4syesAh5f3ADSN+vp6t0OHDvdba88gjUatM8YMHDBgwDtEAaAYVVZW/m99ff1jYRgOTuOscL7vt3ccZ4qkMUmv1Vo72vf9A9M61rPZ7EuvvvrqfXHdvq5du37DWtuPoxLQLMe/upqamttJAoiPiRMnXmWM+QpJNPfhz/7ZcZyfRVH084aGhl9tacxrVd/+9rfXS/rNln9ul6Ta2tojJPWT1F+fNAWyJHQz3hNMmjTpN5MnT36ANOLL8zxn9erVo0kiFp+ZMZJ+QRJA6x4T33333fsk9SGNRq2T1H/27NmxflZV1F0ZK1asOFvSAMZavPzwjQ/0ysr1iailg7EqtE/GDPm1PayY/K84fLmjVc+SZDwcfL8hlE3A7N2RpPs3t2UecgBNwlpr2rdv/31r7fmk0aiCpCHnnnvui0QBoJiFYVjjum4q3ySx1ioIglH19fWfSXKd999/f6cwDL8ZRVEqx3gmk5ExptrzvFgGUFdX93lJN3I0AprFT3v06DGOGID4qK2tPcYYcwdJNJtXJU2w1h48derUEyZPnnzd1KlTF8Wh+W9bpkyZ8uqUKVNunzJlyhdd1+0q6TJJT0ribffmuQf63sSJEw8mifhatWpVhSRmBo+HQePHj2dfAK3HvPvuu/dIqiSKRhWMMRfMmTPnpbhvaNH2A1lrM6tWrZrGWIuXtYVA3/rzPxJRS5vCJq059vOJqOWL7azObEvrUrFwjTSph9WX3i3+pc0bIqvlBaseueKvZUmY1Qt+iU7M5hmkAHbL4sWLb5c0lCQaFRljvtynT59niQKApDXFvPGXXHLJe/X19d8Nw/CGNM4CGIahG0XR9yT1Tuw9nOt+N5/Pt03jh9MYo1wu93BVVdWv47h906dP7ybpAUkuh9LYCyQts9auNsaskbTGWrveGPPvbxmvldRekrHWljuOk7HWttUnq8N0/7d/DHG2iN8WCoWqqqqqkCiAeLjmmmvaSnpQUilpNKkPjTE/dBznR57nvVzMhXiet07SfZLu8zyvaxAEF0kaYYw5mt3cZNo7jvOg53mne55XII5Y3sOMIYX43E5ba6+SdC1RAC1v6NCht0gaQRKNiqy1X54zZ87PimFji7YBcNWqVaMlHcl4i5dv/+nvWrE5GdezuY5dtDlT/DOhZyRN7E7zX7E5rczq3HZWT28o/u+sP8yH6pwxyjrFX8uPGtrqmGxBOeYCBLCLFi9ePMFaezVJNM5aO75v374Pk8TWGcMzbaTOQwmo4ZZcLjcin893TuExXb7vn/nQQw/1v+iii55MWn319fWHFwqFK9LY3ClJmUzGd133mpiOPTNz5sx5kvbiMBobayW9Iel1Y8xfJS0Jw/B9Y8z7PXr0WNYUjWSzZs3KRlHUPQiCPR3H2dNa21PS4ZKOkNRLUjt2Q5NYks1mB1VXV28mCiA+SktLZ0jqSRJNdi3xojFmmuu6DyaxkcvzvBWSZkqaOWHChDOMMaOMMUMk5dj7uz12PhuG4a2Svk4a8TJ+/PgjoijqTRKx+rxcOWrUqG/cfffdG0gDaDnDhw+vttayWsL2j1Hj586dWzTPqoqyAXDt2rWdgyCoZbjFy5trN2n26x8kopb2Deu19uhTE1HLFZ2tDsrRrFSMJvaI9MuNrvJFvvtCa/VhIdR+pcW/CPUq62pxoY0qcpsYoAB22lNPPTXSWjuVJBpnjJnat2/f6SSBRsZI+G//ayVZY0xkjLGS/v2//etyZGv37o7jbO3fR1t+5r//PvtfP29bXwZoR/7cf//sLb9zV3KIjDFNtdzmP/Nrqv3TJD/Ldd211toFZ5111t3FPm6rqqo21NfXf91xnLlpXCY2DENFUfT9J5988qD+/fvnE1bb3CAIUtmZ7TiOstnsrUOGDHknjttXV1f3dWNMf86crSZvjHneWvs7a+0fHcf546hRo/7WVOebbRk5cqQv6YMt/0jSwn87V5vvfe97+0dRdJS19nOSzpD0WUlZdtdOWe44Tr+RI0euIAogPmpray8Wqw00yb2RpCettdOmTp3687QUfcstt/xa0q8nTJiwr+u611prr5TUhuGwW8ZPmjTp55MnT36CKGJ1/zbO8GZt3HTM5XKXSbqHKICWMWzYsC9ba+8iie2aMnfu3KJ6VlWU3Ri+7081xnRhvMXLxN8tkZ+ABxnGWoX7J+Mluc6u1ZiuEYOzSO2XlYZ1inTPKqfoa/nYj9Q1G6nMLf5aHm8o02mZBnVx+GwB2HGLFy8+z1o7kyS2cx1mzH3nnnvuJJLAlvGgXC73/c2bN8+QtErSqqqqKmaZQdF67bXXftizZ8+vNzQ0pHI1A9/391q/fv1YSd9OSk0PP/zwkE2bNp2U1jGdzWZXNDQ0xHJ/Tp8+/RhjzC0ceVpUJOmPkp6y1v7S9/3fXn311f9x3h49enRrX1tYSW9v+WehJM2aNassCIKTJX3eWnu2pNMkOezObdpojBk4atSovxMFEB833XTTnvpkJjfsnsWSrp8yZcpLaQ3glltueU/SmJtuuumWTCbzdWtttWgE3OVLD2vtbM/zjtwy2yJa2VVXXdXJGPMlkojhjUQUjZP0PYnlt4DmNnTo0IGS5nHfu13z58yZc3OxbXTRNQCuXLnycElfZbzFy9PvrdCz769MRC2dgk1a1WO/RNRyTTer9hy6i1p1V6tH1knLgyIvxErvNYT6TNviH5AFGT2cb6uRbdYzQAHskMWLF3/RWvugJJc0GvVELpcb2tyzwqB4uK77fkVFxQiSQFJ4nhfV19ePyGQy/xsEQerqj6JIYRhOfuSRR+YPGTLkw2Kv58knnyxZvXr13Wmc0XHLMVqZTGbcJZdcsjGGn7Wc4zj/Tyxf1zK3yJ80SzxujPnp6NGjPyq2AkaOHLlJ0nNb/vnGPffc0z2KosHW2vMknSWphN38L4Gki0ePHv0HogBid16eKakzSeyyV621N0ydOvWnRPGJb37zm8skXed53vQwDGslDRffa+2KHkEQTJdE01kM5HK5kZLKSCJ+jDGH1dTUnDNjxoynSQNoPldeeeUpURQ9qCKdKK4FPbHffvsNUxE2JRdjJ8Y0BmS8+FGk2t+/mYhasqGv9T1PTEQtvUqsLurA8/Ni19aRru2WjAdKG0Kr1UEyavmtX6olISsEAdi+p5566kRr7U/Eg8Pted4Yc1Hv3r0Dotg+a9NxjWeMWcLeRtJUVVX9NpPJPJbW+guFQonv+99JQi3r16+fGARB97Tuy2w2+9KFF174ozhuW9euXWslHcMRp/kuRYwxvzLGfK1QKOxZXV09qLq6+gfF2Py3NVddddXy0aNHf7+6unpAmzZtukm6SNJj+qT5Le1GV1dX0xwDxExtbe0Vks4niV3ygaTLXNc9mua/rfM87/0pU6aMdF33s5J+QyI7zxhzycSJE88jiVYfyxlJo0givhzHGUsKQPO54oorjoqi6ElJbUmjUc/7vn+R53lF+R1AUTUArlix4jxJ5zLm4uXeV9/XW2s3JaKW8qwjv22HRNRycw8r1zA+k2BIe6tjSpPxoP/9hkBRAkqxku7f3FYsApwKHEmxy55++ulDjTELJZWTRqPeMsZU9OnTZyNR4D8OwMasIQUkUTabrc5ms35a6w/D8EsPPvhgUb95V19fv7fv+9enpSH7v2UyGTmOUx3HWXunT59+nKTrOdI0izWS7o2i6MjRo0d/fvTo0bOuvvrqVUkuePjw4eurq6vrq6urz8tms/tJukHSOynd/1Orq6vv5WMAxMuECRP21ieTZmDnWEn3FgqFI6ZMmXKf53l8zbsdnue9OGXKlM8ZY0ZIWkUiO8cYc7fneczS2YpWrVp1gaR9SSLW+lVXV/ckBqDpDRs27CDHcRZL6kQajXrT9/2K+fPnF+2zqqJpALTW5owx32bMxcuKBl/fffEfiailLL9Rq3udkoha+pdbnVLG7H9J4ZhPGjqT0IVUiKRlhTAR++XtKKvf+qUMUABbtXDhwr2jKHpGUg/SaNRSa+05ffr0WU4U+NQ1kONsIgUk0ZAhQ97PZDK3G5PO9wx83zeSZltrizaAMAxnBUGQyinBjTHKZDILqqqqfh23bduy9O98SUzX3rReNsZ8pW3btntWV1ePHDNmzGtpDGHkyJEfVldX37ZixYpDrLXn65Olj9PSMDJ/9OjRk/goALG8Z5ouqSNJ7JS/GWPOmjJlysjbbrttLXHsFDt58uTvu67bS9IC4tgpewZBcCcxtOp9zBhSiP9uymQyzNIINLHLLrusu6SnJO1JGo1aaow5Z/78+UX9rKpoGgBXr149XtKhjLt4ueWFv2ltIRkrYGS79JB1i3916RIj3didF9aS5vg2VoPaJ6Op86NCqEJC+lMfbGirzZYJ4gD8p4ULF3bNZrPPSNqfNBq1znGcAf369XubKLDVm1XH2UwKSKqysrKp2Wx2ZVrr933/qAULFlxSjNteX19/qu/7A9K67zKZjO84zjVx3LauXbteI+kIjjBN5jfGmEGjR48+dvTo0T8cOnRoA5FInucFNTU1P6muru4bRdFRkuZLChNc8nNRFH01jjN+Amk3adKkCkkXkMQOiyTd4bru0ZMnT36OOHbrXLh8ypQpVZK+ImkdiewYY8xlkyZN6kMSLa+mpuY4SaeTRPxZa6+4/vrrO5AE0DRGjBjRIZvNLpJ0GGk0al0URQNmz55d9DP+F0UD4EcffdTdWnsj4y5e/rJyve5fsjQRtXRsWK+1Bx2VjAN5F6t9edc9kW7sFqnMKf46Iit90JCMxuF11tET+TIGJ4B/WbhwYVk2m31MUi/SaFRB0pBzzz33RaLAthhjaABEYlVUVGxyXffrjuOksv4wDBWG4Ywf/vCHbYtpuz3Pc8Iw/GEUpfOlO2OMSkpKbq2qqno3bttWV1e3v6SbOLo0ieettWdVV1efMXr06IU0fm3bmDFjXquurr5c0jH6pBEwUQcHa+0rvu9fMGbMmDx7G4iXa665pq21dgZJ7LCVxpiBU6ZM+brnecw030SmTJnyQ9d1j5H0G9LY4XPrdM/zciTRshzHGUcKRaM8n88PJQZg91VWVrYJw3ChpONIo1EFSUPmzZv3YiLOecWwkdls9lZJdHvHzITfv6nQFv93gI6NlD84GS+I75GVvtaZ2f+Sao+sNDIh+3eVH2lDkIxaniqU6aPIZYACUH19fS6bzT4q6TTSaFRkrb20b9++zxIFGuO6Lg2ASLSqqqof5nK5V9Jaf6FQ6FxaWjqxmLb5yCOPHFkoFA5J6z7L5XIrN23a9O04bpu1dqaktsLueM1ae351dfXJNTU1PyeOHVddXf1qdXX15VEUHW+M+YmkJDRNvpfJZPqOHz9+DXsYiJ+ysrKbxaoDO+oPURSdMHny5KeIoul5nvf2smXLeku6kzR2yGFhGF5NDC3nmmuu6S6piiSKh7V2bGVlJQ/dgN1QWVnplpeX32+t/RxpNCqy1n55zpw5iXlWFfsGwNWrVx8n6QrGXrz85B/L9JsPVyeilo5hXpu77J2IWq7rGqmtw/hMspGdrfZJyAyP7+XDRHwlHkha0MBzJiDtPM9z2rdvP18SS3lsh7V2fL9+/RaQBLaHGQCRgjFuHccZ4brp/F7bWqsgCK554IEHDiiG7X3sscfK8/n8bdamczI013Xluu6Yyy+/fGPctm3mzJkXGGNSuyxzE9horf3GihUrjqupqfkJcey6MWPGvDR69Ojzoyj6grW2mBu81zmOM/Cqq676gL0KxM/EiRMPttaOJYkdut6cv2HDhi/ccsst75BG87n33nv9KVOmjLfWni9pLYlsV+2ECRNo4G0hhULhKkmlJFFUDthnn336EwOwy0x5efn3JZ1PFNu9Vhw/d+7ch5NUU+xbhaIoulNFMlNhWjSEkb7xh78lopZckNe6w09ORC3Hllqd34FVWZKu1JFu6J6MmfM2hVYr/TARtbwQlOiVgJn7gTQ79dRTp4m3Sbd/52nM1H79+k0nCezgeCmQApKuqqrqt9ls9ifGmFTWXygUMsaYu4vi/mXTpu/6vl+e1rGay+VeqqysfCBu23XHHXe0sdZO42iyS6y19odBEBxcU1PjeZ7HebeJjBkz5le5XO54SddJ2lhkm5+31g4eNWrUy+xJILb3Sd+VxBeRjfONMcOmTp16+bRp03ixrIVMnTr1J67rfl7Se6TRqDJjzG3E0PxGjBiRNcZ8lSSKTxRFNLoDu2jYsGG3S2Ip7e2w1k6dO3du4p5VxbqxbtWqVRdL+jzDL15mvPyO3l2fjHumtqWlCkqLf+YuI2lC90iG4ZkKA8utTi5LRrPnB/koEUuJS9KPGtqJTyGQTosWLbrFWjuGJLZzvWLMfeeee+4kksAOjhcZYyKSQBpks9ka13X9tNbv+36/+vr6c+K8jfX19YcEQTA8rfsok8lI0mhjTOxu3nK53DhJ+3Ek2WlLjTGDa2pqvjJu3LhlxNH0Ro4c6VdXV3/HWnuYpPlFstlW0ldramp+wR4E4mnixIlflDSYJBq1wRhTMXny5LlE0fI8z3vZdd1TJP2ZNLbNGHNRbW3tF0iiebVp0+YiSXuTRFE6a+zYsUcTA7Bzhg8fPlESS81v/zx839y5cxP5rCq2DYDvvfdeG2vttxh+8fLhprymv5yM2dLb5TdozeEnJaKWCzpYnVjG+EyTm3tYuQnoNfOt1Uf5ZDzb/yBy9QufmeSBtFm0aNFoSTeRxHY9kcvlhsaxcQAAWtuQIUPeLykpud1x0rn4QRiGCoLg+88991wmrtsYRdH8MAxTuzpFLpdbcNFFF/0mbts1ffr0bpKu5yiyU6wx5ntt2rTpOXr06IXE0fxqamqWVldXX+44zkBJH8V6cFh7Q3V19Xz2GhBPnuc5kr5LEo1aJunMyZMnLyaKVh2rS7fMBPgkaWybMebbEjMKNPO1TQ0pFPVnZDQpADtu+PDhI621U0hiu57Yd999h+qTF+ASJ7ZfXpaVlV0naX/GX7x84w9vaVOQjCU7nR77yiZgdek2jnRNN56lp83hJVaVCVnyeZkfKh8lo5aHG9pqg+WeHUiLxYsXf1kSy9lu3/PGmIt69+4dEAV2VFqXQ0V6WWunZLPZFWmtPwiC/VeuXDkyjtv20EMPVRQKhVPSum+y2awv6ZqYnis8SR04guywFZIGjR49+qrhw4evJ46WNWrUqCeiKDpaUlwbL2fV1NR8mz0FxFcYhpcaY44liW1603Xd06ZMmfJHomh9nudtWLZs2XmS6kljm/eAJ02aNOk8kmge48aNO9UYcxJJFPVn5LLRo0d3IQlg+4YPH36etXYmSWzX877vX+R5XmKfVcWy+2nFihV7S7qW8Rcvf1i+Vg+/9VEiaumUX691+/VMRC2ju0TaM0MDYBpd282qPAFzUFgrvd+QjMbijdbosXxbBieQAosXLx5orZ0rySGNRr1ljKno06fPRqIAgG2rqqranMlkvp7WWQCjKFI+n//2o48+Gqsv9+vr63O+7/8gitK5IrnjOHJd99aqqqp347Ztd99992eMMV/l6LHDnrPWHlNdXf1Tomg9Y8aM+Xj06NGDJY2V1BCX7TLG/KR79+7MsALE2IgRI7KSbiaJbXrVdd0zPM/7O1HEx7333uu/8cYbX5I0jzS2zlo7pbKy0iWJZsl2DCkUvTaZTOZKYgAaN3To0C9aax+UxPmkcW/5vl8xf/78RD+rius3y9+WRAdFjETW6qbfLUnEPJhuFGrzIcckYr/slbEa3onmv7Tq4lrVdE3Gg6g1QaR1QTJqebZQqvdDrrGSwjAFFbbiqaeeOsNa+5CkLGk0amkYhmf36dNnOVEAwPZdeOGF87PZ7Ktprd/3/bJCofCtOG1TGIY3hmHYPa37JJvNrigUCrGcEcxa+w2uxXYsKklTV6xYcXZNTc1S4ojFPaatrq6e7jjOyZLicMz/bT6f/1JVVVXI3gHiq0ePHsMlHUQSW7XEdd2zPc/ju4cYWrBgQThlypRhkr5HGlt1RK9evS4lhqZVXV29l6QhJJEINVua4AFsxRVXXHGiMeYnkkpIo1FLoyg6Z/78+Ym/XoxdA+DKlStPNcZcwhiMlwff/Eh/+nhdImrpYAM1dOqRiFpqe1i1Yd6hVBvayerAXDKaQN/Lh4loMo5k9KN8OYMTSKgnnnjiKGPM45LKSKNR6xzHGTBgwIB3iAK7gv5rpHTcW2PMla6b3pdJgiAYXl9ff1QctuXRRx/tHobhTdam86U713XlOM6Yyy+/PHZvRtfV1R1hra3kqLFdG4wxF1ZXV9d6nhcRR7yMGjXq5UKhcKIx5r5WPO+8mc1mB1199dWb2SNAfHmeVyppAkls1TtRFJ3red5HRBFrdsqUKaMk/YAothKOtd+oqamhcaMJOY4zSrwslBR7l5WVDSYG4NOuuOKKQx3HWSiJh9KNWxdF0YB58+a9nYpzYMwuchxJd0riaU+MbPRDTX3hrUTUUlJo0NojTk5ELSeWSX3Lmf0v7bJGmtA9GeOgIbRaUUjGC+evBlm9GOQYoEDCPPvsswe5rrtYUifSaFRB0pBzzz33RaIAgJ1z8cUX/y6bzf4krfUHQWDCMIzFg8F8Pv/9IEjvRX02m325qqrqwZhu3iTFd1WTuPi767qnjh49+lGiiK+rr75686hRoy7XJ409Lf3lzvIwDPuNHDlyBXsCiLcwDL8maR+S+JR3oij6wi233MKLh8XBvvHGG1+TtIAoPmX/Dh06XEEMTaOmpqbEGMOysQkSRRHLOQP/5fLLL9/bcZxnJPUgjUYVJA2ZN2/ei2kpOFZflq1cufJySScxDuPljpfe1rLNhUTU0qa8XGGuTfF/cI00qXtIpywkSWe3s/pC22Q0AX6QjxQkpK/1/oZ28unRBRLjySef7BYEwVOS9iSNRkXW2kv79u37LFFgdzADINIsm83WZDIZP631+75/0kMPPXRea25DfX39Cb7vD0rrPtgy+99XjTGxu6Opq6s7QtKFHCka9YcgCE676qqrXiGKorjmsdXV1d/cMqvlphb6tZslnTdmzJi/sQeAePM8Lyfp6yTxKR9aa8+i+a+4LFiwIFy2bNmXJT1FGp+6HrimsrLSJYkmuZf5smiISdrn43Pjx4//LEkAnxgxYkTXTCbzjKT9SaNRkTHm0jlz5qTqWVVsGgCXL1/ezhhzC+MwXt5et1n3vPJuImopb1ivNYedkIhaLu4Q6ahSxif+T22PSJkE1BFaqw/zyZgFcHnk6lmfFUKBJHjyySfbO46zWNJhpNE4a+34fv368TY3AOyGIUOGvJ/L5b6d1kbYKIoUhuH35s6d2yp3vdZaEwTB/VGU3hVTM5lMfVVV1fNx3DZjzM1i9r/Gxu8Tmzdv7j1u3LhlpFFcampqHnEc5/OSPmjmXxVKqqqurv4tqQPxF4bhpWL2v/+2SdL5U6dOpYm5CN17771+Pp+/SNJLpPEfDunZs+cQYmgSzBaXzPucalIApFGjRrULguAJSb1IY/vng9mzZ6fuWVVsvjBzHGeCpL0Yh/FS+/ybyofF/6W3kWT3PkhKwAOUdo40vivTiuG/7g5z0mWdkzEuPi6E2hwmo5af5Mu0JuLZFFDM6uvr2ziOs1DScaSxnestY6b269dvOkkAQJO4JZPJrExr8b7v92jbtu11rfG7FyxYMMz3/c+kNftsNuu7rnttHLdt+vTpB1trL+DwsE3zV65ced611167kSiK06hRo/5orT3JGPPnZrxmH11dXf1T0gbiz/M8R8z+999CY8yXpkyZ8nuiKF7f/va317uu21/S+6TxH26SWPhrd9TU1HzBWnsMSSSPtfbisWPHMrMjUq2ysjLX0NDwsFhRdUeOGVPnzJkzM421x6IrYc2aNQcaY8YxFOPlVx+u1pPvfJyIWjoW1mvD3ockopbx3ay6ZRif+LRxXSJ1TsDYsJLeawgSsU8arNGj+bYMTqBI1dfXu+3bt79P0udJo3HGmPvOPffcSSQBAE2jqqpqczabHe846XyZxFor3/cnPPDAAy36omh9fX27QqEwzdp0vnRnjJHrurdWVVW9G9PtGyeJpdG2bs6KFSuu8DwvIIriVlNTszSTyfSW9Ntm+AzdMnr06FmkDBSHKIrOl3Q4SfzHNWLN5MmTHyOJ4ud53lJJF0hqII1/OWbSpElnE8OucxxnLCkkVom1dgQxIMXnTae8vHy+pD6ksd373vvmzp2b2mdVsfgmOQzD2yWxoGmMhNbqpt8tSUQtbhRo42c+m4haDshJl3WMGKDYqg6uNL5LMsbH+tBqTZCMWn7ll+ofYZYBChQZa61p3779vfrky0g07olcLjfUGMMUxQDQhCorK+/LZrMvp7V+3/dzjuO06MyyURTdHoZheVozz2azK9u2bXtbHLft7rvv7mSMuYIjw1avW7+/YsWKr3qexxdGCTFy5Mi1mzdvPkfSz5twnDwwatSoWtIFiso4IvgP906dOvUeYkiOKVOm/MEYQ0PPf56vryOFXTN69Oj9JQ0iieQyxlzleV6OJJDG4f/uu+/eI6mKKLbriX333XeoPplvKJVavQHw448/7i0erMbOvDc+0GurNiSilg7GqlDeORG13Nw9Uo4JwNGIL3W06lmSjHPa+5vDRJydI0n3NbQVXTFAcVm8ePF3JA0jie163hhzUe/evZltBgCamDHGGmNGum56JzwrFApD6uvrz2iJ3/XII48cVCgUvprW2f8cx1E2m62uqKjYFMv7qigaIakdR4ZPube6unokzX/Jc+21127MZrMVxphnm+DH/WzlypVX8MIOUDw8zzvWWnsGSfzruvh3a9asGUMSyTN58uT5xphpJPEvZ3uedyQx7LxsNlstZgtPuj3XrFlTSQxIm2HDhk2VRMP89j3v+/5FaV8ZoVUbAK21ruM4XNjFzJq8r9v+9I9E1NKmsElrDj8lEbWc0daqdzu+p0PjXCPd3CMZ4yRvrZYVwkTU8laY1fNBCQMUKBKLFi26SdLXSWK73jTGVPTp02cjUbT4fVTiazSGt14ASbr44ot/l8vlfpzWz0QYhoqi6Aee5zX791eFQuHBKIqctI61XC738oUXXvhQHLdt1qxZWUk1HBE+da5c0L1791E0dSXXyJEjN5WVlVVIenI3fszLURRd4HlegUSB4hEEQTUp/MtHjuMMmTFjRp4okslxnOsk/ZIkPrHlxRfshBEjRpRZa3mROwWsteNJAWkyfPjwakk3kcR2veX7fsX8+fNT/6yqVb/YXL169VclHcN4jJdv/envWtmQjO+Ech27KMoW/2zAGSNN6s7L3Ngxp5ZZ9SlPxvf/H+VD+Qlpcnhgc1vlRTMDEHeLFy/+iqSpJLFdS8MwPKdPnz7LiQLNIa0zcAFbY4ypcV3XT2v9hULhM7169bqiOX/Hgw8+OLBQKJyY1owzmYwcx/lqXBvJfN8fKGlvjgb/4ZmPP/740qqqqpAokm3o0KENK1asOF/Swl346++5rtt/zJgx60gSKB433HBDJ2PMJSQhSYqMMZd7nreUKJLL87wgiqIvS1pBGpK19orrrruunCR2XGlp6eWSOpNEKpxQU1NzCjEgDYYNG/Zla+1dJLFdS6MoOmf+/Pk8q1IrNgCuXr26YxRFk9kF8bJkzUbNeyMZ91LtN6/T2kOOTUQtl3eMdBiTh2EnTOgeqSQBvWahlT5oSEbz62rr6sl8GwZnsY3BMKRrM0UWLVo02Fr7A4lu3e1YJ6n/gAED3iGK1pGGmcCYARD4P1VVVR9ks9nb0/q5iKJIYRhOq6+v79AcP/+5557LBEEwN62Nx8YYlZSU1FdVVT0f481kFpT/9Ho2m61kRrf08Dyv0LZt2ypjzK925prdcZyBV1111QckCBSXTCYzTFIZSUiSbp88efIzxJB8t9xyywfW2qGSeBtQKi8tLb2YGHbqnmYUKaSH4zhjSQFJN3To0IGS5qmVJ3QrAuuiKBowb968t4liyzGytX5xFEWTjDHd2AXxMuH3b8qPir/Zxlir8IBeidgnHV2ppiv3PNg5+2WlYZ2S0Ti3Mgi1MUzGZ+CJfJlWRFyrAXG0aNGi3pIelJQhjUYVrLUX9O3b9yWiAIAWvMc1Zkomk1mZ1vp9329vrfWa42d/9NFHk4Mg6JrWbDOZjB8EwTVx3b6ZM2fuK+kcjgL/d4scRVHFyJEj1xJFugwdOrQhk8lUSHpxRw6bURQNGTVq1MskBxTldd9QUpAk/WHZsmUTiSE9pk6d+lNjTB1JSNbaq0hhx9TU1Jwr6SiSSJULa2pq9iEGJNWwYcNONcbwrGr7CpKGzJs370Wi+D+t0oWwfPnyQySNJv54WfTuCv38/WQ8T+jkb9LGHvslopZru1l1chmf2HnVXa16JOHSwErvNQSJ2Ce+jBbk2zE4gZh5+umnPyvpMUmlpNGoyBjz5X79+v2MKACgZVVVVW0uKSkZ5zjpfJnEWqsgCGoefPDBw5ry5z766KNdfN+/Jq3jyhijTCbzzUsuueS92F58RNFXJfGtyD9vKaULxowZ8zeiSKeRI0eudV13oKR3Gj9k2ivGjBnzLIkBxWfChAknSTqCJJR3XfeKe++91yeKdHEc5wZJS0hCx3medzQx7NCYGUMKqZMxxnyNGJBEV1xxxVGSnpDUljQaFRljLp0zZw73vf99XmyNX+q67l2ScsQfH4Uw0qTfv5mIWrKhr/W9TkxELYeVSBd1iBig2CVtHenabskYPxtDq1V+Mmr5vV+ivwZZBigQE08//fShURT9VFI5aTTOWju+T58+D5MEWmi8EQLwX4YMGXJ/NptN7WxOvu+7kr7XlD9z8+bNC6IoSu3FeTabXVlWVvbtuG5ffX29yyxI/8cYc2N1dfX/kES6XXXVVR9Ya/tK2tZb3DfW1NT8iKSA4uQ4Due9T0zyPO81Ykgfz/M2SbpCUpj2LMIwvIwR0bjx48cfIqkfSaTy3mjk+PHj25AEkuQrX/nKwY7jLJbUiTS2ewy4evbs2QtIYiv3Ey39C1esWHG2pP5EHy/fe/U9/W3dpkTUUp515bftkIhaaruHyhjGJ3bdkA5Wx5Qm4wH6+/lQUQJKsZLuz7cTrb1A61u4cOHeURQ9I6kHaWzX5H79+k0nBrTgTTwhAJ/+XFjXdYdlMpnUdsgWCoXeCxYsaJIHPA888MDJvu/3TmuWjuMom81WV1RUxPbLoOXLl58piaWdPvHkqFGj7iAGSFJNTc0bxph+kjb813+aVV1dfRsJAcXJ87xSSReThP7gui7nvBSbMmXKb40xfAclfbmyspKZsBthra1WK012FAOBpDclbUpp/V2ttZfwKUBSXHbZZd1d131S0p6k0ThjzC2zZ8++iyS2rkVPitbajDHmTmKPlxUNvqa99HYiainLb9TqXicnopa+5VafY3JX7O5JUJLXwyoJj9D9yOqjQjJe/HsnzOg3Pi8nAa3p2Wef7ZLNZp+WtD9pbNcP+vbtezMxxEcaZsdjBkBg66qqqv6Yy+V+nNYm2SiKFATB92fNmrXbs/YFQfDjNI+lXC73lwsvvPChmG8mTRCfeE/S5cYYTo74l9GjR/9B0hckPWOtfcVaO7F79+6jSQYoXkEQ9JfUMe0xuK57ped5ASMi3RzHmSTp/ZTHsGevXr3OZjRs3XXXXVdurU3rrKkvRFF04F133XVYFEV7WmvTumILyz8jEUaMGNEhl8stlnQYaTTOGHPf7Nmza0mikWuolvxlq1atqpZ0BLHHy+Q/vKV1hWTcT2W79JB1M8Vfh5Gu78b8YGgax7WxGtw+Gc8JlhVCFaJk1FLfUKbNqX05DWhdCxcuLAuC4HFJh5PGdv20pKTkKmIAgFgZk8lk/LQWXygU9u7YsePVu/Mz7r//fi8Mw9S+VZ3NZq3jOFfGuaHM87ycpAv4uEvGmBHV1dUrSQL/rbq6+k/V1dXn1tTUHFVTU3NLVVVVSCpAUasiAt3ted7LxADP8zYYY65Oew7W2ksZDVuXz+eHSmqfxmHhOM4VM2bMeF+SZsyYsS4IgqGSVqTw83FMTU3NF/g0oJhVVla2CcNwobX2WNLYrif23XffofpksT1sQ4t1Hqxdu7azpIlEHi8vr1yvB978MBG1dGxYr7UHHZWIWr7aOdKBOcYnms4N3SKVJaDXLLKfLAWcBOuso8cbmAUQaGn19fW5bDb7iKTTSGO7fm+Mubh37968eR8zLI8LpFtVVdUHuVzuO2k9FlhrVSgUvlFfX99tV/7+3LlzOwZBcFOazyHZbLa+qqrq+ThvZ5cuXfpK6swnXj8YPXr0ImIAgGTzPK/MGDMw5TEsc12X1QfwL5MnT14g6emUxzCopqamhNHwqWOmI6k6peUvnjZt2qv//i/uvvvuDZJ+kMYwHMdhFkAUrREjRmTLy8sXWGs/Rxrb9Qff9y9ilugdOC621C/yfX+qpC5EHi8TfvemogQsr+XYSPmDkzG5ZFdXGtWFxmU0rT2y0tc6J2NWydV+pPVBMmp5ulCmjyKXAQq0EM/znPbt28+X1Jc0tus1Sf379OmzkSgAIH6stVMzmUxqZwQLw7AkDMMZu/J3M5nMQmttNq3ZZTKZQhiGsZ9NxRhzEZ90fZDNZq8hBgBIviiKBkhqm+YMjDE3ep63htGA/3K1pDTPcNu+Q4cOZzEM/tPq1av7Szo0peXfubV/6ThOnaQ0rhQwuLq6+kA+FSjGS58gCO6VNIAotust3/cHzp8/n2dVO6BFGgBXrlx5uDHmq8QdL4/+fZn+96PViailY5jX5i57J6KWG3tYtWNVUDSDEZ2t9knIY673G8JEzO8bSHoo347BCbSQU089dZpYUmdHLA3DsH/fvn1XEQUAxFNVVdXmXC431nHSe/MYBEHVww8//Nmd+Tvz5s07NwzDM9KamTFGmUzmm5dccsnSOG/nrFmzspL680nX1SNHjlxLDACQfNbaC1Ne/yuvv/76DxkJ+G9Tpkx51Vo7L+UxXMBI+JRUzvpmrV3SqVOnZ7b236ZNm/aBtfaxFMbiZjKZUXwkUGyGDRt2u6QrSGK7lkZRdM78+fOXE8WOaalviqdJyhB3fDSEkSb/4a1E1JIL8lp3+MmJqOXIUqvzyyMGKJpFqfPJUsBJsCmyWukno5Y/+zm9WOAUCTS3RYsWTbXWsiTA9q2V1H/AgAHvEAUAxNuFF174o1wu91Ja6w/D0BQKhfnW2h1aC/m5557LGGMeTPOYyWazK8rKyr4T9+30ff9MSR3TvK+MMb8aPXr0Ao50AJB8I0aMyErqk+YMHMe5acGCBSGjAVuTyWQmSUrtrD/GmMGe5/EAYYuamprDJZ2d0mPlnZ7nRY2MlRlpzMVae+U111zTlk8HisXQoUMn6ZMZbtG4dVEUDZg3b97bRLET54rm/gUrVqw4X9K5RB0vd730tt7b0JCIWtqWliooLf7zupF0c/dIjmF8ovkMbG91clkylpj+oCFQEuYB3NcU5K1uo1B8+GN8eEaRe+qpp8ZImkAS2+UbYy7o27fvS0QBAEVwkWKMlTQsk8nYtGbg+37PBQsWXLojf/a9996721rbKa1ZOY4j13VHV1RUbCqGW9eUf7wDa+1VWz7jAICE6969++ckdUjxNe3/Tp48eSEjAdvied5SY0xdiiPoGobh6YyEf93X1Cid39mvKRQK8xv7A3fdddf/SPpjCrPpWCgULuPTgWIwbNiwrxljvkES21VwHOfCefPmvUgUO3mebM4fbq3NGWNuI+Z4Wboxr7q/vJuIWto1bNCaw09KRC2D21udWMb4RPO7uYeVm4Dbo8BKH+aLexbAMhPpVxut3vIdPbIhy+AEmsGiRYu+ZIyZRhLbv3Q3xny1T58+PyeKIthZ1lIjAEnSxRdf/KdsNvuoMel8Z8Faq0KhULdw4cJG76Z/9KMfnWqtvTLNYyWXy71UVVVVLDPKVaT8PD+3urr6VY5wAJAOxpgBaa4/iqKbGQXYHsdx7pC0KcUR9GcUSOPGjesoKZWNXsaYH9x9990bduDP3Z3S4TFeTOaAmBs2bNj5kupIYvuXh8aYS3/wgx88QxS7cM3UnD989erVV0s6lJjj5ebn39SmIBmzqTt77CPbYitZN59SR7quOw850TIOL7Gq6pCM8bY8H6khKt5a2oWBVgSf3JPcta5UayPuT4CmtHjx4nMkzZUScLHQ/K7t06fP/yMGxAUNgMCOM8aMdV3XT2v9QRC037BhwzZfPp07d25H3/cX7uhSwUmUzWZtJpO5shhmlLv77ruPlnRgij/SDY7jTOHIBgCpkuaZb/88derUnzEEsD2e5y2XdG+KIziHUSBZa78qKY1LvYZBEOxQY18YhvdLWp62gIwxh9XU1PA5QWwNHTr0i5IekOSSxnY/z1fPnj17AUnsmmZ7GLps2bIe1tobiThe/vD/2bvz8Cqq8w/g3zMz996E7AsgIiCuKK21FsWl2lIXAu5KgmslAUHIAlhaqwKdEnCrlSUJKpWQugv111qrBJfa1n1f6r5UkX1LQsh2l5n394e2iuzJTTJ3zvfzPD5PCyH3vt/z3lnunDmzcSv+/J8Nvqglq23/U/zoAACAAElEQVQbGvsf4YtaJmW72N/iRU7qOtN6CtJ9MB1GIFjVlpgTmnsqB081fXMNcqurcGdjiM1JFCePP/748SLyZwBBprFHVXl5eb9nDEREiamgoGBNIBC4SddVAAEgGo1OeuCBBw7c2d8ZhlErIjm6ZqOUgmmaS0eNGvVaIrxf13WHa/6RvqO4uHgVt2xERHqwbfsgAIfpWr+IzAbACyO0V0zT/B2AsKblH33dddf11nn88/PzTQATNS3/r5WVlZ/vzQ9WVFSERWSxjiEZhlHGLSV5UWFh4VCl1CMAeBF4z8eGNy5evHg+k+jAtrCzfrFlWTcCSGfE3uGK4NoXP/bF2ZTpOmg99GhfjEsfS3BlNs9xqWvlmILSXNcXtTTGXGyNJV4tDdEYot/ZIt/fFMIXMd78QdRRK1as+J5hGI9BzztC9/WE6sGXXnqJX46QF3uTIRDtA6XUjYFAYIuu9buua4jIfd/+s6VLl2bfe++974nIUJ17w7KsiIhcnUC9PEzj4QoHAoFbuEUjItLqGEbn/d5HlmX9hV1Ae8u27bUAHtL1lM80Ta1XN+vbt++50HSlcNd192kyjGmaVQB0fErAyMmTJx/OrSV5yZVXXnmYUuqvAFKZxh52dErdu2TJkuuZRMd0ygTA+vr6HwK4gvF6ywOfrMObmxt9UUuGRNGW1csXtVzfS5DMBxNSNyjMFhwU9MfF9VVtTkJNbu6nonipZccVWmIAbmngDSBEHfHUU08dJCJPAMhmGrsnIn8XkTG2bbtMI+FOhhkCEW2noKCgNRgMlhqGvieX0Wj0xKVLl54DAEuXLj0uFot9EovFjtS5LwzDgGVZN1x88cVrE+H92rZtichJGh+b3T1hwoR13KIREelD8wmAC/l9BO0r0zS1XRVIRM7QfPh1vYH53YqKin/tyz+YO3fuGhF5RMOsFIBJ3FKSV4wbN+6AWCz2JIBeTGMPH16lHu/Xr18huDJ0h8X9m2ERUV/PROeUJg9pijqY89pnvqglFG3F1sHH+6KWHyULzkzndoy6h4WvJqD6QdgVbIy4CZP7v9t2/V7/1RbAs20WG5SoHR5//PGesVjscQB9mMYevR6JRM4bOXJkmFEQEfnDhRde+KBlWf/WtX4RQTgc/tMDDzywLBwOvxiJRLS/GcCyrI1KqYRZUS47O3sI9H2aiBiGMZdbMiIivSilfqpp6U2RSOSP7ADaV7Ztv6GUek7T7cXPdB33srKy74nIKZqe596GdkyIUUpVaNouhddcc00Gt5bU3caPH5/ruu6TSqn+TGOPXg2FQqNt244xio6L+yS9+vr6iwCczGi95fdvfY4NrRFf1JKckgYnmJz4Hz4F/Ka3C67fQt3p1FTBT1P8MQlwXdhB1PV+LfshjM/Cu//k39KQBB7lEO2bxx9/PN0wjFoAXOZ/D0TkP47jnHXuueduYxrk4T5lCET7SCklhmGMsSxL2w+Q4ziBcDg8ynEc7W9KNU0TgUCgpKCgoDVR3rNhGDqvgvRYcXHxB9ySERHpY/r06YcD6Ktp+ffffPPNW9kF1M7vC27XtPS+119/fT9Nz3WvBrS8nLqpsbHxgfb8w/nz5/8LwOsaZpbW2to6hltK6k5FRUVpsVisFsAgprFHn0aj0bMWLlzYxCjiI65fiK5atSpZRG5krN7yRWMr7nxvlT/22m3b0HD4EF/UMjpDcFQS+5O634zeAj+sN+eIYF3E8fY2TLl4pmnP56mfx0w82MRHARPtraVLlyYbhvEogGOYxh5tcl13xJlnnrmeUSQuXSbHua7Le2WI9tFFF130RjAY/BOTIMuy3hk1alSi9cJPNN63/4FdS0SkF8Mwfqxx+YvYAdReTU1NfwbQoOl24yTdav7FL36RC+BiTdv9zpqamrb2/mOl1EIdQ1NKldi2zSdVUrfIz88PAvgTgB8xjT1a57ru6ffcc89GRhHHY4V4/rIePXpcA2AAY/WW6S9/jLDjJnwdCoD0PQhQiX8dMMUQXJ3rsjnJEw4OCn6e7Y+JBJuiLlo8vL0LOhE07uXbW9gYQr3DeQ9Ee7J06VIzPT39XgCnMI092qaUGnHmmWd+zCgoIY7/lQoyBaJ9F4vFSoPBIB/xrrFAICBKqXFKqYQ50RMRBeA4HcdLRNZt2bLlcXYuEZF22//jNS39g/Ly8tfZAdRec+fObVVKPaRp+dpNAHQcZwIAHZdTibque2cHs7sPgI4Taw6pr68fya0ldbX8/HwzLS3tXgBnMI09alRKnVlTU/MFo4ivuE0A3LJlywEApjFSb3l2XT2Wf7nZF7VkhZvQ1PcQX9QyOVfQ02J/kod6MsdFth96UoBVbd5cBbC3EcNTLXu/2210Faq2cZlQot1+5EVUenr6IgAXMI09iopI/vDhw/klOyUMx3GSmQLRvrvkkks2WJZ1s1K8mURHSilYlvXgRRdd9Goive+qqqpDAWTpOGaGYVTbth1j9xIRaedYTeu+m0NPHSUiSzQtXasJgLZtWyJylaZjvayiomJ1R35BRUVFWEQWa5pfGbeU1MVUenr6HQDyGcUeRQzDGLV48eI3GUX8xXMFwFsApDBS73BEcN1L/ljgxXKiaBrkj5VSBwSBMVnCBiVPyTDhm1UpmxxBfdR7tWwIu3D38W0tbQrg46jJBu3OI3ZeOfe02traWwAUMYk9EqXUlSNGjFjBKCihGleEEwCJ2qm5ufnGQCCwmUnox7KsiGVZv0jA4+7jNR62+9i5RER6mTZtWgqA72lYuuu6Lvd71GHl5eWvAPhCw9K/P3XqVG2+K6mrqxsF4ABN23xBPH6JaZpVAKIa5nf61KlTv8+tJXWVsWPH3iQi45jEno8FlVKX3XXXXU8yis4RlwmAW7ZsOQHARYzTW2o+XIP365p8UUu6IYikZfuilhm9XAQ5nYQ86OIMwaCQPyanrg7H4HqolP4qitdb23EUBIWbG7gKINHOLF++/FqlFFef3gsiMm348OF/ZBKUcN8GuC4nABK1U2FhYVsgECg1DINhaMQwDFiWNfvCCy9cl4DHK8dpOmxvFRcXf8DuJSLSS3Jy8hAA2t31q5R6ac6cOavYARSPw0el1MMa1m316NFDm0lNSqnJmvb3S/Pnz385Hr9o7ty5a0TkER1DdF13EjeV1BWKiopKReRXTGKv/GLx4sXLGEPn6fA3wSJiAJgHgFOaPKQhHMXNb3zuj5PhSAsaBp/oi1pOShGclsrV/8ibTAX8prc/+jPiAhsi3ngUcADAay3tX5Hw5bCFv7fymeGkrdAzzzyT+t0/rK2tHaeUmsN49srvR4wYcRtjoETEFQCJOiY/P//BYDD4FpPQRyAQ2NDS0vK7BH37uj4GcSk7l4hIS0N1LNp13b9y6CleRETHCYAwDONoHeosKyv7EYDjNe3t+fH8fUqpCk03Ez8vLi7O4daS4iQ4adKkHa5VFRUVjQEwn/HslZuqq6vnMYZOPk7o6C+oq6u7AsBxjNJjn543/oMtbRF/bE2zcuBagYSvw1LAzF4um5M87YQegrw0f0wCXB9xEPFAKb0Qxqpox+bI39KQ7IlaiLqBCofDZd/+gxUrVowCcAd488keich9w4cP/yWToETFFQCJ4nAeallFlmXxSFIDhmHANM2SwsLCtkR770uXLjUBaPl4Jsdx/sTuJSLS0g81PTZ9hENP8VJeXv4SgHW61a2UOlqTUqdq2tpr29ra4jq5df78+f8C8LqGWfawLKuIW0uK1+a3tbW19Nt/UFRUdD6AP4DXqvZIRP5YXV19HZPofB2aALhx48ZUAFx9xWM+bmhGzYdrfVFLemsjth7sj2PZy7MEh4fYn+R91/dyEfLBoYorwJq2WLe+hwzl4Ok4PIl9tWPg3iZuQEhbs5cvX/7AihUrSmtra6tF5CFo+JicdpxQPbFt27YipRQnfVDi7stdN5MpEHXMqFGj3gwEAny0hgaCweBb+fn5CbkKyrp16w4CoOOk7/9Mnjz5E3YvEZGWjtaw5o9t2/6QQ09xJCLyhIZF+377MWXKlD5KqXwdm1optXDRokXRzvi9mm4nSmzb5iO2KF6fo9lFRUX3FhYWThw7duwfACwDwP7as+WBQOBKALxW1QU6NAHQMIzrAfRhjN4y/eVPEHUTf6U5JQLnwEG+GJNMEyjL4ep/lBj6BYCx2f7o17qoiyan+2pxY1E0u/GZTXnnthA2ObyJhHQ9r1IXicgCAIWIwwrWGng9KSnpwoKCggijoEQmIoczBaKOcxynLBgMhpmEf1mWJZZlXZmoE/8Nwxis6dD9jd1LRKSfadOmpQA4VLe6lVJPcvSpE44jV2hY9vfh89WmROQqAEENxzYsInd10vcC9wHYqGGm/RsaGs7h1pLitdsBcKlSaqGIjAMXqtgbryYlJRV0xsRm2nWTtktDQ8NBSqkpjNBbar/chKdXb/FFLVmxFjT3HuCLWn6R6yKLuwBKIMU5gt4+uWdhVZvTLfcU9DFi+Gdz/OYpNbsKFY1JbE4i2i0R+Y9lWWcOGzasiWlQonMcp19tbe3srx8NSUTtdMkll2wwTfMmw+Acej9SSsGyrAdGjRr1WgKXoeUEQBGpZQcTEeknFAoNhoYXjF3X/TtHn+LNMIwnAei2+kbq9ddfv79fiystLQ0BGK/p+cF98+fP39AZv7uioiIsIos1zXUyt5ZE3eJTwzDOXrhwIa9VdaF2T+9wHOdWAJyJ4CERx8XMlz/1RS0BJ4ptg471RS2HhoCLM7miKSWWFAP4VS/BL9Ym/o1kLY5gS8xBTqDrvlczAKxsjUHivFDZX1qCKEiJ4HtBh01KRDuzyXXdEaeddtoGRkF+ICJoamq63jCM6x9++OEYgJhhGK6IuIZhuADcr1e7cvHVdP///Tm+Nf1fKeXsZFWs7X7m65/b6Z99/ed7tLN/v5ufFQDt2qEbhpGQBwJKqQYAVaeeeuqf2d3dcEzc0nJTKBSaFIlEejINf7EsKxwIBKYleBk6TgCMGYbxLDuYiEg/hmEcqGHZjmVZ/+DoU7zZtr15+vTp7yiljtZsO3IIgDV+rE0pdRGA/XTs56+fgNNpTNOscl13GoCAZtGeUlZW9qMFCxa8zq0mUZdZ57ru6dXV1bxW1cXaNQFw06ZNwwCcz/i8ZdH7q/BZY4svakmzDNSlZPiilpm9XVh8aicloAvSXdxdZ+DttsRv4DVtLjItA6bqmloOUBH8ORz/FVZcAW5qSMI9vZrBzQoRfcc2AHlnnnnmx4yC/EhELACW43w19811XYbSTkopKNU9RxKGYZz69NNP/+TUU0/9F0eiaxUWFrYtXbq0NBaLPcjPj78+z5Zlzb7wwgvXJXgdR2g4fG8WFxfzLngiIj3117Dmd2zbruPQUyedZz4vIkdrdh5wGIB/+rS2Yk1b+R8VFRVvd+YLzJ07d01ZWdkjSqlRGp47FwMo4haTqEs0KqXOrKmp+YJRdMNx0b7+AxExDcOYx+i8ZXNbFL9/yx+foR7hZtQfebwvajkjVXByD67+Rwl6QAzA7i2+mGgWFcH6cNdc6AwpwQvNnff734pYWNESYIMS0Xc2c5Kfl5f3BqMgor04p4frut3yn4hARC7gKHSPgoKCh4LBIPcVPhIMBje0tLTc6oNSDtJw+Lj6HxGRvgZqWPOLHHbqRM9rWPOhfixq8uTJPwZwrI5NrJSa30WvU6HpduKSyZMn9+bmkqjTRQzDGLV48eI3GUX32OcJgPX19eMBHMXovGX2a5+iMRLzRS2BnN4Q00r8OhRwbS+urECJ7YfJgvMy/DGJdUPUQdjt/Fqy3Ag2dPLm+NatSWgTrgFIRAC+etzouBEjRqxgFBoNuvAGE0poGYyg+1iWNS4QCHAj4gOmacIwjOLCwsK2RK6jsrIyB0C6hvvyF9jFRETa0m7iu1LqNQ47dRbHcbQ7rhKRQ31aWpmOPayUWrlmzZpHu+K15s+f/y8AOj4KNwTgSm4xiTp396SUGnfXXXc9ySi6zz5NAKyvr88UkVmMzVv+vWUb7v94nS9qyWzbhq0Hfd8XtYzLFgwMsj8p8V2T6yLFSPw6RIDVbU6nvka24eCpps6fmLfeMVCzjRuYLjr55kxL8vi2Tabl5eXdzSSIiGhvjBo16k3TNJcyicQXCATeKigo+D8fHG/ruPofLMt6nV1MRKQt7fZ9hmG8zGGnzjJnzpyVADZqVnY/vxU0derUvgDO07SNFyxbtszpqhdTSi3UNOeJtm3zwhpR57l68eLF9zCGbj7u3pcfdl33NwByGZu3XP/yJ3B8sAqIIS7CBw/2xZjkmsCkHK7+R/6wXwC4Ktsf/dwQc9EY67xaWiJRhLtoc/yHbSGscww2KJHGlFK/GzFixG1MgoiI9oXrupMDgUCYSSSuQCAglmVdqZQSH/SjjhMAG6666qqV7GQiIv3Ytm0AGKBZ2c0APuToUyd7R7N6+/rwPLUEQEDD3m1RStV05Qs6jnMf9Js0CwD7NzQ0XMjNJVGnuKm6unoeY+h+ez1zYPPmzYMAFDMyb/nL5xvw/Lp6X9SS5bShNccfx6zX9HKRxnk55CPjcwQH+OTUa1XYgSD+18n6qhieb+m6D35YFOZvDbE5ifT1wIsvvvhrxqAnLk5KRB1xySWXbLAs60bD4ElrojJN8/5Ro0b54lF6hmEM1HAI3/LD5E0iImqX/fHVYwh1On/9wLZtrpZAnd1nb2tWcq/x48f7ZrLc1KlTk6Hv41lr5s6dW9eVL1hRUREGUK1j2CJSBiKKt/uqq6uvYwzesNff9iqlboOeM+89q81x8dtXP/NFLcFYGFuPPN4XtQxOElyYzu9xyV9CCri2pz++p2lzBJsi8a3FgODjVqfLa3msJYg3wiYblEgzIvJ313UL+QU6ERG1V1pa2k2BQGA9k0g8wWAwHAgEfumj45oDNDyWe5edTESkJ8dx+mi433ufI09dQLcJgMb+++/vm+2J67qXAcjRsG/FcZyKbmkgw6gEENUw8+MnT548lJtMorh5etu2bUUAODnGKwcIe/NDdXV1IwGMYFzeUvnvlfhyW6svaklJCiGWlJLwdSgAv+nlwuCiLORDZ6YLhvbwx/57bdhFPJ8E3E9F8WGk6z/4AuCmhmS4PKwi0skHSUlJ544cOZKPbiQionYbOXJk2LKsMtPkzSSJRCkFwzDKL7zwwnU+Kms/DYfyY3YzEZGeRKS3hmW/x5GnLvhsaXd85TiOnx4DXKJp69ZWVlZ2yyPS586du0ZEHtF0e1HKrSZRXD5L70Wj0XOXLVsWYRreYezFwFkicguj8pZ1LWHMf3ulL2pJbWtCw5H+mGx/drrguB7sT/Kv3/QWmD6Y4OqIYF0kPiv29VCCfzZ13wy896Mm/tYaZHMS6XNSdcuwYcOamAQREXVUfn7+skAg8DqTSByBQGBDa2vr731WlnYTIQzD+ITdTESkJ6WUdhPfReRDjjx1tlgs9qmG25NcP9QxZcqUnwE4Sse+FZEF3dxDFTrmrpQqmDp1al8QUUfNueeee5oZg7fscQJgXV1dKYDBjMpbfvvqp2iJOf5owv0OgOz906g9K8kArunJZbjI344MCUZn+KPPN0UctDodryXFjWCL072zIn/fkIQmPgiUSBdbGQGJ8JiTiOJ0Pm4Y4yzL4kYlAZimiUAgMKmwsLDNZ6VpNxHCcRxOACQi0vdcTrtHAFuW9QVHnjrbjTfeuAVAvWZlZ/ukjjJN2/aT7OzsJ7rzDcyfP/9fAHS8KTAgIhO45STqsG2MwHt2O+tq69at2QCmMyZveW3jVvzp0/W+qCWrbRsa+x/hi1quynbRN8DrJuR/03oK0hN/zi4EwKq2WId+R0/DwVMeOLzZ4ipUb0ticxJpQCl1GVMgIqJ4KSgoeCsQCDzIJLwvEAi8mp+f/38+LK2XZkPp1NXVrWRHExFpe07fS8Oyv+TIUxd9vj7TqV7XdRN+AuCUKVMOFJGzNG3ZebZte2FZh9t1DF9ErhozZgwvqhF1TCEj8J7dTuGIRqNz4J87CPyxQwJw7Usfww/TzEzXQeuhR/tiXPoEgPHZnPxHesg2BWW5/lhubpsjaIi1v5aGcAwxeOOZyH9sCmFNTLFBifzvguXLl1/MGIiIKF4CgcCUQCAQZhLeZVmWGIYx0W913XbbbckA0jUbzk22bcfY1UREehKRnpqVvNW27QaOPHXR52uNTvUahpHlgzErA2Bq2K4N0Wj0bo/00f0Atmg4Bj3T09NHc8tJ1H5KqQvGjh17CZPw2PHBrv5iy5Ytg5VS4xiRtzz0yTq8sanRF7VkSBRtWf644e26ni56GOxP0seYbMFBQX9Mel3d6qA9UwD7G1G81OqdCXdhAW5rTGZzEulxYnX7Y489NoBJEBFRPFxwwQUbLcuarRRvJvHofh/BYPDegoIC3z2aKSUlJVPD8VzHriYi0nq/rtXEdxFZxVGnLvx8rdWs5IRewGfSpEmpAIo0bdfFCxcubPLCG5k7d24rgLs03WZM5paTqMPHegvHjBlzIJPwjt1NWZoLwGJE3tEcdVD+mj9WsA5FW7F18PG+qOWYZMFZ6Vz9j/RiAZjeyx99HxbBxoizT/8moIC3mr23CuKKlgBeC3PXTaSBDNM07126dKnJKIiIKB6UUrcEg8H1TMJ7AoFA2DTNa/xYm+M4uq3+BxHhBEAiIr1pte9TSm3kkFNXcV1Xq+MsEUnoFQCDweAVADI0bFXHMIyFHntPCwHouEr5DydPnvxjbj2JOiTDMIx78/Pzea3KI3Y6AXDz5s0XADid8XjLbW9/jvUt/ngqT3JqOpxg4q9UZSjgN71ccJ0E0tHPUgU/TfHHJMB1bQ6isve17CcRfB715if/poYkcKsUVwyTvOrHGRkZv2YMmm6YuEoXEcVZQUFBxDCMEsPg0vZe296bpjnrwgsv9OXFTMdx0jQcVk6EICLSmIjotu/bwlGnLjx21u1Gi0ReAVCJSImmrfrXuXPn/sdLb2j+/PlfAvirpvtlrgJI1HEnpaWlXccYvMHYyYYuqJS6idF4y8ptrbj9XX+slp7Wtg0Nh/3IF7WMShf8gE/cJI3N6C2+WCrWBbAmvHcr+qUpF39v9u7Eiw+jJv6vOcDmJNKAiNiPP/748UyCiIjiYfTo0Q8Hg8HXmYR3BIPB9Wlpab/3a31KKe1W/BCRenY2EZG+dHsEsFJqM0eduvA4q4Hbk8RQVlY2HMAgHfvUdd35Hu2nCk33y+dPmTLlQG5BiTpsZlFR0QmMofvtMAFwy5YtvwBwKKPx2CfmlU8QdtyEr0MBkL4HAT5YtSTFEEzr6bI5SWsHBwU/z/LH52BL1EGzs+dVAAOxCBodb698uGBrCE3C1aGINGAppe57/PHH0xmFXkSEIRBRpzAMY5xlWdzIeIBpmjBNc9LIkSPDPi4zXcPP2FZ2NxGR1rTa94kIVwAkHmd1nmCivnGllK6rrr1bUVHxLy++sXnz5v0DwDs6nnqLyFXcghJ1mAXgvksvvZTXqrr7eOjb/2fDhg29lVJ8lJjHPLeuHn/7YpMvaskKN6Gp7yG+qKU0R9DLYn8STekpyDZ9cI1QgFVtsd3+yH4qhqdbvf9YtDrXwB1bQ2xOIg0opQ4yDGM+kyAiongoKCh4y7Ks+5lE9wsEAq8WFBT82edlpuo2riKyjd1NRKS1JM3qbeaQUxceZzXoVK/rugk5AbCsrOxQAGdo2qO3AfDyxbRKTTcf46dNm5bCrShRhw0MhUKVjKF7bTeLwbKsm6Dh3bde5ojg+pc/8UUtlhNF0yB/PPq3fwAoyuaiCEQAkG4Av+jpj1qaHUFddOcrGioAa8MxuAmy4OF9zSF8ETXYoER6GLN8+fKLGAMREcVDMBi8OhAItDGJ7hMIBMQwjIl+r1NEghoObyM7nIhIa1otKSAirRxy6iqmaWp1o4VSKpig77sMO3lCoQY2NTY2PuDlN9ja2nofgDoNxyYrEolcyq0oUVxcPnbs2EsYQ/f53w5206ZNxwD4OSPxlrs/XIN3t/jjmDXdACJp2b6oZUZvF0E+XZPofy7KcHFEyB+TYleHnZ3eg9VfRfBmW+Kcl0YFuHVrEpuTSBNKqdsfe+yxAUyCiIg66oILLthomuZspXjS210sy7qvoKDgdQ1KDWg4vGF2OBGR3rt5nYo1DKOFQ05dJRaL6XaclXDH0r/61a/SoO9chDtramo8faPdokWLWpRSd+k4OF9PTOWXIERxICILx4wZcyCT6Kbj768HQRmGMQ96zrj3rK2RGG5683Nf1JIcaUHD4BN8UcuJPQSnp3L1P6JvMxUws7c/PhdRV7A24mz3Z0lK8HJz4tX3j7YAnm/js8qJNJFpmuY9S5cuNRkFERF1lGEYvwsEAuuYRNcLBAJhpdQvNekzHU9WouxyIiI92bZtQL9rcFxVmrqMiEQ0KznhVgAMh8PjoOeTCKOu696ZIJ+jKgAxDcdocFlZ2c+4JSWKiwzDMO7Nz8/ntapuYABAfX39xQBOZhzecssb/8HmVn8crwYzc+BaiX9jt6mAmb1cNifRTpzQQzAizR+TADeEHQS+tQxgtkSwJpaYN//c3JCk5dkakaZOTktL+xVj8D+uykVEna2goCASCARKDIP3iXb19j0QCNgFBQXrdahXRCwNx5inZ0RE+tJuvyciXPmWukwgENDtRouEuuj69SToYk3b808VFRWrE+GNzp8//0sAj2p6Pl7GLSlR3JyUmpp6PWPoesaqVauSReQGRuEtn2xtweIP1viilvTWRmw95Ghf1HJZpmAQn6hJtEvX9XIR8sGcBBfAF21frQKYpVw8ncBPYv9PzMTSpiCbk0gTSqnfLl++/FgmQUREHZWfn/9/wWDwJSbRdYLB4PrU1NS5Gh23aHc3uOu6nABIRKSprVu3arffExHu96gr6dZvCfWlf11d3dkADta0N+cn2La7QtNxOqu0tFTXHiWKO6XUjMLCwhOZRNcyevTocQ2AAYzCW6a/9DGibuKvNKdE4Bw4yBdjkmECk3O4+h/R7vQLAOOy/fE5WR9xkQMH0VgULZLYsxorG5PQ4HK1KCJNBJRSDzzyyCNpjIKIiOLgKsuyhDF0PtM0YRjGxJEjR2qzUo7rutpNhDC4rCYRkbYyMjIcDcvmfo+6TDgc1u3YMqEmPGq8utpr8+fPfzmR3vCCBQueAfCOjvsswzB0XaWSqDNYSql7L7300nRG0YWhf/zxx6XRaPS/WzXE+3soy7Li/ogq0zQ9/x4tq/2rub9V34KnVm/xRYP1kiiycrLQFjIgCfodpwFBNmL4kbMVmz5bi03cbhDt1pCYwuHNnb8vNw0DQOdOamuQFLyiEn8OTaOrsGgLcFWokQ26j9LT002mQAno4FAoNA/AWEbhTyKci0NEXeOiiy56+6GHHrrPcZzLuO3pXMFg8JXRo0f/RaeaDcNwdOsrHR97TEREX7FtOzpjxgytajYMI8CRp64SCoVCjqPVPNtIorzRqVOnDnZdd5iOfamUui1Bz1uqlFJ3ajhk40pLS+2KigpeTCOKj4FJSUlVAC5nFF3DAnDfxo0bSxmFl/aqwH4BYH00scsIiou6I45FTno6cqxEv9HLxNtWLgaveRdp0Vb2KNFu3LUthI/CDQlfhwGF3MOPBEL+GJfMT9/Cqy2b2aD76KijjspkCpSgilasWPHE8OHDH2IURETUEYFA4BexWGxUNBpNYhqdlrEopSbpVreIRDWsmRMAiYj0JQAcANrcbCoinABIXUm385WEOZZ2XXcyOns1B29am5mZ+XAivnHTNO9xXfcGADmajVmaYRg/B1DJTSpR3I4HLysqKqqtrq6+j2l0PuOEE04oS0tL28oovCOggMuzE39l9LS0NERDPbBmW5MvxiWmDLzUcxAblGg3vogZeDHsj+91DsrNwsaQP1YlPqZxNQ7m5D8iHU+s7njyySf7MwkiIuqICy64YGMgEPgtn1zaeSzLurugoOB1DUvXbgKgUooTIYiI9KbVvo/7PepKjuOENCs5IVYAnDhxYhaAS3TsSaXUQtu2I4n43ufOndsKoFrTzUmZbdv8AoQovqrGjRs3kDF0PgMAMjMzJ8b7EbjUMUNTgB8kJ+77T5UY6gZ+DwCw1UzC1pg/HunySfr+WJuczQYl2gkB8EBzEvzwaU+2DKzrfaAvxiUgDs7e9C4blEhPmY7j3Lt06VI+ypqIiDrqNsuy1jKG+AsGg2Gl1K81LV/HFQCT2fVERFrTat/H/R51JdM0Q5p9vhJiexIMBicASNGwJcMiclciFxCLxarw1cq1ujm0oaFhOLeqRHGV4bruPbZt86kIncwAgKFDhz6QlZX1MePwlsJcI2HXgjf69IOobybHr2qL+WJSkAB4rveREE6YJdrBi20WPon646aYvr33Q7NPvi84dcvHyI61sEGJ9HVyRkbGLxkDERF1REFBQcQ0zWKuAhhfhmHAMAy7oKBgvY71K6ViGpadzs4nItKabpPfMznk1FUcx9FtwqnnV5b7eqLHRE1b8v758+dvSOQCqqqqVgJ4VMfBE5EyblWJ4u6kL7/88nrG0Ln+981tamrqBZZlCSPxjgMCwBkZiTfRLNtw0djrwO3+LOwKNob9cZPApqQMfJh+ABuU6NtnmqLw51Z/TJjLSQri82x/PDEzM9aKU+s/YYMSaU5EylesWDGUSRARUUeMHj36L5Zlvcgk4icQCKxPT0+fq3EEOj4COI2dT0SkNa3u0lVKZXLIqauISI5mn6+w199jfX39+QD669iPruvO90mfVWi6SRk+ZcqUI7hlJYq76YWFhScyhs7zvwmAxx133Hu5ubm1jMRbLspSSEugG+xNEbQeeORO/25dxEFU/DHH9MWehyNicIVSov/6W0sAWxx/rIzZY//+cHyyyud5m/6NoBtjgxKRJSL3PfLII7zgTEREHduhWNY4y7JcJtFxhmHAsqyrRo4cGdY1A9d12zQsO4PdT0Skta06FSsi3O9Rl1FK9dKs5IYEeI+6rqL2j4qKirf9UMi8efP+DuAdHTcpIlLCLStR3FlKqQcnTpyYxSg6x3ZTy7KysgqSkpIijMU7UgzgouzEmYiSmRRAa+rOP6+OAGt9sgpgqxXC6zkHs0GJAGxxFJ5oC/iilv4ZKViV2tMXtQxs3YKjG1ezQYnovw4OhUK3MQYiIuqIgoKC9y3Lulf55IaZ7hQKhV7Jz89/ROcMRGSrbjUrpfglNxGRxpRSuu37sjnq1IVyNavX09uT0tLSHwL4sabb+vk+K2mhptuUMVOnTuV+jCj++oXD4TsZQ+fYbgLg4MGDm7Kzs3/PWLzl9HSFA0Pe/3I95MbQcNBRu/2ZzVEXzY4/VgF8O/tgNART2KCkvQebQ4hI4l8ANBXQ3Ocgf5xgQnDBxrfBy7JE9B3jVqxYMZoxEBFRRxiGMc2yrFYm0X6BQEBM07xS9xyUUg0alr0fPwFERPoSEa32fUqp/Tnq1IX91kuzeuu9/P5M05ysaR+uXLNmzaN+qqm1tfUeAHUaDmcPERnDrStRp8gvKiq6lDHE3w4Plz3xxBOvS09P38JovDVI43KU5ydypGTlwAmE9nCGC6xq88fjKB2l8GKvI9igpLUPoyZej/jjcdgDe2ZjSzDVF7Uc3/AF+rc1sEGJaMdDMZE7nnzyyf5MgoiI2qugoGBTMBi0DcNgGO1kmuYfR40a9Y7uObiuu1XDmjkBkIhI73Ny3R4B3JejTl3Ybz01K7nBq2+stLS0p4joehPygmXLljl+KmjRokUtAJZoOp5l+fn5JrewRJ3ijjFjxhzKGOJrp9/WZmZmFvJxLt4yKAk43sOLzaWJg7r+ezcZrtkR1EVdX4zLf1J7Y1VKTzYoackF8EBzyBe1pAZMrOnpj9X/Qm4UIze/zwYlol3JdBznnqVLl/KLCyIiajcRmRcIBNYyiX0XCATaDMO4lknouQKgUqoPR56ISF+GYei279vPtm3eNUJdRasVJ718M41hGBMBJGnYgy1KqRo/FhaLxSoAOLoNqIgM6NOnz1ncvBJ1ilTDMO4bP358gFHEcR+8sz887rjjHs3Ozn6X8XjLFTkKXnwSsIIC+g4E9mHS6JqwA9cfTwLGc72OhCiew5J+/tUWwKqYP3q/93590Gr64/hixOYPkO6E2aBEtDunpKen/4IxEBFRexUUFERM05xompxPvi8Mw4BlWb8pKChYzzSAurq6rRqWnb1kyZIkjj4RkbYaNKs3AKAXh526yCHcnnQ/27aDACZo2oM1c+fO9eWjcquqqlYqpf6m46Aqpcq4eSXqNMfGYrHrGUP87HLmRmpq6rmWZQkj8o5cS+HcTO/NABzUpye25e7bSu4RV7A+4o8bBepCqXg3ox8blLTSIgp/bgn6opZePUL4POsAf+wnIk04ueE/bND4ntxxSWTyq9m1tbXHMQYiImqvgoKCvwYCgeeZxN4LBALr0tLS5jOJr9i2HQHQotspRktLy0COPhGRnlzXXadbzdFo9BCOPHXBcWUSgAN0qtkwjM1efF8NDQ350Gw1xq+J4zgVPt+HVUBPP5s8efJR3NISdZoZhYWFP2EMcTo+2NVfHHvssf/Jzc39MyPylvMyFXoFvDMXIdkysS6nf7v+7YaIg4g/ngSMl3sejjaTq5OSPh5pDmCb6495UYH9B8CFP2q5cOM7sMRlgxLRXm3+ANz3yCOPpDEKIiJqL8MwxpumyQPQvWCaJkzTvGrkyJFcrnt7m3QrWCl1EIediEjbY6e1Gh4DHc6Rp87mOM7B2M01b5/WvMqL78t1XV1XS6utrKz80M8FLliw4GkA7+g4uCJSyi0tUecdIiul7pk4cWIWo4hDmLv7y759+17ao0ePNsbkHUEFXJbtnfdz0AF90WC0b+KbK8CatpgvxiVsBvBq7qFsUNLCOsfA39v8sfrfwMx0rOmR44taDm/eiCOb+SQxItonhwSDwVsZAxERtVdBQcH7gUDgj1w0ec8CgcDLBQUFf2USO1ijW8GO43AlJCIiTYnIWg1rPowjT51NKaXd8VUgEFjttfdUWlp6vFJK1yeO6LLS+0JNtzGXFhcX54CIOku/cDh8J2PouN1OABw4cGBbZmbmTMbkLSemKAxO6v73kZsSwsdpfTr0O+piLpocfywW8O/MAagLcREd8r8Hm4LwwwO8A4ZCfR9/LLxgimDUxrfZnES0z5RS42trawuYBBERtZdhGNMsy2phErtmWZZYljWeSeyUdhMhlFK8g5SISFOu667VsGyuAEidTkR0O76Kvffeexs8eG44WdP++zgrK+tJHWptbW29B0CdhsOcbFnWldzaEnWq/KKioksZQwf3xXv6gRNPPPF3GRkZGxmVt4zLNWB28w32WQcMRFR1fEXtVW0OID44wFMGnus9mM1JvvZ2xMK/o5YvajmwV080BJJ9UcspDZ+hV2QbG5SI2uuOJ598sj9jICKi9igoKKizLOs3XAVw1wKBQM2oUaPeYRI7peNEiO9z2ImItD0mWAdfXA3ZJz/gyFNnE5FjNCt53bJlyzy1TkNJScn+AC7Usf8Mw5hn27arQ62LFi1qUUpVa7qpKRk/fnwARNSZ7hgzZgxvmuzIPmlvfig9Pf1ifpHrLf2CwKlp3TcmA3My8UkoPo/hbnEEm6P+OC5a1SMHn6f2YoOSL8UEeKjZH4/+TbNMrMwd4ItaUp0whm/5gA1KRB2R5bru3bZtG4yCiIjao6GhYX4wGFzDJHYUDAbbHMe5lknsko4TAI8SEX7RSkSkIdu2IwA2aVb2gddeey0fm0idSin1I83q9dy5l2EYkwDoODmqIRKJ3KNTwdFotBLwxYPC9lXfpKSk87nFJepUqYZh3MfJth3YH+/NDw0dOvTv2dnZrzMub7kkWyHN7I6mUWjbL74TZ9aEY3DEHze+Pd97MBzF6+fkP0+1BbDe8Udv5/Y9ABHDHysZnrX5fSQ7UTYoEXWIiPzkhBNOuJpJEBFRe0yYMCFqWdZVpmkyjG9RSsGyrJmXXHLJBqaxSzpOAMxcsGBBPw49EZG2xwf/0a1m0zR/yJGnznLNNddkADhEp5pFZLWX3k9paWlIKTVO0236XQsXLmzSqeaqqqqVAB7VdLzLuNUl6nTHxmKx6xlD++z1TI6MjIxzAoGAy8i8I9UA8jO7/obhQQf0xjqzR1x/Z0yAdRF/tNfWQA+8k3UgG5R8pdFVeLTFH6v/9emRhC8y9vdFLX3bGjC04Qs2KBHFhYjcsHz58mOZBBERtUd+fv7fLMt6jkl8IxAIrEtNTV3AJHZ7/LFKx7o5EYKISF+u636iYdk/4shTZwmFQsdgH653+8SnHju2vRhAbw3bzwFQpePnTilVoekm56SysjLu04g634zCwsKfMIZ9t9cHRMccc8za3Nzc+xmZt+RlKPTvwjk5PQIWvsw6oFN+98aIgzbHH6sAvpp7KFqsJDYo+cafW0Jo9cETihQA6TsQ4pNxuWDjOzB8Uw0ReUBAKXX/M888k8ooiIioXcfbSo23LIs3jwIwTROmaU4YOXJkmGnsmoh8quln5USOPhGRtrSbAKiUOonDTp14PPkjDT9TH3psDHRdFe2tefPmfaFj4ZmZmf8AsFXTczmuAkjU+Qyl1D0TJ07MYhT7GNy+/HAkEilMSUlpYWzeGsDCnK6blHNgv35oUp3zyG0RYHU45otxiRoWXs49jA1KvvBlzMCzbf54XO7AnAysT870RS0/bFyNQ1o3s0GJKN4OiUQitzIGIiJqj4suuugDy7KqlVLaZxEIBF4ePXr0o+yK3SstLV0DoEm3ukWEEwCJiDSllNJxBcCT8/PzTY4+dRLtVggSEc9MAJw8efIpAHRd3bqHrh+6LVu2BAAENC1/9OTJk3uDiDpbv3A4fCdj2Df7NAFw2LBhsezs7F8wNm/5frLC0JTO/3K9d1oPfJTSufuzrTFBY8wfiwV8kHEANiZlskEp4T3QHIIfPpUh08Cm3gf5YkwC4uCcze+yOYmoU4jIhOXLl+czCSLqpG0Mly/2OcdxfhUIBJp1ziAQCIhhGFeyG/ZMKSXw2CPMusixCxYsCLEDiIi0pOMEwMzBgwd/n0NP8WbbtgXgFN3qjkajH3vo7ei8GtoRU6ZMuVTHwk3TvBb6ToAMAZjALTBRl8gfO3bs5Yxh7+3zkk5Dhw6946mnnrq+oaHhAMbnHYU5Cm+1CsKdOEsnte+B2NAFd/GvaovhyNQAFBJ7xQBRCs/2PhIXrHwBXPuAEtUrYQsfRf1xc2b/3j3xiU8ezX3qlo+RHeWCvF2Em3DSs/GVWvjEE088f8YZZ6xlGkQUT4ZhvM8U/O3SSy+tX7p06cxYLPZ719XvacBKKViWtaSgoODf7Ia99jGAozWrOQTgOADPcviJiPRimuYnjuMINPvOyXGcnwJ4ix1Ace6rEwCka1b2xptuuqneC2+kuLh4AIBzde5BEbmnrKxstGEYH+hww6NSygRwrIj8BHq7yrbtm2zbjnBLTNTp29mFY8eOfXHx4sWfMo09a9czHTMzM0c1Nja+pOMXuV6VawFnpSs83NA5xxaH9szGJ8GMLqmlzQU2RVz0Cib+pKP1yVn4LH1/HNLIa+eUeCIC/KnFHwsSZIYsfJ5zoD9qibXi1PpP2KBE1OmHl67r1ti2nWfbNg/6yReUUtibx5Lu7c/F8zW7usbdEZEO/47dvI/PDMO4g93ofz179lywdu3aya7r9tetdsuyWh3HuYZdsE/bjE90XBzUMIwzwAmARETasW27ccaMGSsBHKhZ6XkA5rEDKM7O0PDY2TOP/7UsqxjtnGvgryFRZ4vI2ToUy4c6/E+f+vr6AgD3MgqiTpcqIjX5+fk/WbZsmcM49rBvbs8/GjJkyMv//Oc/n9+0adNJjNA7LshU+GeTYHMszk1iKGzt3bXf2a8Nu8i2TFhG4o/L8z0H4cCmDbBcbo8osSxvDWKz448bUTP3748GZfiilnM3/htBN8YGJaKucPrQoUOnALiNUVC3nbBaViuA15RSqwE0mabZ5LouDMNoAeACaAPgGIYRNgwjBiBsGEbUMIyYUirMBD1lQ0ZGxotDhgyJMgr/GzZsWOyhhx4a6zjOkzrdPPr16n8zR48evZldsE8+1rTu4QBmcPiJiLT0FvSbAPhT27ZTbdtu4vBTHI+/T9NtQpKIvOuF9zF+/PgeAIrYhaSxKeAEQKKuclJqaur1AGYxit1r96z8lJSU87Zu3bo+EomYjNEbQgZwabbC/I3xPdg9/ID98Z6R3KW1OCJYG3HQPynx26spkIw3sw/CsZu5YhcljnrXQG1r0Be1HJDWA1+k9fZFLQNbt+CH21azQYmoyyilbnj88cefGTly5JtMg7paIBBoTUlJ6XfaaadtYRpEiWf06NFPPfjgg8+2tbWdrEvNwWBwbVpaWgVHf5+9o2ndP7rzzjtzJ0yYwAmjRET6eRPAeZrVHHJd93QAf+bwUzxcd911vUXkWA1Lf90LbyIpKennAHLYiaSxH02ZMuWEefPmvcgoiDqfUmpGUVHRk9XV1fzM7Ua7l0MaMmTI5pycnMWM0Ft+nKpwZFL8VuxKDwXweUbfbqllc8RBq+OPO3feyDkE26wkNigljKXNQYR98PEzoBDef6A/DmwguGDjO1BsTyLqWiHDMO579NFHezAK6mqmab7EyX9ECX48bhjFlqXPE6FM05w8cuRIrj66jyzLeg9freiq3UckGo2eww4gItKPiLylY92u657N0ac4HntfCMDUsO7XvPA+lFKT2IXE/bmUMQWiLmMBuPfSSy9NZxS71qHnIZ544okTU1NTuVy3hygAhbkK8XrQ5f79BqBFdc/xswBY1eaPx1zGlIGXeg5ig1JC+Cxm4pWwPy7SHZSbiU0hfxwHHL91Jfq31bNBiag7HBEIBG5lDNQN1jACosRWUFDwb8Mw6nSpt7m5+W8c9X03YcKEKID3NC0/nx1ARKQfEdFylX2l1PmlpaUhdgDFqZ9Ga1h2C4D3u/tNTJ48+XQA32cXEmFUaWnpAYyBqMscFAqF5jGGXevQPDGllJuVlTWVMXrLwCAwLK3jv6dvWgo+6pHbrbVscwQNUdcX4/JJRl+sTc5mg5KnCYD7m4Lww9qbyZaJdb0P8sW4hNwoRm5+nw1K1DmiAJYqpRYCWMU4dmni8uXLuUINdSmlFG82I/LPvlaHbRYKCwvbONztPBcVeUPT0k+97bbb+GUREZFm5syZswqAjqudZ2ZlZeWxA6ijrrvuuj4i8mPd6lZKvWXbdrevnCIipexCIgCAZRjGRMZAcRIRkftFpBLAF4xjlwrHjh3Lmyl3ocMLxQ0dOvSuzMzMzxmlt1ySbSClg6MbOGAgxAMPm1wdduCHKYAC4LneR0IUH+BJ3vVcm4XPY/5YNX///Xqj2Qz6opa8LR8iPcZriUSdoNF13VPy8vJGDx8+vDgUCh0F4GXGsnNKqbtqa2v7MAnqKqZpNjMFIkqYc34RhtCx44w3NS09EAwGz2MHEBFp6UUdi3Zd92IOPXWUaZr5QNwehpZI5xyvdPd7KCkpGaSUOotdSPQ/V44ZMyaJMVAHbVVKnbxkyZJLlyxZUmpZ1tEAXmAsu9wf3jFu3DiuvrkTcTk4Sk1NzTdNk2l6SIYJ5Ge1f6LZYb1z8UUgzRO1hF3BxrDji3HZlJSBjzK4LSJvahOF/2v2x4S5nOQAvsjq74taciNNOKX+MzYoUfxFlFKjRo4c+dJ//2DYsGENruuOArCZ8exUTwB/FBHezUBdc7JqGJwASESkCdd139S4/CvYAUREWnpWx6KVUmdfc801GRx+6mAfXa5p3a9193swTbMUAL8bJPpGz8zMzEsYA3VABMCoxYsX/2+S96JFi7bGYrEC8FrVrmS7rntffn4+J6l9R1wmAB5//PGvZ2dn/51xesuIdIX+wX0/BgsaBjb39NbEmXVhB1Gf3E3/Qu7hiBgWG5Q859GWALaKP26a69FnAByfrLZ5wcZ3YInLBiWKLwEwbvjw4U9+9y9Gjhy5WkSu+PpnaEenP/HEE1MYA3UFpVSUKRBRAm2zGELHvAlA12XPT1m4cOHhbAEiIr24rvucpqX3CAaDl7MDqL1mzJhxrIgM0bF2wzD+2Z2vP2XKlEwAP2cXEm1PRKaCE2OpnYeESqnLqqurn/ruX9x9991rvt7m8lrVzp2SlpZ2NWP4zrFCHE9WLgyFQjFG6h2mAsbk7Pu/O7RfX9QZIW9t+QCsafPHKoCtVgiv5xzMBiVP2egoPNka8EUtAzLTsCq1py9qObxlIwY3r2eDEsXf1Xl5effs6i9HjBjxOIC5jGnnROTGJ5544mgmQZ1NKeUwBSIiPZSVlYUBvKJr/SLCiRBERJoJBAKvAWjRtPxJ4EQJav9x00RNS//Etu3V3Zz9WACp7EKiHXyvtLT0FMZA7fCLxYsXL9vVX1ZXVy8Xkd8zpl2aM2bMmGMZwzfiNgFw2LBhDTk5OZWM1FuOSlYY0mPvz6OykoL4NL2PJ2vZEnXR7PhjgvPb2QejIZjCBiXPeLA5hJgPvnMxFbBtvwP9sYMWFxdsfIfN2c0Ul3Lx45jemJeXN29PP5ebm/trAC8ysZ0Kua5736OPPtqDUVAnf165BC4RJQwR3pAdhwz/qXHthbZtB9kFRET6sG07AuBVTcs/4vrrrz+JXUDt+NxkKqVGa1r+M92cvYGvJu8S0U4YhlHGFGgfvwe4sbq6et6efm7AgAHXAniBie1UwDCMP44fP57Xqv67LYrnLzvxxBOnpqenNzBWbxmTAwT2cvpCr/4HIqy8+6jsVW3+WGTSUQov9hzE5iRP+CBq4q2IPx5LfVCvXNQF/XED2in1n2G/cCMblCi+J1T3nXHGGdfvzc8OGTIkaprmRQDqmNxOHRkIBG5hDERERF/hfSNxyfBZjcvfPzc3dzS7gIhIu33fv3St3TCMUnYA7SvHccYA0PIiv1LqH935+nV1dWcDOIhdSLRL55aUlAxkDLSX7luyZMleXauybTsmIrxWtWtHOI5zK2P4+hg73r8wMzPzKn7p6S37BRTOzNjzmPTLTMPHSTmerqXZEWyJ+mMhkP+k7YdVKT3ZoNStXAAPNId8UUtqwMKqXH8cW/dwIhhe9xEblCiOlFKPJyUljVFK7fXyPKeffvqXAMYzvV2atHz58nMYA3XSZ5YhEBFpJhAIPA8gonEE00SEO0AiIo04jvOExuVfOH369EPZBbS3xo8fHwCg7QpbhmF062rZSimubka0e6ZlWVwlk/bG09u2bSsCsNfXqpYsWbJKRK7Yl3+jExGZWFRUxGtV6IQJgMcdd9xDWVlZnLXgMaMyFbKtXX+HqKAg+w9MiC3GmrADvzwL7LleR0KUwQalbvP31gBWx/zRg7379EGb6Y+VDM/e/B56OBE2KFH8vBoMBkcPGzZsn5cSzsvLexhAFSPc+SGkUuqu2traPoyCiIiIOmrChAktIvKGxhEcVVlZOYydQESkj0Ag8BKAek3LN5VSV7MLaG/17t37UgC6rq71vm3ba7vrxadOnToYAI9TifZARMZNmzYthUnQbryWlJR03rJly/b5IvCSJUv+JiK8VrVrd40fP177a1WdMuujR48eF1iWxdmnHpJkAJdm73oC4OH798JqKzH2R1FXsD7s+GJc6kKpeDejHxuUukWzC/y1NeiPk//kED7P7OuLWvq2NeD4hi/YoETx86lS6qxhw4Y1tfcXuK77CwBvMMqd6ikiNVythuKNKwASEWnrSc33f9ezBYiI9GHbdkzzfd8Y27b3YyfQnuTn55sArtX4GPGx7nx9ESkDwC9qiPYsMxKJXM4YaBfb8s8Mwzhr4cKF7b5WlZqaOg28VrUrPWOxWI3u+6tOmQB4/PHHv5+dnf04e8xbTkkFBiXt+OfJlol1OYk1CW192EHY9ccc05d7Ho42M8AGpS7355YQmlx/7AOtvgfC9cn+/IKN78DgCs5E8bJORE4fPnz4xo78kpEjR4YBjAbQyEh3euJ6xooVK/gYECIi0n1/yBDiQER0/z7xZ1VVVVxdhYhIr2OIWo3LT3Jd99fsAtqTI444ogDAYbrW7zjOX7rrtSdOnJglIpeyC4n22lRwwiztaJPjOCPuuuuuDR35JRUVFWGlFK9V7doZRUVFJToH0GnPfczJybkoKSmJzy/00okkgKJcY4c9zsB+/bBVJdYENAGwps0fqwCGzQBeyz2MDUpdaq1j4B9t/nhc7sCsNKzpke2LWn64bTUOad3MBiWKj0bXdc8cMWLEF/H4ZXl5eZ8CuJKx7tLNtbW1P2AMFLdzF06kIaIEI8KbeOKhrq7uFQAbNO+l2ewEIiJ9GIaxHND3bmARucq27f7sBNoV27YNEdF5leSNH3/88cvd9eLBYHAcAD7SlGgvKaUOKy0tPZ1J0LdsE5G8mpqaT+LxyxYvXsxrVbv3u3Hjxh2l7blFZ/3iwYMHN+Xm5t7C/vKWg4LAT9O+uZjWs0cyPklLzBXW62MuGmOuL8blncz+qAulsUGpyzzQFPTFinkBpVC/38G+GJOAODhn07tsTqL4iCilRo0cOfLNeP7SvLy8pQDuYrw7FQJw/9KlS5MZBcUDJ9IQEenJtm0XQK3mMZy4cOHCM9kNRETa7PvWK6Ve1ziCkOM4v2En0K64rjsWwGCNI/jbsmXLumVFlK8fvTyRXUi0bwzD4NNy6L+iIpK/ZMmSuD62t7q6eqlSiteqdn1sef+YMWOStNz+dOYvP/7442ekp6dzKSOPuTQL6PH1yGf0G4BoAk8CWt3m+OLWOFEGnus9mM1JXeKNsIn3ov5Y/W/Afj3REPDHXJNT6z5BdrSFDUrUca6IXDZ8+PAnO+XMIRQqBfA2Y96pI9PT03kDEBEREXWIiDym/QGt685bsGBBiN1ARKTNvm+Z5hH8fMaMGbxAQju45pprMnRfHVkp9dfueu3999//PAAD2YlE+2zk5MmTD2cMPMQDMG7JkiUrOuOXO47Da1W73ncONgxjjo61G539AtnZ2WMMw2CXeUimpXBhpsLA7Ex8GspK6FpaXcHmiD9WAVzVIwdfpPZig1KnigmwrMUf1xDSgxa+zBngi1oyYq04te5jNihRfPxixIgRnfbF+bBhw9ocxykAsI1R71TxihUrzmYMFIeTdIZARNxuaUpEVgCIah7DIUqpyewGIiI9mKa5FBo/BhiABWABO4G+KxgMzgSg84WzFsMwnuzG1+cqZkTt/IoAwCTGoL1p1dXVd3fWL6+pqWkTkUsAcHWZnZs6ZsyYkboV3ekz84YMGfJYdnb2O+wvbzkzQyG5dx9f1LI2HIPjk3Pj53oPhqM4YZY6zxNtQWxw/NFjuX37IWL4YyXDczf+G0E3xgYl6iARuSkvL29epx9HnXnmxyLCL8B2TonIXU899VRvRkEd/DwzBCIiTZWVlTUCeFr7gyqlZtx+++192RFERP5n2/YXAF7RPIafTZ8+fRS7gb71uTgEQLHmMfzFtu1umdhRVlb2PQCnsBOJ2q3wmmuuyWAMehKRW6urq2/r7NdZsmTJ++Bk7V1RhmFUjxs3TqtrVV0yCyQ5Ofk8y7J4BcdDLAWcF9vgi1piAqxtc3xRy9ZAD7yTdSAblDpFo6vwWEvQF7WkiYPP0/bzRS0Htm7BMdtWs0G9eqDEVYwTyf15eXnXddWLjRgxogbA3Yx9p3rFYrE/igiXQiIiIm1w4nJ8KaUeYApIjcViXA2JiEgfS7n/V7+fNm1aCluBAMBxnHkAQjpnICL3dePn8Wp2IVGHpLW2to5hDFp6cMCAAdd01YtVV1cvBnAPY9+p3iJyp04Fd8lV7aFDh36ek5PzMPvLW45xGvDDWIMvatkUcdHq+uPL9ldzD0WLFWKDUtwtaw6i1QcfEwUF9B3oi3U/FQQXbnwHnCFD1DEi8vfGxsZCpVSXbhqUUpMAfMAR2KnhTzzxRAljoA58vhgCEZHGkpKS/gyglftDdUFVVdXF7AgiIv9zXXcZ9H4MMAD0T05Ons1uoJkzZ54P4EzNY9hgWdYT3fHCv/jFL3IB8BiUqOPncyW2bXOVCb08k5KSMsa2bbcrXzQpKWkSgA8Z/45E5NyioqIrdam3yzY42dnZl/bo0aONLeYtYyMrYfngnFIArG7zx+Mzo4aFV3oezuakuFoZM/BCOOCLWrIswbZcfzwFaejWlejfVs8GJeqY15OSks4tKCiIdPULDx8+vFkpVQCghcOw0xOr39XW1v6ASRARkQ44cTm+xo4duw3AY0wCEJGKqqqq/ZgEAcCCBQvSKysr766srGyorKx8deHChT9iKkT+MGfOnFUA/sEkUDZjxowTGIO+rr322p4icjvPL9SDtm13y4VPx3EmAEhiNxJ12CH19fUjGYM2/u267gUVFRXhrn7hhQsXNrmuWwDeSLkrc4uKirSYgNNlEwAHDx4cyczMnMHe8pb93DbkRdb7opbGmGBrzPVFLe+nH4CNSZlsUIoLAXB/c8gXt49aImg+cLAvxiXkRnHm5vfZoEQd2b6J/MdxnLOGDRvW1F3vYfjw4e+KCB+JsYtNHYD7ly5dmswoqB2fb4ZARMR9wYNMAQCQIyJ3ighnmWpuyZIlSYZhPAbgcgAZAIa4rvsUJwES+YdSajFTgAFgiW3bnHykKcuyqgD05rGwdMvjHG3btkTkKnYiUdyUMQItfO667hk1NTUN3fUGampq/g3glxyKnUoBcH9+fn5QhwPpLnPiiSfempmZuZ795S2jo2uQKVFf1LKqzfHFJCdRCs/2PhK87Enx8FLYwidR0xe1ZPRIQrhHui9qGb75Q6THuDAuUQdsBjDyzDPP7PZjyxEjRtwpIvdxSHbqyIyMjJsYQ5yPFTWYHMeVtIiIKDU19TEAW5kEAOCchQsXTmEM+rJt22hubr4XwI+/81eZrus+sWDBAq68TeQDhmE8DKCOSeBw13X5KGANzZgx4xIA+UwCH5SXl7/eHS9cX19/IYADOAREcXP61KlTv88YfG0zgBE1NTXdfq2qurq6CsADHJKdOiYtLe03vj+f6OoXzMzMvIQXc7wlWRyMjqzxRS1hV7Ax4viilvXJWfgsfX82KHVIRID/awn5Y1uFGOoPOsoXteRGm/GThs/YoETt1yIi54wYMeIjr7yhpKSkqwB8xKHZkYiUrlix4iwmQUREPt/fMYQ4KywsbANwL5P4X4/dXFFRcRKT0FPPnj1vA3DhLv462zCMJysrKwczKaLEZtt2m1KKNxh+td+7evr06fwuQa/+3x9ABZMAANzRja/N1cqI4sx13UlMwbdaAJxTXV39kcf67XMOzU79uqioaJifC+zyCYBDhgx5Jicn51X2lrecFt2Ig5xmX9SyLuwg6vrji/fnew5CzDDZoNRuj7UEscXxx6TrUM5+cE3LF7VcsPEdWOKyQYnaxwFwyYgRI1700psaNmxYk4gUAODSnjtSIrL4scce249REBGRb3d2vNm1U4jInUzhfwJKqfsrKytzGIVeKisrrxGRyXv4sZ4i8mRlZeVhTIwosRmGcRdT+O/hlbrruuuu680o/M+2bcNxnMUAspkGmk3TvLs7Xri0tPSHAE7kEBDF3eUTJ07MYgy+EwUwqrq62lPXqmpqahpc1x0NIMIh2vFQG8DdY8eOzfZzgV0uNTX13EAgwJkPXjqTgqAoshJ++LraEWBt2B+rADYFkvFW9kFsUGqXOldhRVvAF7VkwEFD30N9UcvhLRsxuGkdG5SofUQpNT4vL+8RL765ESNGvCMi13CYdqqXaZpLRISzI+Jx7M5JJkREpInS0tJ/A3iRSfxPfwB/WbBgQYhR6KGysnIcgBv38hixD4CnFyxYcDCTI0pctm2/A+BlJgEA6G2a5j35+flcJcHnHMf5DYA8JgGIyP22bTd0x2srpUo4AkSdIiUYDI5jDH7bXMuE6urq5V58czU1Na8CuI7DtFMH+Plm026ZADhkyJB1OTk5fISHxwxytuH4WJ0vatkcc9Hi+mOO6es5h2CblcQGpX32UHMIER/Ms1ACxPod4o+drrg4f+M7bE6i9ps+fPjwai+/wREjRiwA8H8cqp3KW7FiRTFjiMu3CwyBiIh0wlUAt/djwzCYiQYqKyuLvu7/ffly5wDDMJ65/fbbD2SCRIlLKTWfKfzP6UccccQcxuBf06dPPwfAdCbxFcuyuuXxv9OmTeullLqEI0DUaUps27YYg29ct2TJkiVefoPV1dW3KaUe4VDt1KixY8de7sfCjO564Wg0OjYlJaWZveUtV4RXIgQfTJwTYFWrP1YBjCkDL/UcxOakffJJ1MBrYX8cR2YHDTRn+eOpkac0/Ad9wo1sUKL2uT0vL++GhNh3x2LjAHzBIduRUuqW2trawUyCiIiI9lYkElkKoJ5JbOeKysrKaxmDf1VUVBQC+APa9/19P8dxnrr99tv7MkmixGQYxjIAXzKJr4jIr2bOnDmaSfjP9OnTD1dK3Y1uvF7tJUqpF2zbfqM7XjsajRYD4GokRJ2nf0NDwzmMwRfHJXdWV1fflAhvNRgMFgJYyVHb6TguHDt27CF+q6vbDqiGDRsWy87OnsbW8pZcieCsyHpf1NLkCOqj/lgF8JOMvljXI5sNSnu3wwLwQHMS/LA2UEBcbBv4PV+MSw8ngjO2fMgGJWqfvzQ2NpYmyps966yz6pVSFwGIcuh2OKlKBnDv448/zsfW0Z56hSEQUULh49k7z9VXX90K4B4msYM5Xz8elnymsrLyCqXUXejYd/cHO47z9Lx583ozUaLEY9t2TEQWMIlvDrVEZLFt20cxCl/1ebpS6i8AMpjG/yzsjhctLS0NARjP+Ik6l4hMZgoJ789NTU0J85Sj22+/vd513csBxDh0O0gVkZr8/HzTT0V16x0VQ4cOvSMzM3MVe8tbLoisQa4b9kUtq8MxuD64digAnu11JIQXFGgv/LMtgC9i/rhhLj01FZGkFF/Uctbm95HiRNigCUbxSq4XxuClxsbGSwoKChJqad/hw4e/DICrsuzc0Uqp2YyB9vDZZwhElFjn7Zy43Klc170TAEP+zu4SwJ1VVVUXMwr/qKqqmgpgCeLzvf3hpmk+deedd+YyWaLEE41G7wLAR4l8I8VxnMds2z6AUSS+/Px803GcewHw8Vff+NwwjIe644VN07wYwH4cAqJOd0pZWdmPGEPCennbtm2XLlu2LKGuVdXU1DwrIjaHb6dOSktLu85PBXX7DJGMjIxRhsGVnb0kBBcXR1b7opaIC2yI+ONRwJuSMvBRBs9tafdaBXikJeiLWnpIDHUDv++LWvYLN+KErV+wQYnawXGcSQUFBa2J+N6HDx9+G4DHOIo7UkpdXVtbexqToF3hRBoiIvq2srKy9wH8jUnswBCRP1ZWVp7LKBL+2EdVVlbeICK34avJnfE67v5eNBp9cuHChVlMmSix3HzzzVuVUouZxHYOiMVij9m2nc4oEpoaNGjQIgBnM4rt3GLbdres0CQixYyfqIs2gErx85a452yTli1blpDXqgYMGHAjgKc4ijs1s7CwcKhfiun2mXfHHnvsK9nZ2c+yr7zllNhmDHK2+aKW9REHEX88CRgv5B6OiGGxQWmXHmkJYavrjxVzgr36QnwyQTx/49swxGWDEu0755VXXnk7gU/mJRqNjgGwmkO543mIUqrmqaeeymEU7eothkBExG2zdlzXvYEp7FQAwNLKysrzGUViWrp0qVlZWXknOm8F8aNd111x55138hGLRIl24mwYtwFoYxLbHXMd5TjOw7ZtB5lGYpo5c+bNAIqYxHbWmqZZ0x0vPGXKlJMADOEQEHWZSyZPntybMSQcZ8CAAW8l6pu3bds1DOMyAOs5lDuwlFL3TJo0KdUX5w9eeBPJycnnJyUl8bnTXjqJAlAUWQnlg6eruAKsCfujvVqtEN7IOZgNSju10THw91Z/TBDNUg4a+hzki1qO3rYah7RsYoMStXM3btt2Qs+ePfvssze7rpsPIMrh3J6I9I3FYncxCSIiItobZWVlLwH4O5PYqSCAZZWVlZczisSyePHitI0bN/5ZKXVlJ7/UsdFodPnixYvTmDpR4rBtezUAnjfv6DTHcR60bZurJSSYGTNm/FpEfskkdvB727a7a7JvGeMn6lIhAFcyhoQjiX6t6q677tqglLoMAFes2dGhbW1t8/xQiCcmAA4dOnRLdnY2T2I85iCnGadEN/uilrqoiybHH9uyt7IPRkMwhQ1KO7i/OYQYEn/VCQOC8IBBvhiTgLg4d9O7bE4izY0cOfIlpdRvmcROnVdbWzuOMRARUaLjo8u7DFcB3DUTwJKKiopCRpEYqqqqDmltbX0ZXfcIxBNaWloevfPOO3swfaLE4TjODQBamcQOzncc54H8/HyTUSSGmTNnXsFjuZ2qM01zUXe8cElJyf4iwlWkibreRK5kS91h8eLFTwOYwyR2amxhYeHoRC/CM89WPOGEE4pTU1Mb2VfecnnkSySL44taVrU58MGChnCUwos9B7E5aTvvRUy8E/HHdx1ZQQst6bm+qOVndR8jO9rCBiUivPjiizeKyBNMYqfmLV++/HDGQEREiYyPAO4aJSUlTwN4gUnskqmUWlxRUWGLCJvSwxYsWHCyiLwA4Igu3lb9JBaLPbJkyZIkjgJRYrjhhhvWKaUWMYmdGjVo0KBFALjP87iZM2deLiKLOVY79Xvbtpu644UNwygBEOAQEHW5/RsaGi5kDNQd+vfvb4NPV9jV+fId48eP75/INRgeCtPNyMiYxC9MvSVTYjg/us4XtbQ4gi0xf0xm/E/afliV0pMNSgAAB8B9zSFf1BKEi60HHeWLWjJirTit7mM2KBEBAGzbdg3DuBzAWqaxgxSl1P1Lly7lXY/0P1xJi4iIdrOPuJkp7JZSSv2mqqpqCVeV8OR5gVFZWXmtYRh/B9Czmz5DpzU3Nz/M/iBKHLFY7GZwFcBdKZoxY8ZdXAnQu6ZPnz5BRGrw1WrFtL21pmnO644XLi0tDSmlxnIIiLrtvJaP36buOid1Xde9FMAGprGDzFgsdk8iH1caXnozJ5xwwn2ZmZmfsa+85ZzIWvRx23xRy5o2F45PLiY+1+tIiDLYoISnWgNY7/ijF1LTMhAL+uMm9HM3vYugG2ODEtH/DB8+fKPrupfgq7nbtL1jMjIybMZAREREe1JSUvIogNeYxB5dkZubW7tgwQLeQeoRVVVV++Xm5tbiq8cfWt38dkb27NnzoTvvvJOr/hAlgBtuuGEdgAomsUtFgwYN+pNt21zd1GNmzJhxtVLqdnjserSH/Ma27W55hJBpmpcD6MUhIOo2x0+ePHkoY6DuUFNTsx5AIQCXaezglPT09GmJ+uY9d8CVnJx8vmVZXO7BQywILous8kUtURGsD/tjO1YXSsV7mf3YoJrb5io82uKPG7ZTxUH9wMG+qOXA1i04pnEVG5SIdjBy5Mh/ApjDJHYkItesWLHiZ0yCiIiIdkcpJQB+wST2yjDDMN6sqqo6kVF0r4qKip+5rvsGgNM9dPx9XjQafcC2bYsjROR94XB4NoD1TGKXznMcp/aaa67JYBTeMH369GsA/B587O+ufGiaZk03vn4Jh4Co24/HS5kCdZfq6urlSqlbmcROP5uzCwsLE3KCrucmAJ544on/zsrKeopt5S1DY3X4gdPoi1o2RB20Of6YY/pS7uFoM3mjrs7+ryWIFvHH+bPRpz/EB98FKAgu2PgOv9Ugol3vv1966bcAnmYSOz03ubu2tjabURAREdHulJSU/AvAI0xir/QVkWeqqqp4kbcbLF68OK2ioqJKKfWUUqqPB9/ihbm5udW2bXNlJiKPu+WWW7aJiM0kdusngUDgH9dff31fRtF9bNu2ZsyYUaGUuolp7JpS6le2bXfLI4TKysqGicgPOApE3b4dKJg6dSr3WdRt+vXrdz2A55nEDizDMO4rKipKS7Q37skT+1AoNCopKSnKvvKWMeEvYCLxJ86JAGvC/njyXtgM4LXcw9icmloVM/Bsmz8mgGYbgsZe/X1Ry9CtX2JAWz0blIh2ybZt17KsS8E793dynCZ9AfyBSZBSnEpPRES7ZxjGNQD4/eHeCYpIRWVlZW1FRcX+jKNrVFVV5bW2tr6rlJoEb69+dHlubu5iTgIk8r6PPvroLgD/ZhK7PZc82jCMV66//vohTKPr2bad7ThOLbi63J48NWvWrEe78XNSxiEg8oSAiExgDNSN++2YiFwMYAvT2J6IHAxgbqK9b0+e1B9//PGNWVlZC9hW3tLPbcVp0U2+qKUh5qIx5o9HAb+T2R91oTQ2qIYeaA7BD11siqDlwCN8MSYhN4ozN7/H5vQR13U5A4U6xWmnnbYBQCEAl2ns4ILly5ePYQzan2AzBCIi2q1JkyZ9JCK8cWDfDFdKvVVZWXk+o+g8t99+e6+Kioo/ishyAIlyt+OYnJycChHhOTCRhy1btswRkSlMYo/2Nwzj2RkzZlzGKLqObduHOY7zPIBTmcZuRUSk2ybgFRcXDwBwNoeByBtE5KoxY8YkMQnqLkuWLFklImMA8Av5HY0tLCwcnUhv2LN39Z100knT0tLSuISSx1wcWYU0ifmillVhB+KHFQ2VgWd7Hcnm1MyrYQsfRk1f1JKZHEJbapYvahm+5SOkx9rYoES0V/Ly8mpF5BYmsSOlVOVjjz3GZY6JiCiR9l0MoRtYlvVbAI1MYp/0BPB/FRUV91dVVe3HOOLHtu1gRUXFNMdxPlZK/TwBt2OTKisrf8+RJPK22bNn/x3AI0xij5IA3D1jxow5tm1bjKNzTZ8+/SzHcV4FMIhp7HF/O3/27NkfdOPxcykAkyNB5J3zs/T09NGMgbrTkiVL/iYiXKBt5/vtO8aPH58wjzH09LL+qampV/ILVI+NicQwKrLGF7W0OYJNEX8surM6JRdfpPZig2oiKsCylpAvagmJg4aB3/NFLbnRZvyk/lM2KBHtk6SkpBki8jyT2EGKYRj3vfbaawFGoSeuAEhERHtj4sSJGwHcwCT2nVLqYhH5sKqqqmTp0qW8CNxBFRUV5/Ts2fNdpdTvAGQkcF9MraiouJEjSuRtruuWAtjGJPa8WQNwneu6z9u2fRDjiD/btpNmzpx5k1LqEQDpTGSP1huGMbu7Xnz8+PE98NUTSYjIW8fgk5kCdbdAIPBLEXmJSewgMxaL3ZOfn58Q35t4egLgSSed9HB2dvYH7ClvyYtuQH+31Re1rA278MmTgPFc78FwlMEG1UBtWxCbHX9Mju6RlQsn4I/JjOdvfAeW8EmeRLRvhg0bFhORiwBsZhrbU0oN2bx58wwmQURERLsTCARuE5F3mUS7ZIhIxcaNG1+pqqoaxjj23YIFC06rrKx8Vin1iIgc6pPj8F9XVFTYHF0i75ozZ84qEeH58l4SkeMcx3lt5syZ5zON+JkxY8YPHcd5XUSugcevN3toHzvFtu1uW706OTl5DIBsjgSR5/xw8uTJP2YM1J0WLVoUdV33MgBbmcYOTklPT5+WCG/U8wdkWVlZ51mWxeUfPMSEYEx4pS9qcUSwLuL4opatgR74d9aBbFCfq3cVHm8J+qKWdOWgvt/hvqjlsJaN+F7TOjYoEbXLyJEjV4vIFQB4zLuj65cvX/5TxqAtLgdPRAmDK5d2nwkTJkSVUuMA8I6s9jtGRP5eVVX1ZFVV1dGMY8+qqqp+XFlZ+XfDMJ4E4LuLdUqp31RWVl7HkSbyLsuyKpRSXKVl72WJyP/NmDFj6bXXXtuTcbSfbdvG9OnTJwN4CcCRTGSvPTZr1qyHunP3DqCEw0Dk2e8UuAogdbs//vGPnymlrmQSO/2Mzi4sLBzq9ffp+QmARx999Me5ubmPsqW85ShnK34Uq/dFLZsiDlodf3xR/0ruoWixQmxQH1vWHETYB+2qoCD7DwR88Jh3Q1xcsPEdNicRdciIESMeF5F5TGLHzaxS6u6//e1vWYxCS3wcIRElzjmO4pzl7lRSUvKyUmoRk+gYETlNRF6vrKy89/bbb/8eE9mebdvBqqqqSysrK18WkWcB+H3VxDlVVVVTOfJEnt0muSIyCUCMaeyTfMuy3p05c+bFjGLfXX/99UMcx3lBKTUPQJCJ7LWtrutO6M43MHny5DMAHMGhIPLsdwrnT5ky5UAmQd1t8eLFywDcwSR2YBmGcV9RUVGal99kQizJnJSUdHEoFIqwp7ylMLwSAR8sVCMAVrX54xw5alh4pefhbE6f+ixm4uVwwBe1ZJmCbTl9fVHLyQ3/QZ9wIxuUiDqsZ8+e1wB4kUnsoJ9pmrygryHHcTgBkIiI9mW/cQ2ANUyiwwwAlzqO805lZeWjVVVVJ+oeSFVV1X6VlZXX5ObmfiYi9wI4TpfaReT3lZWVxfxYEHlTeXn5m0qp3zOJfdZLRO6fMWPGY7ZtH8Y49sy27dzp06cvMgzjZQBDmcg+mzZnzpzuPk4t4zAQeZopIlcxBvIC13WnAniTSexwfnwwgLlefo8JMQFwyJAhLTk5OTexpbxlPwljRHSDL2rZ5ggaYv54Usz76QdgY1ImG9RvOxQA9zcFffFsSEsEzQMH+2JcejgRDN/yIRuUiOJ1zBs1TfMiAHVMY3tKqVHLly+/jEn870RTlzoDHG0i4raZ9lZZWVkjgKuZRPwOwQCcJSLPV1ZWvlRVVTXmtttuS9al+Ntuuy25qqrq4oqKir+JyCoANwE4QNM+qKioqBjLjwSRN9XX1/8GwNtMol1GOo7z7owZM+60bbsX49iRbdvGjBkzfu44zgdfPxLQYCr77O/l5eWLu/k4+VAAeRwKIs8bP23atBTGQN2tpqamzXXd0QC4As6OxhYWFo726puzEiXFE0888TdPPPHExMbGxp7sKe/ID6/Gv6wcNKjEvza3utVBRpqBRH9ojyiF53ofifNXvgA+gMg/XggH8HnMH4vgZKQkY0uPdF/Ucubm95DicIFaIoqf008//cva2trxAP7ENLanlLq9trb2pby8vE+ZhjZjzhUAiSiRtlkMwQNKSkqWVlZWXgFgJNOIq6EiMjQYDN5WVVV1t1LqnkmTJr3utyKXLFmS1NLS8lMRGQ3gQhFJ42f7v5s4taiysjJSUlJyD+Mg8paKioqwbduXOY7zKoAkJrLPAgDGO45TMH369Bva2toW3nrrrc26h2LbtuG67mjHcaYDOJJt0m4NrusWAd27toNSqgT6Tt5cCOBuwzA2sR0TQywW62ea5lQROVfD8rMikcilAPg0HOp2NTU1nxQWFo5XSj3INHbYr94xfvz4FxctWvSl196blUhBZmRkFDY1Nf3NdV12lUckw8FFkdW4IzQw4WsJi2BDxMF+wcS/zrguOQufpfXBIdvWsUl9ICwKDzcH/bHNEAf1A7/vi1r2CzfixK0r2aBEFHd5eXkPr1ixYqGITGIa20kVkZpnnnnmp8OGDYtpfoKpxUpTruuG2PZERLSvRORKpdQ7AHKYRtxlichkEZlcWVn5KYClSqm/bNq06XXbthPyC9s777yzTzQaPVMpdWZzc/PpALjixs4ZAJZUVlaGS0pKljIOIm+xbfvd6dOnX6eUuo1ptFumUuqW5OTk6TNmzKhxHOemG264YZ2GvWS4rnuh4zizAAxiW3RY8Zw5c7r1IkJpaWk6gEIdw1dKLZo3b14x2zDh/Me27Wfr6+tfgIaPHFdKlQL4AwA+ZoC63ZIlSx4qKioarut+ZHfHjY7j3Jufnz9s2bJljtdO3BPG0KFDH8vKynqL/eQtp0Y34WDHHzdErQ87iPrkYurzvY5AzOCiKX7waEsADa4/7jgP5faGa1q+qOWCTe/AEE5IJ6LO4TjO1QDeYBLbU0qdFIlErtc9B10eM+m6bia7noiI9lVpaelaAFcyiU53CIDrROSV3NzcdRUVFX+sqKi4bP78+f29/KYrKysHVFRUXFZZWXlnZWXle9FodA2AP4jIeeDkvz0xAdxbUVFxHqPoHpZlcWIz7a4/5gP4O5PosHQAZaZpfjpz5szKGTNmDNahaNu2c2fMmPErx3E+FZGl4OS/eLi3vLz8/m7feZtmEYA0DfN3YrHYTWzDhN0muUopXcfve2VlZT9jF5BXRKPRUgDvM4nticjJaWlpv/TcOUGiBZmUlHR+IBD4LBqNGmwrb1AQFEVWYnrykQk/Fd0RYE2biwOTE3/iXFMgGW9lH4Qhmz9hkyawTY6BJ9v8sfpfBhw09D3UF7UcvW0NDm/eyAbVYR/H5z1RNxk5cmS4trZ2NIDX8dWXz/TNidX05cuXPzFixIgXNd42aTEJUESOZccTEVF7lJSU/LmiouIPSilOBOwavZRSPwfwc9M0UVlZ+SWA55RSb7iu+2YsFntj6tSpDV35hmzbtrKzsw9TSn1fKfUDETlKKfUDAAfwNK9DAkqphyorK88vKSl5nHF0LcuyCgHMYhK0i+2ea9v2FY7jvAkgl4l0WA8RKQZQPHPmzBdE5A+maS61bbvFT18vzJgx43gRmeA4zmjwEdLx9Llpml5YeU65rjtR02Ofv1ZWVn7OVkxcmZmZf62vr/8PgIN0q10pVQbgaXYBecE999zTfOWVVxY4jvMKgB5MZDvlhYWFzyxZsuRlz2w/EjHF55577sH169ePZj95y21Jh+AFP9yEqIBBPQJIMRP/gNgSF5d89gzSYm1s0ARVuS0Zb4RNH3ysBD36HYzmrN4JX0tAXFz7+RPIibawQTVwzDHHTD755JMXeO191dbWfgmgnwZDEM3Lywvq3IO1tbUFAB7ip3EHn7uue/TIkSMbdSv86aefHtfQ0PAHHSYAKqWglPrCdd3HlFJfuq5bB6DOMIxGAI7jOI2maQqAhv/+G8dxWqLRaHhnvy81NTV27rnnbuPHh6hr3Xfffeuj0Whvv9dpWRYuu+wyzirykN/97ncpycnJbwA4jGl4wmYAKwF8AeALEVlpGMYXjuN8aVnWtkgk0hwMBiOTJk2q390vsW3byM7OzrEsK1tEckQkG0COUqq/iBwI4L//9QMQYOydpg3AOSUlJU929xu56aab3gUwWJPcBUCNUupp13UjbEPvMwxDXNf97Nprr32zq15z5syZw0XkcSTYE8ASRCOAvyql/mQYxgrbthPywott20d/PeFvNICBHNa4i7qu+9M5c+a80N1vZOrUqWe7rvtXHQdBKTVs3rx5/2A7JrbJkyf/AsCtGpbuuq57WEVFxWdef6NFRUW6XKuKVVdXa31+WVhYOE4p9QdumXbY33wmIj+srq72xHWHhHwOY1ZW1s8bGxvPbWlp4d0oHvLz8Jd43cpCONHPKwVY1RbDoJTE34bHlIGXew3CaWvfYoMmoA+ipi8m/wFAtmViS5Y/rvn9rP4TTv4joi6Tl5e3tLa29nQA45jGdgYahlEB4ApG4V8igq8v5BeLCP57x/p/Jz8ahrHDSoiGYSAUCu3090WjUfzpT3/a5esZhiHdWKvnZnTuRR6ilNrlz+zq7779599+jf9m8PXEz//+uXz9M6KUEsMwGg3DeCwpKemXP/7xjzmZk4h265e//GVzRUXFpUqpF8CJYF6Q+/V/P/rv9l5EYBgGXNeFZVlwXReVlZUAEAHQDKAF36wwEPrW/4brujscN1CXSgLwl4ULF46cNGnSPxlHl1EACkWkkCtZJs45jVIKN9100yNtbW0X2LbtdvZrzpo1a8XMmTPLReQ3HIG4SwdwmYhc5jhO0/Tp0x8zDOMxwzCetm17rVfftG3bPWKx2ClKqeEARjqOw5sjOvdz/0svTP4DAMdxyjTdX7w7b948Hp/44cBHqcUiYgNI1ax0wzCMYgBXswvIK5YsWXLX2LFjfyIilzGN7fb7BwOYC49cw0vICYCDBw+OvPjii9e3tLT8ni3lHbkSwTmRdVgW7JvwtTQ7grqoi+xA4t8k93F6Xwxu+BJ9WurYpAnEBfBAc8gXtQTgovGgo3xRS0asFadu+YgNSkRdKhQKlYbD4WMB/IBpbOfny5cvrx0xYsQDjILicvzlut35rbjnvpF3HMeLw5QeCoUm4KvvMjgxOkF05+RaotLS0teqqqquFZFbmUZCCX79Xxaj8LQeruv+raqqanhxcfELjINot85NTk4+D8D/ddHx1yzHcU4AcAaj7zSpSqnRIjLacRzMmDHjA3z1uMZnTdN8zbbt/3TXG7v22mt7BgKBISJyLICTHcf5sVKKC6p0ARF5aPbs2fM9chx8pFLqVB3HQSk1H1+tmksJbt68eQ2TJ0++B8BEDcsfV1paaldUVDSyE8grQqHQxLa2tiEABjGN7YwtLCx8csmSJd3+NC8rURM84YQTbnvyySenbd26tQ/7yTvOj6zFPwK52KQSf+LS6rCDTMuAkeA3xwiAZ3sdifyVz0PxbuiE8Y+2AFbH/PGUhvS0NGxJSvFFLedseg8hN8YGJaIuNWzYsLbHHnuswDTN1wCkMZFvKKVuf+yxx14488wzVzINIj2Ew2GEQqHzwAmA5L19EkPwqEmTJt22cOHCY0VkNNMgirtUEXm8qqrq9OLi4lcZB9FuDUYXTQC0bdu1bftSx3HegB6P5fOCI77+r+TrCYH1AN5QSr0B4BPXdT+zLOtTAKvjtRKkbdu9otHoYaZpHgrgUBE5DF+ttHsgV8btFu9bluWZ81TDMMrgwZsNu0B9S0vL/WxH/zBNc57jOFdp2M9phmH8HEAlu4C8YuHChU1jxowpMAzjZQDJTOQbSqk7xo8f/+KiRYu+7M73YSVyiLm5uZc0NjY+wwNZ7wjCxSXhVZifdEjC1xJ1BesjDvYPJf4jWDclZeCj9L4YtHU1mzQBNLvAX5qDvqglRWKoGzDYF7Uc2LoFP2r8kg1KRN3izDPP/Li2tnYygGqmsZ0M0zTvXbp06U8LCgocxkGkh1gsxsnQRLTXlFLyu9/9bmxycvKRAL7PRIjif0wuIksXLFgwqKysLMw4iHapS+/2tm178/XXX3+BYRj/Ai/QdocsAKeKyKlfH4/8d5X18IwZMzYA2ARgk4hsUUo1A2hUSv33e40IvloJFyKS8XXv9ACQKyL7KaV6Ash1HCdkGAZ4jdQTGk3TvNC27SYvvJmJEydmAdD1EY13Llq0qIUt6R+33Xbbx5MnT34KwOkall9m2/bCeE0cJ4qHmpqafxcVFf0SnJz6XZmO49ybn58/bNmyZd12rSqhl5f64Q9/+I/s7OyX2Uve8uPYFhzhbPNFLRsiDiKuP06eXug5CBHDYoMmgEdaQ2gSf9zIYvXqCzESfxKtguCCje+Aa3oQUXfKy8tbAuBuJrHj4Wd6evo1jIFIHyLCw7LEGi9tSuVoe9cvf/nLZqXUBQDqmQZRpzjQsqzvMQYib5kzZ85rSqnLAXDigHeEAPTHVyv15SmlLgUwHsA0Ebnm6/9m/Pd/A7jq67+/7OufPxpA369/D3mDo5S6zLbtD73yhgKBwFgAKRqORQzA7WxJX1qgad2HNjQ0DOfwk9dUV1dXAfgTk9ieiJyclpb2y+58Dwn/fMmUlJTzgsEgV/vwEAWgMLwSygfffbvy1aOA/aDVCuGNnIPZoB63zjHwTGvAF7VkKhdb+xzki1qO2/olBrTxOhEReeA4S6lJAD5gEjv47eOPP348YyDSA1e4IKL2KC4u/hRfXTznJAii+IuJyBrGQOQ9s2bNehjAb5gEUae5etasWY965c3k5+ebX39/qKM/z58/n49x8qH58+c/JiIf61i7iExmB5AXua57JYDPmcQOygsLC4d214sn/ATA4447bn1WVhZXQvGYg9xm/DS62Re11EddbIv547vht7IPRkMwhQ3qYQ80h+CHKacGBJH+h/tiTEJuFGdtfo/NSUSeMHz48GalVIFSqpVpbMcyDOPeRx55hI8FJdIAVwAkL1KKbZkISkpKHgcnQRB1xjbw5uLi4vVMgsibysvL54jIPUyCKO7npovLy8s9tTLZ/vvvfx6AgTqOh2EYFexK/37cDMPQdXXHM6ZMmXIEW4C8pqampsF13dEAIkxjO5ZS6t6ioqJuuVZl+CHBWCw2PiUlpZm95C2XRr5ED/HH6nmr2xxfPMvHUQov9RzE5vSoNyMW3o2YvqglKxRAS0auP46st3yE9FgbG5SIPGP48OHvuq47lUns4OCkpKS5jIGIyFuUUlyykTyluLh4DoBqJkEUN0smTZo0gzEQeZps3br1SgDPMwqiuHnKsqyrPPi+yjQdj7fmzp37LNvSv4LB4GIAjRqWrkSkhB1AXlRTU/MqgGuZxA4OAXBrd7ywLyYADhs2LJaVlXU1+8hbMiWGC6JrfVFLiyvYEvXHKoCfpe2HVSm5bFCPiQmwrDnkj4NwONg68Pu+qCUn0oyf1n/KBiUizxkxYsSdInIfk9ieiIxdsWLFaCZBROSpbTNDIE9RSkkgELgKQC3TIOqwP/Xq1etKTvYm8r6KiopwLBY7F8AHTIOow+c475immW/bdsxL72vq1KnfB3CKpmOygJ3pb7fccss2ALo+FXLM1KlTs9kF5EXV1dVzlVKPMIkdjB87dmx+V7+o4Zf0jj/++EWZmZlfso+85azIOvRx/bFy1pq2GPyxDiDwXO/BEGWwQT3kidYA1jv+eGRUakYWYsEkX9RywaZ3YInLBtUbn+VGnpWUlHQVgI+YxPZE5I4nn3yyP5Mg8i/Xdbl/Ji/ufxhCApkwYUI0OTm5AMAbTIOo3R7ZvHnzxQUFBQ6jIEoMN9544xbTNM8AsIppELXbZ5ZlDbdtu8GD58q6PjFkc2Nj4wNsTS3OuxcA0PGiXQ8RGcMOIK9+NIPBYCGAlYxih23WnYWFhf268jV9NQMoPT19lGFwUpOXWBBcHvHHvMyYAOva/HFMURdMxXuZ/digHtHoKjzWGvRFLanioH7Akb6o5bCWjfhe0zo2KBF51rBhw5qUUpcCCDON7WQ6jlNj2zZPDIiIqMsoxXmpiWbs2LHbXNfNA8Bl34n2fZv3VEpKykVeW/mIiPbMtu3VAEYAqGcaRPtsrYicbtv2eq+9sdLS0p4ALtZxUETkzpqamja2p/8tWLDgEwBPaFp+WX5+vskuIC+6/fbb60VkNIAo09hOFoDFXXmtylcXxY477rhXc3Nz/8k+8ti4xOpxtLPVF7VsjLhoc/1xV/9LuYejzQywQT3g4ZYQWsUHF4tEYOw/AOKDBdMMcXH+hnfYnETkecOHD39dRH7FJHYw7Pjjj5/GGIj8iSutEVG8lJWVbVJKnQOgjmkQ7R2l1LOWZZ1bWFjIC+1ECaq8vPw913XPA8DPMdHeqzdNc8Ts2bM/9+KbMwxjAoAkDcclJiJ3sD21OhbV8nHPIjKgb9++Z7MDyKuWLFnysoj8hknssM06/csvv5zSZccDfgvQsqwLQqEQ7zz0mDHhlTB9cJFGIFjd5o+nWoTNAF7LOZTN2c2+dEw812b5opYsS9DY0x8rS5689XPsH2lkgxJRQhgxYsQCpdSfmcQOZq9YsWIoYyAi6l5KKc7YJE8rLi7+wDCMMwA0MA2iPXrecZyzJkyY0MIoiBLbnDlz/iUi54KTAIn2xlbXdfNs2/bkqgHjx48PAJig6dg8XFFRsZotqo958+bVAvhQx9pFpIwdQF42YMCAmwGsYBI7uGHMmDFHd8UL+W4C4IknnliXlZV1J3vIWw5wW3F6bKM/jvJjLrbG/PEo4HeyBqAulMYG7a4DNQD3NwXhh6thpghaffLo3x5OBMM3f8AGJaKEEgwGiwB8ziS2ExCRex955BEe7BAREdFuTZo06XUAp4KPQyTanX8lJyePKCsr4x2TRD4xe/bsJ0TkfHASINHuNAIYPmfOnFe8+gZ79OgxCsABOg6OUqqCLaodEZGFmtY+rLS09AdsAfIq27ZdEbkcwFqmsZ2QYRj35efnJ3f2Cxl+TO+kk04qTUtL28o+8paLI6uRJv5YnHF1mwPxwbQtUQae7XUkm7ObvBy28HHU9EUtmckhtKVm+aKWMze/jxQnwgYlosQ68x82rAHARQC4AdveIaFQ6PeMgch3FCMgongrKSl5A8CZALYxDaId1EYikbyxY8fy80HkM7Nnz65VSl0AIMw0iHbQ7Lru2eXl5S97+U1qvCrYm/PmzXuebaqfpKSkGgBazgVRSpWwA8jLlixZsklELgHgMI3tHJmamnpLZ7+ILycAKqUkOzt7olK8JuAlKRJDfsQfqzC3uYJNEX88xWh1Si5WpvZmg3axiAAPNwf9caAtLhoO+r4vatkvsg0nbv2CDUpECSkvL+8VEZnOJHZwZW1tbYHPznc4qkRERJ2gpKTkRaVUHjgJkOh/ROSxlJSU86+++upWpkHkT7NmzVqulLoYvKmQ6Nu24auV//7l5TdZVlb2IwDHa3qMMp9tqqdbbrllm1KqRsfalVKXT5s2rRe7gLxsyZIl/wQwm0ns8PktLiwsPKszX8Pwa3jHHnvsA1lZWZ+yjbwlL7oR/d0WX9Syts1BzB9zAPFsryPgKIMN2oUebw1ii+uPzJNzcuBY/pjMeP7Gt2GIywYlosQ91srLuxXAX5nEDu548skn+zMGIn8QEYbA8SLqNMXFxS+IyDkAmpkGEZYGg8HzCwsL+XhQIp+bNWvWn5VSIwE0MQ0i1AMYXl5engiry03VdIw2NTY2PsRW1ZfjOBUAdLygF4rFYmPZAeR1/fv3nwXgKSaxHaWUqh4zZsx+nfUCvp7xk5qaep5lWfym2UMMCArDK/1xYAHB2rA/Hmm8NZiCf2cNYIN2kTpXobY14Ita0pWL+r6H+6KWH2xbg0HNG9mgRJToZw8CoBDAl0xjO1mu6969dOlSk1EQEXX5vol1UsIpLS39h+u6pwGoYxqksepevXpdMmHChCijINLDrFmzngYwEpo+VpHoaxsADCsvL3/R6290ypQpfZRS+ZqeZ95RU1PDGxQ0VlFR8RmAx3WsXURKxo8fH2AXkJfZtu0ahnEZgPVMYzs9DcNYAqBTvkj09QTA44477r2srKwn2EPe8n2nEcc6Db6oZVPURYvjj5sLXs09DC1WiA3aBR5qCiEiiX9xSEHB7TMQ8MGFLktcnLP5PTYnEflCXl5eHYDLAMSYxjdE5CdpaWlX+6QWDihpjROtEm68tNhocdvsP2VlZS8ppX4MYDXTIP0OneW3JSUlYwsKChzGQaSX8vLyZwEMA8A7pUlHX4rIyeXl5W8nyA77KgBBDccp6jjOIrYrua5boWnp+yclJZ3PDiCvu+uuuzYAuAQAzyu3l1dUVDSpM36x75/52bt37/zk5GTepegxV7R9gQB88OW4AKvC/pgAGDEsvJJ7GJuzk30aNfFaxPJFLVkW0JS7vy9q+VndJ8iN8OkWROSjs4e8vGdF5LdMYntKqTm1tbXH+aAODiZpjROtOF5EXaW4uPgDAD8G8DHTIE3ElFITSktLbUZBpK/y8vI3ReQUAKuYBmnkPdM0T549e/YnifBmS0tLQwDGazpWf6qoqOBNOoSKioonALyrY+1KqTJ2ACWC6urqZ0TkFiaxg1vHjBnz/Xj/Ut9PABw0aNC2zMzM29g/3rKfhHFm1B+rfTbFXNTH/DEJ8P2MftiYlMEG7SQC4P7moB+mvsKCi+aBg30xLulOGKfWfcQGpV2dRHGWDSWsl19++QYATzKJ7QQA3PfMM8+kMgoiIorzcSND8KmSkpKVpmmerJR6k2mQz21TSp1dXFz8B0ZBRLNnz/7INM0fA/iAaZAG/mGa5o9t2/4ygc4/LgKwn6bnXhVsWfqW2zWt+6TJkycfy+GnRDBgwICZAJ5jEttJMgzj/jFjxiTF85caOiR30kkn/TotLW0Le8hbLgyvQZb4Y3HG1W0xuH5Y0FApPNd7MLg+Q+f4V5uFL2KmL2rJ6JGCcHKaL2o5Z+O/keTyKZlE5D+2bbtKqcsArGMa2zmkra3t94yBiKhrcGIc+cHEiRM3AjhFKfUU0yCfWquUOqW4uLiWURDRf9m2/WU4HB4K4HGmQT72sGmaI2zbbkiw86xiTcfr9Xnz5r3ItqX/am1trQFQp2PtSqlSdgAlyDFlzDCMiwFsZhrb+Z5hGLPj+QsNXZLLzMy8kl86e0syHFwc8ccK8hEX2BDxx6PL1yVn4bO0PmzQOGsThb+0hHzy2XVRP/B7vqjlwLY6DGn8kg1KRL41fPjwjSJyCQCHaXxDKTV++fLl+UyCiKjz8RHA5BfFxcVN4XD4HKXUQ0yDfOYtETm2uLj4LUZBRN91yy23bNuwYcN5ABYxDfLbqYpS6kbTNAts225LpDc+efLkHwPQdeWveWxd+rZFixa1AFii5UZMZPSkSZP2YxdQIrjrrrtWu657BcC1qL7j6qKiohHx+mXaTAAcOnTon7Oyst5j/3jLsOhmHOI2+6KW9REHEZ9srl7sdQRiymCDxtEjLQFsdf0xCTmU2xuuaSV8HQrABRveBqeGE5HfjRgx4h9KqRuZxHf2A0rduWLFin5MgoiIiPbW1Vdf3Tpp0qSLAVwHwGUi5INj4uXJycmnlJaWrmUaRLQrixYtipaXl08QkSngDYbkD2EAY2bNmnWdbduJeExXpum4bXRddxnbl74rFotVaLp/ClqWNYEdQImipqbmcQBzmcT2p+UA7ho/fnxuPH6ZVjN8evTocb5lWZxR6qluFhSFV/piAo4rwNo2fzxGtDGQjLeyD2KDxuuMxDHwdGvAF7VkwEXD/of4opbjGr/EgLZ6NigRaeHFF1/8jYj8nUlsJwvAPbZt864HIqLOxe9hyFeUUlJSUnKjiJwFoIGJUAJvm2/u2bPn2WPHjt3GOIhob8yePXv+1/u/RqZBCWwdgJ+Ul5ffnYhvfurUqX0BnKfpcfjtFRUVYbYwfVdVVdVKpdTfNP1cTBozZkwSu4AShWVZvwbAR7lvb/9YLPaHePwirS52HX/88Z9kZ2c/wv7xlsOcbTgptsUXtWyJumiK+eMG8NdzDsE2i8cL8XB/UxAxH0xzVRDE+h/qizEJuTGcueldNicRacO2bTcWi/0cwGam8Q0R+ckJJ5xwNZMgIiKifVVaWrrccZzjAHzANCjBNAK4sKSk5NcFBQVcyYuI9sns2bNrTdM8CcBHTIMSjVLqBdd1jy0vL385UWtwXbcEQEDD4Ysqpf7ALqbdfDYqNC29V3p6ej47gBLFokWLopZlXQSgjmls57yioqIrO/pLtFvtwrKsS5KTk3l3gMdcHv4SIfHH902rwq4v1jeIGSZe7jWIzdlB70dNvBO1fFFLdtBCc2YvX9RyRt1HyIi1sUGJSCtnn332GqXUz8HH1W1HRG5Yvnz5sUyCiIiI9tXkyZM/cV33eAB/ZRqUIN5yXfeYkpKSPzMKImov27bfDYfDx4rIQ0yDEsgiwzCGzZkzZ02iFjB16tRkAFdqOn4PzZ07dw3bmHZlwYIFTwN4R8falVJT2AGUUDvkRYu+BDCeSexg7pVXXnlYR36BdhMATzzxxNbs7OxZ7B1vyZEIzo2u80UtLY6LLT5ZBfDj9L5Y1yObDdpOLhQeaAr5opaAOGg8cLA/tjeRZvyk7hM2KBFpafjw4csB3Moktt/NKaXuf+aZZ1IT5Q0rpThqRETcNpNHlJWVNfbq1esCEbkJvNGCvK0mEomcWFZW9hmjIKKOuuWWW7bNnj37IgATAESYCHlYE4CLy8vLJ9i2ndC96rruZQBydBxEwzAq2Mq0JyJSpWnpx5SVlZ3IDqBEUl1d/TCAKiaxnRTHcR7Iz88Ptnt/qWNqJ5xwwg0ZGRkb2Rq2kDAAADV0SURBVD/ecl5kHXqKPxZnXNPmwJHEXwZQADzX60gIL2S0y9NtAaxx/LGZTUtPRzQpxRe1nL/53wgIr8kQkb5CodD1IvI8k9jOIeFw+HcJc4zmg+NMIiK/4bZZbwUFBU5paem1InI6gNVMhDwmLCJTSkpKCq+++upWxkFE8VReXr7Idd1h3P+RR71pmuax5eXlD/qknhJNx/GluXPnvsJ2pj0xTfMeAFt0rF0pVcYOoESTkpLyCwBvMIntHJOammq39x8buqaWlpZ2uWEYbB8PCcLFZeFVvqglKoL1EX9MMNqYlIGP0/uyQfdRsyg82hLwx85XYqgf4I/V/w5r2YTvb1vLBiUirQ0bNixmGMbF0PTLkN24qra29lzGQEQUX0opzowjbZSWlv4dwNEA+HhV8ooPDcM4qbS0dD6jIKLOMmfOnBdisdgx3P+Rh4hS6vemaR5v2/aHfihoypQpPwNwlKbjydX/aK/MnTu3VSm1WNPyL7z66qv7sQsooTbuFRVhpdRoAI1M4xtKqWsKCwt/1p5/q+0MuOOPP/6J7Oxszib1mJNiW3Cks80XtWyIOAi7/rjO8XzPQYgYFht0HzzcHEST64+VE61eB0AMM+HrMCA4f8PbbE4iIgDDhw9fpZQag68W/KVv3PXEE0/szxiIiIiovUpKSraUlJRcoJS6Al89co6oOwiARa2trUMmTZr0OuMgos524403biovL79AKVUAoJ6JUDfaKCJnzZo1a1qiP/L3O3Rd3WtdVlbWn9jWtNcHwV89BjimYemW4zhXsQMo0SxevPhTEWHvbs9QStVMnDgxa5//oc6pKaXOCwQCfA6kxxSGV8LwwbVoEWB12PHFmLRaIbyZcwibcy+tiRn4V5s/JkxmGS629hnoi1p+XP8f7B/hDQS074cLjID8avjw4X8DsIBJbCfXdd0a27Y9fZ6kFDdNRETcNpPXFRcX320YxhDwcTbU9VaKyGklJSUTfvnLXzYzDiLqSrNmzVrmuu4PATzDNKgbLDNNc/Ds2bMf91NRU6ZMOVBEztJ0TO/w2URO6mTz58//EsBfNS3/qvHjx/dgF1CiWbJkyQMA/sAkttOvra3trn39R1pPAPzJT36yKjs7+yH2jrcMdJsxLLbZF7U0RF00Ov6YY/pm9kHYGkxhg+6FB1tCcH0wZ8iAoK3/IF+MSQ83irwtH7A5iYi+Izc395dKqZeYxHZOHzp06BQvv0ERLtxIeuMjZYkoUUyaNOmjzZs3n6CUmgOAFy6pK1S7rnvU14+jJiLqFnPmzFlZXl5+KoAJAFqYCHWBDUqpUeXl5QW2bW/2W3Gu65YCMDUc10g0Gl3E9qZ2fGZ0vek9Ozk5+WJ2ACXo57ZMKfUWk/iGUuqCoqKisfvybwzdQ0tOTr4iOTm5le3jLZeEV6GH+GP1vFVtji+erecohRd6Hs7m3IPXIxbei/jjPCwrFEBreo4vahm56T2kOLzWQkT0XUOGDIk6jnMZgK1MY7sTqxsef/zxHzIJIiLaW5ycTbti23akuLh4uuM43wPwNBOhTrIRwHklJSVjy8rK+PgDIvLE4VF5efki0zR/BOCfjIM68Tj8vlgsNnjWrFkP+7G+8ePH91BKjdF0eB9cuHDhenY57auKiop/KqXe1rT8KeCTrSgB1dTUtDmOUwBgG9PYzvwxY8bs9YpN2k8AHDJkSDQ7O/vX7BtvyZAoLoys8UUtbY5gc8Qfkxn/k9YHq1Jy2aC7EIPCsuagL2oJwsHWgd/3RS37RbbhpK1fsEGJiHZh5MiRn4nIlUxiOyHDMO579NFH+cgEIg/io1YTiy4T49iXtCeTJ0/+pLi4+HQRGQegjolQvDazAO4JBAKDS0pKHmEcROQ1tm1/WF5ePgzAFQA2MRGKo09FZMTs2bMvu/HGG7f4tcgePXoUAsjWdIwr2ebU7oNkkQpNS//elClTfsIOoERUU1PziYhMYBLbSTEM4778/Py9moRiMC/ghBNOWJCRkbGWSXjLmdH12F/afFHL2rCDmE+ueTzXezBEcdOxM7WtAWx0/JFNanoWYsEkX9Ry/sa3YYjLBiUi2o0RI0YsA3AHk9jOEYFA4FYvvjFOMiHdcaW1xMJHNhNt/3koLS1dHIlEDgWwCAA/H9QRbyulTikpKfn5hAkTNjMOIvLyIXx5efndsVhssIj8kfs/6qA2AL9paGj43uzZs2v9fvgoIiWajvML8+fPf5XtTu3luu69+GqVbP12uiKT2QGUqJYsWfLA18eL9I1j0tPTy/fmBzmL52upqakFvJDmLRYEPw9/6YtaYgKsC/tjFcC6YCrez+zHBv2Ora7C8hZ/rP6XKjHUH3ikL2r5QdNaDGreyAYlItoLoVBoKoC3mcR2rlq+fPk5jIHIW3juTkSJ7uqrr64rKSmZICKnAXifidA+ahCRss2bNw8pLi5+jnEQUaK48cYbN82ePXsMgBOUUi8xEWqHv4jI98rLy2dVVFSE/V5sWVnZcACDdBxojVdvozipqKgIi8hiTcs/Z+rUqQexCyhRxWKxYgAfMInt9ovTioqKTtvTz3EC4NdOOOGE53Nycl5kEt4yJFaPHzpbfVHLpoiDVtcfN7a9mHs42swAG/RblrWE0OqH4RWB0WcABIl/UdUUF2dvepfNSUS0l4YNG9ZmGEY+gG1M43+UUmpxbW1tH0ZBRNT+swxGQLRzpaWlf9+8efP3RaQAwBdMhPZie3pPLBYbVFpaWmHbdoyREFEiKi8vf3nWrFknKqUKAKxkIrTHHaDIGyIyrLy8/PzZs2d/pkvdSqkyTYd8bVtb28PsfOoo0zSrAEQ1LN1wXXcSO4AS1T333NP89XFiC9P45nMN4N5x48b13tMP0deysrLOCwQCDpPwlivCX8D0wSOeBMCqNn98Lxc2A3gt51A259c+ixp4sc3yRS3ZlkJjr/6+qOVndR+jZ6SJDUpEtA/OOOOMT0RkPJPYTi6AP4qIZ2bH8/GnRETew5Upqb1s23ZLS0uXRSKRI5VS1wJoYCq0E2+4rntiSUnJz6dMmbKBcRCRD8isWbOWtba2DhaR6wDUMxLaidUACi3LOnb27Nn/0KnwsrKyQwEM13Tcb1+0aFGU7U8dNXfu3DVKqT9rWv7YSZMmpbILKFEtXrz4XQBTmcR2eruuuwTY9UpOnAD4LT/4wQ825uTkLGES3nKA24bhMX98r7UtJtga88cF23eyBqAuyOMGAfBAc8gXS1qYcNEywB+ryafFwjit7mNuQImI2mHEiBEPAuAx8fZOf+KJJ6Z45c1wkgkRJeBpk/+L5ORs6qCrr766tbi4+KZIJHIwgJsBtDEVAvChUuqKXr16HVdWVsbHZRKR79x6663Ns2fPvjEcDg8QkV8DaGQqBGCTiPy6qanpsPLy8hrbtl3dAjAMoxR6XscPBwKBRfwIUBzP1XV9nHRmMBi8nB1Aiay6unqRUupeJrGdEYWFhVft8viB+Wxv7dq1V6WkpHDJKI8ZHVmDNPHHzR6r2mK+uPohysCzvQdr35svtFn4T8z0x5FgcjLaUrN8Ucu5m99Fkssn4RARtZdSqhTA+0ziW8c+Ijc+8cQTRzMJou5nGAZnWiXWPoUhEO2Dq6++uq6kpOTXjuMcLiKVAFqZipY+BfDzXr16fa+4uPjugoICPrWGiHztlltu2TZ79uybTdM8HMA88JFvutoE4JemaR44e/bsm+fOnavlcdCvfvWrNBG5QtMeeODWW2/dyI8Cxcv8+fOfA/CajrW7rjvFtm3OB6KEFgqFJgL4iEl8Qyl127hx447a2d/xA/8dBQUFTmpqahmT8JYUiWF0eLUvagm7go1hf3xntzolFytTemnbl2FReLgl5ItakuCiYeD3fFFLv7YGDNn6JTecREQdMHz48GYABeAX7tuda7que9+jjz7ag1EQEe0TLSZscqIjxdvkyZO/LC0tLXVdd4CI/BZ8NKIuvgQwYfPmzUeUlJTcw4l/RKQb27bXl5eXTzVNc4BSivs/faxXSv02EokcWl5efqtt21p/HxUOh8cBSNexdsMwqvhxoE44X6/StO7D6uvrT2cHUCJbuHBhk2EYBeDNkd+W5DjO/fn5+ck77EeZzY5OPvnkJVlZWV8wCW85I7YJA1x/HPOviziI+uTxQM/2PhKO0nNT8lhrEA2uPy7yJGfnwrGCiX8wCyB/41tQ4KIwFB8iwiu5pK28vLz3AExhEts5MhgM/q7b93ecZEJEiXSMrhQfAUzUAWVlZZtKS0vtQCAwEMB1ALgiij+tUkpdtXnz5kNLSkoW2bbNxxoQkdZs2948a9YsOxKJDARwPYC1TMWX3gNwxYYNG/rPmjXLvvnmm7ey920DQLGOtYvIs3Pnzn2NHwuKN8dxHgCwQddTSnYAJbq77rrrHaXUr5jEN5RSg1NTU2/87p9zAuAupKam5luWxW9vPcSAYEx4pT8ONARY65NVALcGU/DvrAHa9eNm18CK1oAvakmHg/q+h/milmO3rsSA1jpuMImI4iQvL+8PSql7mcQ3RGTS8uXLz2ESRET0bZycTZ1twoQJW0tKSm6MRCIHKqUuA/AvpuILLwC4OBAIHFxcXHynbdsRRkJE9I2bb755a3l5+Q0bNmw4UCl1CYCXmUrCcwE8qpTKKy8v/355efndixYtijKWr9TX158F4GBNz6kq2AHUGSoqKsJKqUWalj+ipKRkELuAEt3ixYsrATzAJLbbb5YVFhae9e0/sxjLzg0dOvS1f/7zn//YtGnTMKbhHd93GjHUqcfLZlbC17I56iI38P/t3XuU3HWdJ/zPt6o7XZWrCSCKXOSWhIs4z+qo4zqzzuyjw44DPqtH97ntrhfO+KiRIa4KM+jaOxFw5nE0yqpHHwXHs6NoDYR0OgsZQKOES5AoUVBJALkEAk1IyL270/X7Pn8QL4MCIenLr371ep2Tcwjp7qrv+/v9/aqq613fX44Z9c5/k+AHh8+P+TseieljI12zFr+1e1rsq0BFOEWK4iUnRFTgzaq+Yiz+fMtdTpQA42x4ePh9fX19r46Ik6XxqxdWX1m5cuUZb3rTmx6VBkzJMejDeh0kd8nWeHYAZLJ88IMf3BsR/xgR//iFL3xhQVEU74yIcyLiMOl0jNGU0vKc82cWLVp0izgAntv+gtg3I+KbF1544atSSu9LKb0tIqZLp2NsiYjL6vX6F/v7++8XxzPq1t26Ht67d+/Vpp8J9MWIOD8ipnXZuFNPT8/7wk6AVEBRFO+r1WqviYjjpfHU8Z1S+so555zz8q985SuPRdgB8FnVarW39vX1udxCyfynkQeiNxedP5AcsWm4GstrtNYTtx0+v2vW4M/31WPdSDX603N7InYddlQlxvKGJ+6OOWPDTpIA4+zNb37zzna7/daU0l5p/MoRtVrtH1wmHKaGndbMF/CU973vfXcvWrToghkzZhydc357Sul6qZTaoxHxt/V6/YT3v//9b1f+Azg4F1100W2f+MQn3lGv118cEf85Ijz+lVexf37+c71eP27JkiXnK/89s8WLF58WEX/Spa8bP28nSCbS0qVLN0fEld049pzzO84///w5VgGd7mtf+9qTRVH8h4iwc/6vHVkUxT9ERIpQAHxWf/iHf7ht3rx5X5BE2VbwSPz5vmpstrKrnWPrvqISY/npnGNiqFH95w5FRHxjVzU+HNITOXadcHolxnLY6O54/baNTpAAE+RNb3rTT3LOH5HEr6WU3njttdd+QBIwJWy1Zr7K+Lhgppky73znO4c/8IEPtN7//ve/oSiK0yLibyLibsmUwmhEDOSc397b23vsokWLLnjve9/7sFgADl1/f/+OJUuWfH3JkiVvqNfrL4+Iv4uIByRTCndFxF/V6/VjlixZ8oYlS5Z8vb+/f49YnuOFU87nxv438LvMSE9Pz1etACbhdXu3XmZ61sjIyDutAKrga1/72g8i4qOS+Bf+9N3vfve5EQqAz+m1r33tebNmzdouiXJ5675HYl6uxgdBHh5pR1GBt0NySrHmyNMq/87O6r29saldr8RY5syYHqONmZUYy//2+E+qsTMoQImdeeaZ/z2eutwO+6WU/u6aa645QxIwuWq1mgIgwDM499xzf7po0aKPL1q0aGFEnJ5z/m8pJZ+Ym1xFRNyUcz6vKIqjFy1a9OYPfOADrfe85z12tQGYIP39/T9esmTJ+UuWLDm+KIp/vb/k8ahkJk/O+c6I+Hi9Xj9tyZIlpy9ZsuST/f39j0jmwCxevHhezvn/7tLhf+NTn/rUkFXARFu6dOktEfGDLj1HL+rv79cNohIuu+yyT+WcV0jiXxzjf/uOd7zj93pE8exSSnnt2rXv3bVr1zdy9h5DWTRyO/6PkQfj840TO34so0WOR0fbcVRf55fKNjfnxn2zXhwn7txcyXW3u4i4ek81dv9rpiK2Hl+NvsL8PY/HGbv8HgFgMvT19b1vZGTkNRFxvDSeiiSl9NmI+ONJfo0iebr+dboUOm7Oouq/U/E7I8po0aJFd0XEXTnn//b5z3/+VSmlt+Sc/zQizoju3F1moq1LKX2zVqtdYZc/gKl7WnbRRRfdHBE39/f3n7dv375X1ev1s3POZ0fEaeIZV+2IuDnnvLKnp2d5f3//z0VySK8n3hER07v09eLnrAAm8Vj7fErpa1049BO3bdv2ZxExaBVQhUM5It4dEXdExFHiiIiIvlqt9lkFwAPw6le/+ps33HBD/7Zt2+ZLozxeP7YlVrWPjHvqnb+D2WOj7Ti8tx7TKtC7X/PCU+K43UPRU7Qrt+aW7+mLXbkavx/vO+xFsbfW+QuuFjn+/WPrnRDpRmPdMMiU0pipLpc//uM/fvLaa6/93yPixoiYJpGIiHiN4x8mV71edxx02POWbigAppTappoSr88cEWv3/zn/S1/60otHR0fPrNVqf5pz/l8j4jApHZQ9EbE6Ila12+1r/vIv/9JOi14fwzPKOdsFdJL19/cXEXHr/j9/3d/ff8LY2NibUkr/NiJeHxFzpPS8PRIR34mIlfv27Vv1yU9+cptIxu0c8douHfr3ly5deocVwGSZN2/eN7dt23ZxdGdp6A9i/AuA3fJc3GuOkrn88ssfP+ecc/6voiiuj4i6RCIi4lUKgAdo1qxZb9m5c+dPxsbGfDq2JFJEvGvkgbhweudfdrbIEQ8Pj8Xx0zv/kNzV24z1846PV2y5p1LrbXO7Ft8d7q3EWObUIp486sRKjOVfb7svjhrd4YRI9z0GpnR7zrnyO7DlnH9gtsvnzDPPvO2aa675q5TS30sjIiJ+PKnPG4tiXUqpK3bTgt/x+Be1Wi1qtdpaaXTW85aIWNgFQ/XJJDrGe97zns0RcXlEXP7tb3+7PjQ09MqI+NOIeG089eEGhYhneImy/7nfP0fEqqIo1px77rkjYplyt0fEy8VABzwn8juOKdbf339fRFwaEZe+7W1vqy9cuPCVEfFvI+KPPP49o80R8b2c8+qIWP2JT3zibpFM2DnizpzzW7tw3J8x+0zyY8Houeee+9mU0t9243lmgp6Ld8PVgvwusoS+8pWvrH7Xu971iYj4uDQiImK9AuABetWrXnXX97///WuGhob+TBrlMb/YFa/btyVu7D2848eydayII9pFzKx3/q5st887KeY/uSlmjQ1XZq1dsbsvqrCdQ4oc+445uRJzMr3YF//uCVcVoDuNjY19uF6vnxIRp1d4mPdGxPvMdjmdeeaZn7n22muPSCl9KCK6+TXFve12+5zJvME3vOENP7nhhhsuyDl/IiJ6cs7xm39+6Tf//rvKgkVR/Pr5wdP+/ek/65kc6NcdiN+8Pwci5zypl0J+pvv3yzLmVDnQHMb7ftaeYyfpA7m9Z/oZT//e3/y6/f+9YWxsbJEzcefIOV8wbdq0VxdFcfIvzxkHeu6Y7GP9+azl37xvOecn6vX6+802nejtb397O369O2D09/fXDj/88FPiqd0hflkIXBjdecngds75Z7VabW3O+cbe3t5/3l+epERqtdpHi6J4eUS8UhqU9elQSunT559//nWiKI9Wq/Wbj38X9/f31yLi1KIo/mD/Tmy/HxELuux3HsMppR/+Mpd2u33rRRdd9IDVMjlGR0c/1dvb+7p4qpTaDYqI+NzSpUuvNvtMth07dnxuzpw5/yYiuqn38fWHH3742+P9Q1NKH845V/29qntqtdp7HTnltHPnziWzZs2aF0+9n9jNOwH+IqV0jt3snodbb7119r333vvw2NjYTGmUx7ZaX5x/+GtiJHX+8Ty9nuKU6b2V+JXqqx+9K84Y2lCJNfZYUY+P76rGh/8Om1aPJxa+qhJjOfO+m+KNw484CZbInDlz1k+fPv2xKo3pmGOO+fjrXve6W8t433LOadWqVSemlCr36eSiKHatXbt24/5LtVBiq1atmlGv14/sxrGPjIy0d+/evWn/m+aTbs2aNbP27t17Ur1egU+PwIE/Puxcs2bNPR4fOtMVV1xxYq1We0HVxlWr1XYXRbFxqh4PYDJ84QtfmDs2NvaKlNJpKaVT46k3d06NiCod0zkiHoindvhbm3O+dfr06T9497vfvdMK6AyXXHLJCRExVxKUTaPRuHfx4sVPSqLz9Pf3N/bt23d6rVb7vXhqp9HT46lS4Is7fGjtiLg/Iu7cv+vcj3POP+np6dnY39/vEodTbNGiRcfXarV5VR9nzvnBSy+99HEzzlRavHjxCe12e24XHG+PXXrppZsm8CbSu9/97sq+V3Xsscd6r6oD/MVf/MWcoihO6saxt9vtvbt27bq71Wq1FQCfp7PPPvttOedvS6JcNrzy38Xdrz6rEmM5rtETh0/r7Pdxa8O744VfujBqe3ZVZo3dcsYbY8uczu439OYcsfB/iX19zY6fj1nbHo0/uuITUSs83yqRu3bu3Pl7q1ev9ksiAACALvC5z33u6Hq9fmrO+fSc8/EppeMi4tj9f8r6RtreiPhFPFV8uGv/Dn93NhqNnyv7AXAg+vv7Z+/bt29+rVabn3M+OSKOSSkdHRHH7H8MnOpNRIqIeCwiNkXE5pTSAznn+1JKG2u12saIuL+/v3/UTAIAVIsC4EE466yzvhsRr5dEeRQ9vfHd//PjsWdW538opidFnD6zN+qpcw/P2dd9M2befkOl1tiTsw6PG19+ZkQHz8u8WTNj6/Evq8R8vGbFf48jHvypk1+ZnlCk9MaBgQGXMgEAACA+//nPz8w5H5dzPrZWqx2bcz4i5zwvpTQ3IuallObmnOfFU0XBeRHROISbG42InRGxPSK2xVOlh6Gc86Mppcci4pGiKO7v7e29/73vfe+Q2QFgIn3kIx+ZNW3atBellA7POR+RUjo8Ig6PiLkppRlFUUxPKc2OiNnx1KXqeuPZS4OjEbE7IvbknHenlHZGxI6c846U0hMRsTWl9ETOeUu9Xn88Ih61kx8AQPdRADwIZ5111mkRcUdE9EijPB458V/FujPPqcRYjuyrx9F9nXlJ454nNscRX+mPVFTv6kc/OPX18ehhx3TkfZ8RRex52R9ETp1/lcAX3bc+fv+aLznplenJRErLBgYG3iIJAAAADtanP/3pZqPRaEREtNvtZr1eb0REFEXRrNVqjbGxsb09PT3Dv/Et25rN5t53vvOdw9IDAAAAupkC4EE6++yzv5hz/n8kUS43//vF8cRRJ3f+gZkiTp3eG4165x2ih337c9F3748rub52TZ8Tq//Vn3dkiW72kUfFjiOP6/g5qBXteP03l8SMJ31gv0RGc86nDw4ObhQFAAAAAAAAAEyumggOzsjIyIUR8YQkyuX0Nf8UKRcdP46cIzaNdN4O7X33/6yy5b+IiJl7tsfRQ7/ouPs9t5YrUf6LiDjxjuuV/0ompfRZ5T8AAAAAAAAAmBoKgAdp1apVWyPibyRRLrMffyiO/enNlRjL9rEcO8Y6qMxYtGPO9VdUfo0tfOCOqBedU86sRY69Lz2lEtn37dkZJ61b5URXLkN9fX0XiQEAAAAAAAAApoYC4CHYuXPnFyLiJ5Iol4VrV0TvyN5KjOWh4bHIkTvivs744Xej5/GHK7++GiN74vhH7u6Y+zu3b1oMz5xbiexPuWVZ9IwOO8mVSErpY61Wa7skAAAAAAAAAGBqKAAegtWrV4/lnBdLolym7d0Z82//n5UYy3AR8fho+XcBrA3vjllrVnTNGjvpoTtj2thI+Y+FXMSTJ5xRicznDD0YR/98rRNcudy1Y8eOy8QAAAAAAAAAAFNHAfAQDQ4O3hARyyVRLi/98Xdj5pOPVWIsj4wUUfYrAc+6cSBqe3d3zfrqHRuNkx8s/+afM+fOjXbvtM4PPOc4fU0rUofshtktUkqLV69ePSYJAAAAAAAAAJg6CoDjoCiKD0aE61KWaWEXRZy65spKjKWdczwy2i7t/evZsjmm/3B1162xlz5yd8wY3lXa+zczith6zCmVyProu9fGvM33OrGVSEpp2cDAwHWSAAAAAAAAAICppQA4DlauXHlfRCyVRLkc+cCd8cIH7qrEWLaMtmNvu5y7n82+4VuRinbXra9aLmLB/T8q553LOeKol0ak1PE59+wbiVNutclqyYwWRXG+GAAAAAAAAABg6ikAjpNGo3FRRDwiiXI57aYro1YUHT+OHBEPDZfvSpuNe38cjfvu7Nr19ZItD8QLdj1Ruvs1ryfFrsNfUomMT1q3Khq7tzuZlUhK6bODg4MbJQEAAAAAAAAAU08BcJy0Wq1dKaW/lkS5zNz2aLz0x9+txFh2tnM8ua9EZcaiHbO/80/dvcByjlPvW1equ1RPOXYff1ol4p2+44k4cf0NTmTlMtTX13eRGAAAAAAAAACgHBQAx9HAwMDXI2KtJMpl/u3/M6bt3VmJsWwabkdZKoAz1303erbY9PKw7Y/FC7c+XJr784JGX4xMn12JbE+96cqoje1zEiuRlNLHWq2WLRkBAAAAAAAAoCQUAMdXLori/RFRiKI8ekf2xsLbVlZiLCM5x9BIe8rvR9q7O2betMLi2u+0X6yLlKf+sG9GO7Yd//JKZHr4wxvixffdYXGVy107duy4TAwAAAAAAAAAUB4KgONs5cqV61JK/0MS5XLsnTfGnKEHKzGWzSPt2JfzlN6H2Tcuj9re3RbWfjP3bI9jhn4x5fejcdgLo+jp6fg8Uy7itBtbFlbZ5iWlxatXrx6TBAAAAAAAAACUhwLgxPhIROwQQ3mkyHH6mlbEFBfnxkMREQ8PT90ugD1bNsf0H33PonqaBQ+sj3oxdd2o2dGObS+ZX4ksj7vzxpj9xMMWVZnOoSktGxgYuE4SAAAAAAAAAFAuCoATYGBg4LGIuEQS5TJv872VuaToE/uK2N2emjLjnBu+FaloW1BP0xjZHSc+dNeU3HbKEe1jTqpEjr0je2JBRS7ZXSGjRVGcLwYAAAAAAAAAKB8FwAnSaDQ+nVLaIIlyOe2mK6M+NlqJsTw0PPm7zTU2ro++++60kJ7BSZvuiubI5F8aeW5vit1zX1SJDBfcNhjThndZTCWSUvrs4ODgRkkAAAAAAAAAQPkoAE6QVqs1mnP+iCTKpblza5xwx3cqMZbd7Rxb9xWTdnupaMfs77QsomdRL9qx8P4fTept9uYidp3wskrkN3Pr5jjuzu9bSOUy1NfXd5EYAAAAAAAAAKCcFAAn0IoVK5ZHxLWSKJeT110bzZ1bKzGWTSPtmKwK4PQf3BA9Wx+1gJ7D0Y/fH/N2PD5ptzd71swYbcyoRHan33Rl1IrCIiqRlNLHWq3WdkkAAAAAAAAAQDkpAE6woig+GBH7JFEe9bHRWLh2RSXGsq/I8ehIe8JvJ+3dHbNvWWnxHIic49T7bo/IecJvanoei60vrcbufy/6xY/jiAd/av2Uy/q+vr6vigEAAAAAAAAAyksBcIKtXLnyZxHxRUmUy9Ebbot5m++txFgeG2nHSDGxZbPZ318Wae9uC+cAzd25JV6y5YEJv51pLzwqcq3zT+O1oh2n3nyVhVMyKaUPt1qttiQAAAAAAAAAoLwUACdBURT9EbFFEiWSc5y+phUpcuevr4h4eHjiOjq9WzbHjDtutGaep1N/8cOoF2MT9vNfUMvx5ItPrERWJ/zo+pjx5JBFUyIppWUDAwPXSQIAAAAAAAAAyk0BcBKsXLlyW875Y5IolzlDD8ZLfr62EmPZNlbEjrFiQn727OuviChsAvZ8NUZ2x4mbfjZhJ+7RY+dXIqe+PTvj5B+usmDKZbQoivPFAAAAAAAAAADlpwA4SV75yld+OaW0ThLlcuoty6JndLgSY9k03B73/QwbG++Ivl/cZaEcpJMeujOaI3vG/efOnVaPPbMPr0RGp1ToGKyKnPPSwcHBjZIAAAAAAAAAgPJTAJwk/f39Rc75vIgKXHO2Qvr27IyTfvjPlRjL3iLHltHx2wUwtdsx57v/ZJEcgnoxFgvu/9G4/szeKGL7CWdUIp85jz8YR1dkF84KGWo2mxeLAQAAAAAAAAA6gwLgJFqxYsWaiNCoKpkTf3RdzNj+eCXG8sjIWIyNU8V0xu3XR/2JRy2QQ3T00H3xgp1PjNvPmzV7ToxNa3R+MDnH6Te2IulEl0pK6WOtVmu7JAAAAAAAAACgMygATnbgtdp/iYg9kijRnBTtOOWWqysxlrEc8ejI2KFnsmdnzLxppcUxDlJEnH7fDyLyoRfdZuR2bDvu1ErkcvTGH8S8zfdaIOWyvq+v76tiAAAAAAAAAIDOoQA4yZYvX/5QRHxKEuXy4nt/FEc89PNKjGVotIi9xaGVzWZ9b1nURvRUx8vcHY/HUVsePOSfU3/RMZFT55+262OjsfDWAQujZFJKH261Wm1JAAAAAAAAAEDnUACcAo1G45MR8YAkyuW0Na1IRed3X3JEbBo++F0Ae7Y8EjN+fJMFMc5O+cW6qB3C+npBPceOI4+rRBYnr7s2mju3WhQlklJaNjAwcJ0kAAAAAAAAAKCzKABOgVartTeldIEkymXW1s1x3E9vrsRYdozl2D5WHNT3zrn+iojCJmDjbfrI7jhp010Hd6LOOYaPO6USOTR3bo0T7viOBVEuo0VRnC8GAAAAAAAAAOg8CoBTZGBg4IqI+L4kymXh2oGYNry7EmN5aLgdz/dCwI27fxh9v/iphTBBTnrozpg+vPN5f9/cZl8Mz5xbiQxOu+nKqI+NWgwlknNeOjg4uFESAAAAAAAAANB5FACnUErpvIiw1VqJ9A7vjpNvv6YSYxkpcgyNHPjySu12zF59pUUwgepFO152z23P63v6inY8efzplRj/4Q9viBff+yMLoVyGms3mxWIAAAAAAAAAgM6kADiFBgYGfpRzvkwS5XL8T74Xs554pBJj2TxaxL7iwPYBnPGD66Jn62MWwAR74bZH4sgnNh3w10+fd1i0e/s6ftwpF3Hamn+yAEom5/zRVqu1XRIAAAAAAAAA0JkUAKdYb2/vRyPiSUmURyralSkqtXOORw5gF8D6np0x8+aVJn+SvOze26JejD3n182Kdmw7ZmElxnzcXWti9pZNJr9c1jebTSV0AAAAAAAAAOhgCoBTbNmyZUM55yWSKJcjNv08jnzgzkqMZctYEXuK4lm/Ztb3rorayF4TP0maI7vjpIfuevYvyhFx1PERKXX8eHtH9sSCtYMmvmRSSh9utVouQw8AAAAAAAAAHUwBsAR27dr1uYi4SxLlctqNrai1xzp/IDniob3P3PHpHXoopq+/yYRPspM23RUzhnc+47/P7YnYefhLKjHWBbetjGnDu0x6iaSUlg0MDFwnCQAAAAAAAADobAqAJbB69eqxWq12niTKZcb2x+P4n3yvEmPZ1c6xbd/v3gVw9g3fjsiFCZ/sk2/RjpdvvDUi59/6t56I2HP8aZUY58ytm+O4O79nwstltCiK88UAAAAAAAAAAJ1PAbAkli9ffn1ErJREucy/bWX07dlRibFsGhmL4mlds8bd66Lv/p+Z6Cly2JOPxrGP3fNb/39Osy9Gps+uxBhPu+nKqBUKpmWSc146ODi4URIAAAAAAAAA0PkUAEukXq//ZUSMSKI8evYNx4K1KyoxltEi4rHRX18KOLXbMXv1VSZ5ip1637pojOz51d+bMRbbTjijEmN70f0/iRc++FOTXC5DzWbzYjEAAAAAAAAAQDUoAJbI1VdffW9EXCqJcjn2pzfHC4YerMRYHh3ZF6P7dwGccduq6Nn6mAmeYr3tfXHGPWt/9fe+w14URb2n8x9cinacepOCadnknD/aarW2SwIAAAAAAAAAqkEBsGRSSn8TEZslUaI5iRynrWlF5NzxYymiFo8+viXqe3bGrFuuMbklceTWTfHiLQ/EnFTEky85uRJjOuGOG2LGkwqmJbO+2WxeJgYAAAAAAAAAqI4kgvI5++yz35Vz/qokyuXuV/157Jr3ogoc9Snm37cuZt39Q5NaIiPTmrHh9/8sRmfN7fwlVhRxxupvRM/osIkt1aGf3jgwMHCdJAAAAAAAAACgOhQAS6i/v7+2bt26WyLiVdIA4JAf7FNaNjAw8BZJAAAAAAAAAEC1uARwCfX39xc55/MiIksDgEM0WhTF+WIAAAAAAAAAgOpRACypwcHBW1JK35AEAIci57x0cHBwoyQAAAAAAAAAoHoUAEts/45NuyQBwEEaajabF4sBAAAAAAAAAKqpLoLy2rBhw84FCxbUIuJPpAHA85VzXnz11VffLAkAAAAAAAAAqCY7AJbc2NjYpyLiHkkA8Dytbzabl4kBAAAAAAAAAKrLDoAld88997QXLlz4cET8B2kAcKBSSv9p2bJlCuQAAAAAAAAAUGFJBJ3hrLPOWhURb5QEAM/54J7SsoGBgbdIAgAAAAAAAACqzSWAO2WiarXFETEmCQCew2hRFOeLAQAAAAAAAACqTwGwQyxfvvynKaUvSQKAZ5NzXjo4OLhREgAAAAAAAABQfQqAHaTdbn8sIrZIAoBnMNRsNi8WAwAAAAAAAAB0h7oIOsfGjRuHFy5cuDci/kwaADxdznnx1VdffbMkAAAAAAAAAKA72AGww/T19X0xIn4sCQCeZn2z2bxMDAAAAAAAAADQPZIIOs9ZZ531JxFxgyQA+NUDekpvHBgYuE4SAAAAAAAAANA97ADYgVasWPGdiLhKEgDsd5XyHwAAAAAAAAB0HwXAzvWhiBgWA0DXG805XyAGAAAAAAAAAOg+dRF0pg0bNjy5YMGCZkT8kTQAulfO+e8HBwe/JQkAAAAAAAAA6D52AOxsF0fEg2IA6FpDzWbzYjEAAAAAAAAAQHeyA2AH27Bhw76FCxduiYi3SAOg++ScF1999dU3SwIAAAAAAAAAupMdADvcwMDAP6aUbpQEQNdZ32w2LxMDAAAAAAAAAHQvBcDOl3PO50VEIQqA7pFS+nCr1WpLAgAAAAAAAAC6lwJgBaxYseKHEfEPkgDoGlcNDAxcJwYAAAAAAAAA6G4KgBXR09NzQURslwRA5Y3mnC8QAwAAAAAAAABQF0E1/PznP989f/78dkrpDdIAqK6c898PDg5+SxIAAAAAAAAAgB0AK6TZbH42pbRBEgCVNdRsNi8WAwAAAAAAAAAQoQBYKa1WazTn/F8kAVBNOeePtlotl3sHAAAAAAAAACJCAbByVqxYMRgR10gCoHLWN5vNy8QAAAAAAAAAAPySAmA1fTAi9okBoDpSSh9utVptSQAAAAAAAAAAv1QXQfVs2LBhy4IFC+ZGxB9IA6ASrlqxYsUlYgAAAAAAAAAAfpMdACtqbGysPyIelQRAxxvNOV8gBgAAAAAAAADg6RQAK+qaa67ZkXP+r5IA6Gw556WDg4MbJQEAAAAAAAAAPJ0CYIW98pWv/GpE3C4JgI411Gw2LxYDAAAAAAAAAPC7JBFU25vf/ObXFkWxxlwDdJ6c818MDg7+f5IAAAAAAAAAAH4XOwBW3PLly2/OOX9LEgAdZ32z2bxMDAAAAAAAAADAM1EA7ALtdvvDEbFbEgAd9ABdq32o1Wq1JQEAAAAAAAAAPJO6CKrvnnvu2TF//vzelNLrpQHQEa4aGBj4pBgAAAAAAAAAgGdjB8Au0Ww2/y4i7pcEQOmN5pwvEAMAAAAAAAAA8FwUALtEq9XaGxHnSwKg3HLOSwcHBzdKAgAAAAAAAAB4LgqAXWTFihXfjojVkgAoraFms3mxGAAAAAAAAACAA6EA2H0WRcSYGADKJ+f80VartV0SAAAAAAAAAMCBUADsMitWrLgrIr4qCYDSWd9sNi8TAwAAAAAAAABwoBQAu9Do6OhfR8QTkgAo0QNyrfahVqvVlgQAAAAAAAAAcKAUALvQqlWrtqaUlkgCoDSuWr58+fViAAAAAAAAAACeDwXALrVjx47PR8RPJAEw5UZzzheIAQAAAAAAAAB4vhQAu9Tq1avHcs6LJQEw5T4zODi4UQwAAAAAAAAAwPOlANjFBgcHb8g5D0gCYMoMNRqNS8QAAAAAAAAAABwMBcAut38XwBFJAEzJOfijrVZruyQAAAAAAAAAgIOhANjlVq5ceV9ELJUEwKRb32w2LxMDAAAAAAAAAHCwFACJRqPxiYh4RBIAk/gAXKt9qNVqtSUBAAAAAAAAABwsBUCi1WrtSin9tSQAJs1Vy5cvv14MAAAAAAAAAMChUAAkIiIGBga+HhFrJQEw4UZzzheIAQAAAAAAAAA4VAqA/FIuiuL9EVGIAmBCfWZwcHCjGAAAAAAAAACAQ6UAyK+sXLlyXUrpf0gCYMIMNRqNS8QAAAAAAAAAAIwHBUCe7iMRsUMMABPiwlartV0MAAAAAAAAAMB4UADkXxgYGHgsIuxOBTD+1jcajcvFAAAAAAAAAACMFwVAfkuj0fh0RGyUBMA4PuDWah9qtVptSQAAAAAAAAAA40UBkN/SarVGI+LDkgAYN1ctX778ejEAAAAAAAAAAONJAZDfacWKFctTSqskAXDIRnPOF4gBAAAAAAAAABhvCoA8o3a7vTgi9kkC4JB8ZnBw0GXVAQAAAAAAAIBxpwDIM1q5cuXPIuKLkgA4aEONRuMSMQAAAAAAAAAAE0EBkGdVFEV/RGyRBMBBubDVam0XAwAAAAAAAAAwERQAeVYrV67cllL6r5IAeN7WNxqNy8UAAAAAAAAAAEwUBUCeU19f35cjYr0kAJ7HA2yt9qFWq9WWBAAAAAAAAAAwUZIIOBBnnXXW6yLi+9YMwAG5asWKFW8VAwAAAAAAAAAwkewAyAFZsWLFmpTSlZIAeE6jOecLxAAAAAAAAAAATDQFQA5YSumDEbFHEgDP6jODg4MbxQAAAAAAAAAATDQFQA7Y8uXLH4qIv5cEwDMaajQal4gBAAAAAAAAAJgMCoA8L/uLLQ9IAuB3urDVam0XAwAAAAAAAAAwGRQAeV5ardbeiPgrSQD8lvWNRuNyMQAAAAAAAAAAkyWJgINx1llnfS8i/kgSAE+p1WpvWL58+fWSAAAAAAAAAAAmix0AOSgppfMioi0JgIiIuEr5DwAAAAAAAACYbAqAHJSBgYEfRYRLXQJEjOacLxADAAAAAAAAADDZFAA5aD09PRdGxJOSALrcZwYHBzeKAQAAAAAAAACYbAqAHLRly5YN5ZyXSALoYkONRuMSMQAAAAAAAAAAU0EBkENy1FFHXRoRd0sC6FIXtlqt7WIAAAAAAAAAAKaCAiCH5Mtf/vK+lNIHJAF0ofWNRuNyMQAAAAAAAAAAU6UuAg7V3Xfffd+CBQt+PyLmSwPoFrVa7T9eddVV90oCAAAAAAAAAJgqdgBkXKSUzouIEUkAXeLK5cuXXy8GAAAAAAAAAGAqKQAyLgYGBu6JiEslAXSB0ZzzX4kBAAAAAAAAAJhqCoCMm5TS30TEZkkAFfeZwcHBjWIAAAAAAAAAAKaaAiDjZmBgYGdEfEwSQIUNNRqNS8QAAAAAAAAAAJSBAiDj6hWveMXlEXGbJICKurDVam0XAwAAAAAAAABQBgqAjKv+/v4i53xeRGRpABWzvtFoXC4GAAAAAAAAAKAs6iJgvG3YsGHTwoULT46IM6QBVEWtVvuPV1111b2SAAAAAAAAAADKwg6ATIiiKM6PiF2SACriyuXLl18vBgAAAAAAAACgTBQAmRCDg4MP55z/VhJABYzmnP9KDAAAAAAAAABA2SgAMmHa7fb/GxH3SALocJ8ZHBzcKAYAAAAAAAAAoGySCJhIZ5999pk553d1zAGR0t6c87CZo4vtjohRMfxKHhsbu+Saa67ZIQoAAAAAAAAAoGz+fwTJseRMHXvYAAAAJXRFWHRkYXRlOmNyZWF0ZQAyMDI0LTEwLTAzVDExOjAwOjQyKzAwOjAwT95dZgAAACV0RVh0ZGF0ZTptb2RpZnkAMjAyNC0xMC0wM1QxMTowMDo0MiswMDowMD6D5doAAAAASUVORK5CYII=;" vertex="1" parent="1">
          <mxGeometry x="1089.99" y="390.56" width="130" height="26.87" as="geometry" />
        </mxCell>
        <mxCell id="8zDSFXB22d2hlP_r7Qgr-6" value="" style="shape=image;verticalLabelPosition=bottom;labelBackgroundColor=default;verticalAlign=top;aspect=fixed;imageAspect=0;image=data:image/webp,UklGRlwOAABXRUJQVlA4TFAOAAAv+0ElEIdAkG3T+cPc8BwK2rZh0h2e4w9iIZC08c3ev9O5QbaR3uCLMH+rN3iEgNmVlfaQnyPlkRKBCAw8WP7g27atOpJt26oNECAErfL/vysJNSG5LMaYlxTR/wnA/6dfSq11df+hazys7j9xmafq/pKl1Cj/CdAz9gkkuJdIJFnfQIL7t+M4mm5bSWp+hW1HeVyoJKv8K6p3JR6mN6gH4WGy8XD7l4M+wrvyUXuDcuAf1njq/+W4Pk864hvEXcOzE8/DvxzIetbvQjmob+B34WF1wM3kgqUfSTkn/2MBix7l2xAqSfcGWLa64OF61jFzpWUeqSSpWw7yS8HXXcOMITt8xIHwOoetxPAzAWmrWab4kNtJxjsdtpKD/EQfPOiuR7zZodacwu8kIbj7nP8AkCUvDrM/4rjXNQb/88hKkn25RypZnibb+rxnPui01ZxD+F0qj9dbVpJcH7aR6ZOdt1pyDMH/GI7n6Q7d0T2L5PbpRlv9IcJAvyHwsD4qkKxPCVutWT4E9YfwAwy3MT0pktRnyMZ99x+i/hBYB8p9Kg/aSPIR0nhcP0T5JVDO6Mz8CbcH6U6eUHgu3yH/FIhndcRVssoJ1hMuj1m4Dw8IHPTfIf0WcHrEeCadJMsZyon6p5SD+IA6oPgO4ceA1COGk8BDOUPWA7aHeB6u8wUOxg8hvwawHqk7ckdhAH7VHcszylGbrw8UfAj8oEl37HKAeuBHAMk7picsPJXZIk814i+p+eb0i8Dpjk0OJHfWBVfTjmk+p2fLZF5PisefkvGLS9uxyc467phmW5TnZbLKw+rx5H8mQNmxyQ2oO6aplspRnWvlvgc8+x8K8o7d3RAOuJqFlNd6mA+3yqtppsT9KvhnhrSjOjv0AzZn4HLlhHWiQJK6YFRC+McFp9wnu3xEFj8kqSgnXQwk2Dgl2TxGnZLd/ZNJcRq4vmMRK3dGthwEkJDWxom7XJLGYBGUZBWMipJk/xeTqX4aSNuxh4EYRzDy1O2K62QxSCRZMJ54mL6IMwh7/xGkkqzzQNqOrOFANjKPtMexyIisJNmvRZIsuJiP8tdwsZJ+zK2Nx1qCVYilNh7WusbwBAkxb/V0yzHYJeV+mQdSDsiWUypKso/U57EnfyBL4fEVKSTZcDUcLV9CltK5LyN+43gzkLjRsEY/k0+l07CV5A2WxmOVeYByNJpeZV9rVQ6GMd9Isskud9blCElJFnwGlxsH5SwpL5ZLodB8C5NIaryxrYuM+Ng5uM6EcknlTF/iahxalCRVAKBxX44gMS/4Bj4V5Xg6ksLLy4VQeWsLE/hVeXsrOYQQcmm8GGZCucJ84vjKbWTlXh0ArDxejh76Rkvj9e1AGq/LkBTeXv1NkvnkNhXKFfVH6zsxnLjGwwQAgafta9BQd67z+obRRTmhpltC57PzVCgXuB14fakmO194nAFA9IwfAxZ0gFMaxpGVk5YbVj5d/VQoF7gAkMa31hzixtOCfeW5fo1qkSBKS38mhdM2MZLK59e5UC50ATz/xIJ95mD+GtkiS6Nlx6k0TtzERBrfcJkLZYwrgPys1uYo2AcOZnyNxaJsNF3PKqduYiCNr6gyl7QxLgDaY3p2AOBD3vpNBXuvR71Ej8/hLazDSeHk1aDwHdtkkDamAjgbrVver7VZacawLKXbReylcV8cnv9KmEZxHDl9uRT5jkUwu9chVgD52pY8hkPc9FrzuO7WbtIcDitJbh5v+E51lnLk+MB0wes7RDzQ6RAjgDrWksDS5TaWYRzKJc04LiR1wTu+0zZLOpD+BHVjlW9YPR65jDEAogM1wN6v/aQH2EvWoeJxKIVk8/gweRY5WPnINhT4giXgqXlMBXB6pAk3LxvJlnCvpH5SPI59I9kEf9iNebKKvaN1iwEIqVgxjmxmWwwecCE3q22t+y0vggeXITYATneb4CVd3mpOgtOoJJvg04RJ4kE16gGnvhipnHkaF4/BUG0aXlHaEAsA16gLXlliJ0kVfLlea9+5XaDtJhhNNsxn0UYDLkYT5leA0yFGAIgOb+wKjwO+W1mwl1Q79tWm4mKyUTlpJupwOZmovALSGBNeOlWeZnwdsSseg37naapyBasJ85HQNMJwtWB+B5Qxda+UOs9VPg+sdMH1YpNwWdREj4JJh6WohT4tLAfShqhuOkk5R39L6hxN+GjNwVBNOgyzCZeDbJJMsFpweZCPm0YcuzE2mUtWHmYxS53DKh+tCQwTTaOFtykHxcTbBJP1KZIauQnO8xibzLQoT5sz8Vl5seCbqYdlsfEWaCZ6UC06jE3qM0IhqQuG2xibTCMbh/O1ZeP15aNlmKpJh2k0YTCrVs1Cn5AqSVbBuLvAJpNE5cWeZECWojRU/BCBpsUm2GSzzapacL7QuV9xOV9gDzOESkPd8hLCkkujcfklsk20gU01y+/lKw8TDNsFsshdvvCR6ZeoNsGomdCszuTnisq9BliGS9Qsd/jCh/pfgrZitNm4ydREZpLKQ3WwXS+RmsXKFT61Y1S+njOCcbZZrNRIaIqJXeOxg7HoNVJXbyCp8rllKFT37RabOlUGkC3obNLDnPI4wXyxINmiG3Jx46PjEFau8uXyVMFmBRBNVptq0uaRzuMVw0saQrXZ15L3pfLxbkyUPfxBNZuH2VabbaoKIJioWASalnkqjxtGpaiMeTV7UVzMJPPfk3H/LNUmTwcTVgNRmzhN5KkbkcaCi/H16hVPkpv8QmLTdpsJyyXfaOtnET0pGJRGpitob5evoJNkk4/GqWDDXbJhC2NRaVsxa+KpH5BGMlzy+nLhUt2xyS8nakO26A5kWZXWaZp6UjDYaIL0bgojbr8cstWMHdPydBnI3C/XUF5tNWMckK8XHyD6mGU6xbnn4WqA9mb+Gk9Vzlzz3y48APEpFdPVgXLULaS914rLyxnzGVTdr4XyDPXz5TPhaTCAtLdqcq0O6EClui+XHyHtEQET90vLWbOAtHdSh8uBo+6skOp+LEh7QMLM69Fyls+YLYDyRs3jsvShdJZJqv+xIGW6hKndUbJgMMGir5MF1zcO5zG2n0Ns+gCw6FQaMHk9yCbqTCDlXYqHYaHRtmP+Qn2qYFOHIFnnqR6ze90VE2owAVx9DS0eloUXl7N6oPKB6ssAEtscGvHAtGtnYYhMNoArr1CTwFIar/ozHucPtNmUqcoVQLLep1nwyEyS/gQ6xk1sAIntYTV62Abl1YbT5aR/oGxTrZJNvrJsvL9FwVMzyXiWL7AvRgB8bE9p6yIwlsLr6ayc0H2fOFW2SWOp826t0ePJiexnohfI6q0AyLK2yfqWg8A+Ka83nIqe5e8TbNRqtQkjodFY11prLTkHh8e7znSC5RJZvNlhiGvtE7SaYxDcmjot3Vnmefk+sKFVtZGBTGPNgjeVtZ9hvUYWf8exCzHnWmsdq7XWnHMIgvtTp2nCqehA/UDdxhmpScd5ofHm8bbOn6EYkHW56+E+K20Lzjd+qmKz2AhNt7OVtrrg3YsFqat7KUkbrVecLxwtHyjZZJvFJp4E2qrD22cTkn11ryOpKM0Tzr0O5Q/kbarNauNOqlHA+y9qQ7Kvi7yHixtv7A7n0jgcPhCaCW26Scex0Bh/oWxW+5qDPM+l0nnrKjiXxmHFF4o2i4Wn6XqyWC1/AbB0u30rMTzGL7kqb+4Bg9I4vn4ib1MsVht3kq3Y6pqHUwjuhSBZ7zjsNacgM7mQ18oJNWFUGi/6T4RqonJN1KTjNluta/LvAkjWm05bXXMMwZlJCEvOW+2cVLNg1DVezPhGyYTrtUzT9IzDlv2rABL7DOP1auf0PWF8UV5s8pHQTZiuOJqqPIhk8a8CYNnmenoJGJeVV9XhK2UbpjGnNhnn8RHkKu8C+Nj+hhYFF13j5QWfSboNVxkISlOVgfAQdvcyAHxsb9eix1VZeT3hOyEZUVd3sBQaJ4zqQ6jpdQD4uL2WbsnjelJe1gUztz8P1Whfa6V5xXB5CpleaB9yfZ+aHSxD4/XuMDX/PnfDnerHwnOY3mkf4tbfopXoYBsqDTfBx0J+QsLF9TnqXmsvIZb6rLrGAPOl0lAXzP4FsM1XcLk9hk3e7NiHmGudTOuWUxDcKLHTchV8MWmzNbmG9THM73fuwpLzWmvtVr3WuuYcgsftrigti8cDbZa/Bl7nagLLUPQh9H/GZR8GPab2sdO0eDzR2YQ/B05nagLrkGt/wvpXPdTHRtMeBc8MHwGuzdME94aQc67nfQaVz+Ryo6mWgMcuNv4PgtRZquCBPqRc7Zg+kU9FadrXgCdnG/xFQJ4j47mSqlX5PC6VTtNeksfDN5P2R8G1+3rAs0O36V/GL7kqLWvJQfCC3aT8VUDq92jE40VNKN/Fx5zrIdnqfs05BMFbeprGvwtIza4ngamE6+4OBJvwXV4/27ghFyz9BMHSTwL43Cza6mCdeL3cgmaSfrZuovjzJeSt6lGvW14EN3aD5Z5okn+1RNPt75va0VDuCf8QRG3Sp4oWuPkfwkpTlU9V/t0stC341HW68M/AqZH/fHLP+q9AGm0LPt9yTzcJP5g02qr/fuWWTFP3e0mjccb3o7vB0RY/tzQaN3ztzaSLmVOb+nM5pbH6z5VN2J1RVNrGXysprRd87mBDFm+wVFr730o2mmd8cDUiWw5yJiEWpXnFb+3VrOCLF7PDXmutvHv5seDUqOCT+3umrPi5k03BR9+eFn4vRIuIr+71WSt+8XJJF3z3+KiG37xeaB5fvjxI5UeTNpTx7aU9Rh1+da9n1eHrS3uIOvzuTg96wg8o5RFN8Msnkj3hR8wPyPjxY0v4HV2drDr8Zzn1iWrAf56XbZIS8J9pH7e7dEuC/2SHvHWjtsWA/4i7kHLO9bjkHIPD/24I;" vertex="1" parent="1">
          <mxGeometry x="1100" y="444.48" width="122.25" height="36.1" as="geometry" />
        </mxCell>
      </root>
    </mxGraphModel>
  </diagram>
  <diagram id="9s3VfILaDnFOohzKhWji" name="Page-2">
    <mxGraphModel grid="1" page="1" gridSize="10" guides="1" tooltips="1" connect="1" arrows="1" fold="1" pageScale="1" pageWidth="1400" pageHeight="850" math="0" shadow="0">
      <root>
        <mxCell id="0" />
        <mxCell id="1" parent="0" />
      </root>
    </mxGraphModel>
  </diagram>
</mxfile>
